<?xml version="1.0" encoding="UTF-8" standalone="no"?>
<!DOCTYPE svg PUBLIC "-//W3C//DTD SVG 1.1//EN"
 "http://www.w3.org/Graphics/SVG/1.1/DTD/svg11.dtd">
<!-- Generated by graphviz version 12.1.2 (20240928.0832)
 -->
<!-- Title: public.roles Pages: 1 -->
<svg width="657pt" height="571pt"
 viewBox="0.00 0.00 656.56 571.20" xmlns="http://www.w3.org/2000/svg" xmlns:xlink="http://www.w3.org/1999/xlink">
<g id="graph0" class="graph" transform="scale(1 1) rotate(0) translate(4 567.2)">
<title>public.roles</title>
<polygon fill="white" stroke="none" points="-4,4 -4,-567.2 652.56,-567.2 652.56,4 -4,4"/>
<!-- public.roles -->
<g id="node1" class="node">
<title>public.roles</title>
<polygon fill="#efefef" stroke="none" points="47.34,-200.2 47.34,-235.8 301.02,-235.8 301.02,-200.2 47.34,-200.2"/>
<polygon fill="none" stroke="black" points="47.34,-200.2 47.34,-235.8 301.02,-235.8 301.02,-200.2 47.34,-200.2"/>
<text text-anchor="start" x="69.69" y="-213.6" font-family="Arial Bold" font-size="18.00">public.roles</text>
<text text-anchor="start" x="154.17" y="-213.6" font-family="Arial" font-size="14.00">    </text>
<text text-anchor="start" x="185.29" y="-213.6" font-family="Arial" font-size="14.00" fill="#666666">[BASE TABLE]</text>
<polygon fill="none" stroke="black" points="47.34,-169.4 47.34,-200.2 301.02,-200.2 301.02,-169.4 47.34,-169.4"/>
<text text-anchor="start" x="54.34" y="-181.6" font-family="Arial" font-size="14.00">id </text>
<text text-anchor="start" x="69.12" y="-181.6" font-family="Arial" font-size="14.00" fill="#666666">[integer]</text>
<polygon fill="none" stroke="black" points="47.34,-138.6 47.34,-169.4 301.02,-169.4 301.02,-138.6 47.34,-138.6"/>
<text text-anchor="start" x="54.34" y="-150.8" font-family="Arial" font-size="14.00">name </text>
<text text-anchor="start" x="93.25" y="-150.8" font-family="Arial" font-size="14.00" fill="#666666">[varchar(50)]</text>
<polygon fill="none" stroke="black" points="47.34,-107.8 47.34,-138.6 301.02,-138.6 301.02,-107.8 47.34,-107.8"/>
<text text-anchor="start" x="54.34" y="-120" font-family="Arial" font-size="14.00">description </text>
<text text-anchor="start" x="125.93" y="-120" font-family="Arial" font-size="14.00" fill="#666666">[text]</text>
<polygon fill="none" stroke="black" points="47.34,-77 47.34,-107.8 301.02,-107.8 301.02,-77 47.34,-77"/>
<text text-anchor="start" x="54.34" y="-89.2" font-family="Arial" font-size="14.00">created_at </text>
<text text-anchor="start" x="124.39" y="-89.2" font-family="Arial" font-size="14.00" fill="#666666">[timestamp with time zone]</text>
<polygon fill="none" stroke="black" points="47.34,-46.2 47.34,-77 301.02,-77 301.02,-46.2 47.34,-46.2"/>
<text text-anchor="start" x="54.34" y="-58.4" font-family="Arial" font-size="14.00">updated_at </text>
<text text-anchor="start" x="128.3" y="-58.4" font-family="Arial" font-size="14.00" fill="#666666">[timestamp with time zone]</text>
<polygon fill="none" stroke="black" stroke-width="3" points="45.84,-44.7 45.84,-237.3 302.52,-237.3 302.52,-44.7 45.84,-44.7"/>
</g>
<!-- public.user_roles -->
<g id="node2" class="node">
<title>public.user_roles</title>
<polygon fill="#efefef" stroke="none" points="43.2,-484.4 43.2,-520 305.16,-520 305.16,-484.4 43.2,-484.4"/>
<polygon fill="none" stroke="black" points="43.2,-484.4 43.2,-520 305.16,-520 305.16,-484.4 43.2,-484.4"/>
<text text-anchor="start" x="50.2" y="-497.8" font-family="Arial Bold" font-size="18.00">public.user_roles</text>
<text text-anchor="start" x="173.67" y="-497.8" font-family="Arial" font-size="14.00">    </text>
<text text-anchor="start" x="204.79" y="-497.8" font-family="Arial" font-size="14.00" fill="#666666">[BASE TABLE]</text>
<polygon fill="none" stroke="black" points="43.2,-453.6 43.2,-484.4 305.16,-484.4 305.16,-453.6 43.2,-453.6"/>
<text text-anchor="start" x="50.2" y="-465.8" font-family="Arial" font-size="14.00">user_id </text>
<text text-anchor="start" x="100.01" y="-465.8" font-family="Arial" font-size="14.00" fill="#666666">[uuid]</text>
<polygon fill="none" stroke="black" points="43.2,-422.8 43.2,-453.6 305.16,-453.6 305.16,-422.8 43.2,-422.8"/>
<text text-anchor="start" x="50.2" y="-435" font-family="Arial" font-size="14.00">role_id </text>
<text text-anchor="start" x="96.12" y="-435" font-family="Arial" font-size="14.00" fill="#666666">[integer]</text>
<polygon fill="none" stroke="black" points="43.2,-392 43.2,-422.8 305.16,-422.8 305.16,-392 43.2,-392"/>
<text text-anchor="start" x="50.2" y="-404.2" font-family="Arial" font-size="14.00">created_at </text>
<text text-anchor="start" x="120.25" y="-404.2" font-family="Arial" font-size="14.00" fill="#666666">[timestamp with time zone]</text>
<polygon fill="none" stroke="black" points="43.2,-361.2 43.2,-392 305.16,-392 305.16,-361.2 43.2,-361.2"/>
<text text-anchor="start" x="50.2" y="-373.4" font-family="Arial" font-size="14.00">updated_at </text>
<text text-anchor="start" x="124.16" y="-373.4" font-family="Arial" font-size="14.00" fill="#666666">[timestamp with time zone]</text>
</g>
<!-- public.user_roles&#45;&gt;public.roles -->
<g id="edge1" class="edge">
<title>public.user_roles:role_id&#45;&gt;public.roles:id</title>
<path fill="none" stroke="black" d="M316.01,-435.35C361.76,-407.51 354.82,-184.8 302.02,-184.8"/>
<polygon fill="black" stroke="black" points="316.09,-435.33 305.23,-433.78 310.96,-436.81 306.8,-438.01 306.8,-438.01 306.8,-438.01 310.96,-436.81 307.73,-442.43 316.09,-435.33"/>
<text text-anchor="start" x="313.16" y="-448.2" font-family="Arial" font-size="10.00">FOREIGN KEY (role_id) REFERENCES roles(id) ON DELETE CASCADE</text>
</g>
</g>
</svg>
