<?xml version="1.0" encoding="UTF-8" standalone="no"?>
<!DOCTYPE svg PUBLIC "-//W3C//DTD SVG 1.1//EN"
 "http://www.w3.org/Graphics/SVG/1.1/DTD/svg11.dtd">
<!-- Generated by graphviz version 12.1.2 (20240928.0832)
 -->
<!-- Title: public.notifications Pages: 1 -->
<svg width="707pt" height="1156pt"
 viewBox="0.00 0.00 706.82 1156.40" xmlns="http://www.w3.org/2000/svg" xmlns:xlink="http://www.w3.org/1999/xlink">
<g id="graph0" class="graph" transform="scale(1 1) rotate(0) translate(4 1152.4)">
<title>public.notifications</title>
<polygon fill="white" stroke="none" points="-4,4 -4,-1152.4 702.82,-1152.4 702.82,4 -4,4"/>
<!-- public.notifications -->
<g id="node1" class="node">
<title>public.notifications</title>
<polygon fill="#efefef" stroke="none" points="71.9,-1066.6 71.9,-1102.2 349.86,-1102.2 349.86,-1066.6 71.9,-1066.6"/>
<polygon fill="none" stroke="black" points="71.9,-1066.6 71.9,-1102.2 349.86,-1102.2 349.86,-1066.6 71.9,-1066.6"/>
<text text-anchor="start" x="78.9" y="-1080" font-family="Arial Bold" font-size="18.00">public.notifications</text>
<text text-anchor="start" x="218.37" y="-1080" font-family="Arial" font-size="14.00">    </text>
<text text-anchor="start" x="249.49" y="-1080" font-family="Arial" font-size="14.00" fill="#666666">[BASE TABLE]</text>
<polygon fill="none" stroke="black" points="71.9,-1035.8 71.9,-1066.6 349.86,-1066.6 349.86,-1035.8 71.9,-1035.8"/>
<text text-anchor="start" x="78.9" y="-1048" font-family="Arial" font-size="14.00">id </text>
<text text-anchor="start" x="93.68" y="-1048" font-family="Arial" font-size="14.00" fill="#666666">[integer]</text>
<polygon fill="none" stroke="black" points="71.9,-1005 71.9,-1035.8 349.86,-1035.8 349.86,-1005 71.9,-1005"/>
<text text-anchor="start" x="78.9" y="-1017.2" font-family="Arial" font-size="14.00">user_id </text>
<text text-anchor="start" x="128.7" y="-1017.2" font-family="Arial" font-size="14.00" fill="#666666">[uuid]</text>
<polygon fill="none" stroke="black" points="71.9,-974.2 71.9,-1005 349.86,-1005 349.86,-974.2 71.9,-974.2"/>
<text text-anchor="start" x="78.9" y="-986.4" font-family="Arial" font-size="14.00">title </text>
<text text-anchor="start" x="104.57" y="-986.4" font-family="Arial" font-size="14.00" fill="#666666">[varchar(200)]</text>
<polygon fill="none" stroke="black" points="71.9,-943.4 71.9,-974.2 349.86,-974.2 349.86,-943.4 71.9,-943.4"/>
<text text-anchor="start" x="78.9" y="-955.6" font-family="Arial" font-size="14.00">message </text>
<text text-anchor="start" x="139.59" y="-955.6" font-family="Arial" font-size="14.00" fill="#666666">[text]</text>
<polygon fill="none" stroke="black" points="71.9,-912.6 71.9,-943.4 349.86,-943.4 349.86,-912.6 71.9,-912.6"/>
<text text-anchor="start" x="78.9" y="-924.8" font-family="Arial" font-size="14.00">notification_type </text>
<text text-anchor="start" x="183.97" y="-924.8" font-family="Arial" font-size="14.00" fill="#666666">[varchar(50)]</text>
<polygon fill="none" stroke="black" points="71.9,-881.8 71.9,-912.6 349.86,-912.6 349.86,-881.8 71.9,-881.8"/>
<text text-anchor="start" x="78.9" y="-894" font-family="Arial" font-size="14.00">related_entity_type </text>
<text text-anchor="start" x="201.09" y="-894" font-family="Arial" font-size="14.00" fill="#666666">[varchar(50)]</text>
<polygon fill="none" stroke="black" points="71.9,-851 71.9,-881.8 349.86,-881.8 349.86,-851 71.9,-851"/>
<text text-anchor="start" x="78.9" y="-863.2" font-family="Arial" font-size="14.00">related_entity_id </text>
<text text-anchor="start" x="185.52" y="-863.2" font-family="Arial" font-size="14.00" fill="#666666">[varchar(100)]</text>
<polygon fill="none" stroke="black" points="71.9,-820.2 71.9,-851 349.86,-851 349.86,-820.2 71.9,-820.2"/>
<text text-anchor="start" x="78.9" y="-832.4" font-family="Arial" font-size="14.00">is_read </text>
<text text-anchor="start" x="128.7" y="-832.4" font-family="Arial" font-size="14.00" fill="#666666">[boolean]</text>
<polygon fill="none" stroke="black" points="71.9,-789.4 71.9,-820.2 349.86,-820.2 349.86,-789.4 71.9,-789.4"/>
<text text-anchor="start" x="78.9" y="-801.6" font-family="Arial" font-size="14.00">read_at </text>
<text text-anchor="start" x="130.27" y="-801.6" font-family="Arial" font-size="14.00" fill="#666666">[timestamp with time zone]</text>
<polygon fill="none" stroke="black" points="71.9,-758.6 71.9,-789.4 349.86,-789.4 349.86,-758.6 71.9,-758.6"/>
<text text-anchor="start" x="78.9" y="-770.8" font-family="Arial" font-size="14.00">created_at </text>
<text text-anchor="start" x="148.95" y="-770.8" font-family="Arial" font-size="14.00" fill="#666666">[timestamp with time zone]</text>
<polygon fill="none" stroke="black" points="71.9,-727.8 71.9,-758.6 349.86,-758.6 349.86,-727.8 71.9,-727.8"/>
<text text-anchor="start" x="78.9" y="-740" font-family="Arial" font-size="14.00">updated_at </text>
<text text-anchor="start" x="152.86" y="-740" font-family="Arial" font-size="14.00" fill="#666666">[timestamp with time zone]</text>
<polygon fill="none" stroke="black" points="71.9,-697 71.9,-727.8 349.86,-727.8 349.86,-697 71.9,-697"/>
<text text-anchor="start" x="78.9" y="-709.2" font-family="Arial" font-size="14.00">deleted_at </text>
<text text-anchor="start" x="148.18" y="-709.2" font-family="Arial" font-size="14.00" fill="#666666">[timestamp with time zone]</text>
<polygon fill="none" stroke="black" stroke-width="3" points="70.4,-695.5 70.4,-1103.7 351.36,-1103.7 351.36,-695.5 70.4,-695.5"/>
</g>
<!-- public.users -->
<g id="node2" class="node">
<title>public.users</title>
<polygon fill="#efefef" stroke="none" points="43.2,-536 43.2,-571.6 378.56,-571.6 378.56,-536 43.2,-536"/>
<polygon fill="none" stroke="black" points="43.2,-536 43.2,-571.6 378.56,-571.6 378.56,-536 43.2,-536"/>
<text text-anchor="start" x="105.39" y="-549.4" font-family="Arial Bold" font-size="18.00">public.users</text>
<text text-anchor="start" x="191.88" y="-549.4" font-family="Arial" font-size="14.00">    </text>
<text text-anchor="start" x="222.99" y="-549.4" font-family="Arial" font-size="14.00" fill="#666666">[BASE TABLE]</text>
<polygon fill="none" stroke="black" points="43.2,-505.2 43.2,-536 378.56,-536 378.56,-505.2 43.2,-505.2"/>
<text text-anchor="start" x="50.2" y="-517.4" font-family="Arial" font-size="14.00">id </text>
<text text-anchor="start" x="64.99" y="-517.4" font-family="Arial" font-size="14.00" fill="#666666">[uuid]</text>
<polygon fill="none" stroke="black" points="43.2,-474.4 43.2,-505.2 378.56,-505.2 378.56,-474.4 43.2,-474.4"/>
<text text-anchor="start" x="50.2" y="-486.6" font-family="Arial" font-size="14.00">name </text>
<text text-anchor="start" x="89.11" y="-486.6" font-family="Arial" font-size="14.00" fill="#666666">[varchar(255)]</text>
<polygon fill="none" stroke="black" points="43.2,-443.6 43.2,-474.4 378.56,-474.4 378.56,-443.6 43.2,-443.6"/>
<text text-anchor="start" x="50.2" y="-455.8" font-family="Arial" font-size="14.00">email </text>
<text text-anchor="start" x="87.54" y="-455.8" font-family="Arial" font-size="14.00" fill="#666666">[varchar(255)]</text>
<polygon fill="none" stroke="black" points="43.2,-412.8 43.2,-443.6 378.56,-443.6 378.56,-412.8 43.2,-412.8"/>
<text text-anchor="start" x="50.2" y="-425" font-family="Arial" font-size="14.00">password </text>
<text text-anchor="start" x="114.01" y="-425" font-family="Arial" font-size="14.00" fill="#666666">[varchar(255)]</text>
<polygon fill="none" stroke="black" points="43.2,-382 43.2,-412.8 378.56,-412.8 378.56,-382 43.2,-382"/>
<text text-anchor="start" x="50.2" y="-394.2" font-family="Arial" font-size="14.00">organization_id </text>
<text text-anchor="start" x="149.05" y="-394.2" font-family="Arial" font-size="14.00" fill="#666666">[integer]</text>
<polygon fill="none" stroke="black" points="43.2,-351.2 43.2,-382 378.56,-382 378.56,-351.2 43.2,-351.2"/>
<text text-anchor="start" x="50.2" y="-363.4" font-family="Arial" font-size="14.00">role_id </text>
<text text-anchor="start" x="96.12" y="-363.4" font-family="Arial" font-size="14.00" fill="#666666">[smallint]</text>
<polygon fill="none" stroke="black" points="43.2,-320.4 43.2,-351.2 378.56,-351.2 378.56,-320.4 43.2,-320.4"/>
<text text-anchor="start" x="50.2" y="-332.6" font-family="Arial" font-size="14.00">is_active </text>
<text text-anchor="start" x="108.56" y="-332.6" font-family="Arial" font-size="14.00" fill="#666666">[boolean]</text>
<polygon fill="none" stroke="black" points="43.2,-289.6 43.2,-320.4 378.56,-320.4 378.56,-289.6 43.2,-289.6"/>
<text text-anchor="start" x="50.2" y="-301.8" font-family="Arial" font-size="14.00">email_verified </text>
<text text-anchor="start" x="140.46" y="-301.8" font-family="Arial" font-size="14.00" fill="#666666">[boolean]</text>
<polygon fill="none" stroke="black" points="43.2,-258.8 43.2,-289.6 378.56,-289.6 378.56,-258.8 43.2,-258.8"/>
<text text-anchor="start" x="50.2" y="-271" font-family="Arial" font-size="14.00">mfa_enabled </text>
<text text-anchor="start" x="135.04" y="-271" font-family="Arial" font-size="14.00" fill="#666666">[boolean]</text>
<polygon fill="none" stroke="black" points="43.2,-228 43.2,-258.8 378.56,-258.8 378.56,-228 43.2,-228"/>
<text text-anchor="start" x="50.2" y="-240.2" font-family="Arial" font-size="14.00">mfa_secret </text>
<text text-anchor="start" x="123.34" y="-240.2" font-family="Arial" font-size="14.00" fill="#666666">[varchar(255)]</text>
<polygon fill="none" stroke="black" points="43.2,-197.2 43.2,-228 378.56,-228 378.56,-197.2 43.2,-197.2"/>
<text text-anchor="start" x="50.2" y="-209.4" font-family="Arial" font-size="14.00">password_reset_token </text>
<text text-anchor="start" x="194.95" y="-209.4" font-family="Arial" font-size="14.00" fill="#666666">[varchar(255)]</text>
<polygon fill="none" stroke="black" points="43.2,-166.4 43.2,-197.2 378.56,-197.2 378.56,-166.4 43.2,-166.4"/>
<text text-anchor="start" x="50.2" y="-178.6" font-family="Arial" font-size="14.00">password_reset_expires </text>
<text text-anchor="start" x="205.83" y="-178.6" font-family="Arial" font-size="14.00" fill="#666666">[timestamp with time zone]</text>
<polygon fill="none" stroke="black" points="43.2,-135.6 43.2,-166.4 378.56,-166.4 378.56,-135.6 43.2,-135.6"/>
<text text-anchor="start" x="50.2" y="-147.8" font-family="Arial" font-size="14.00">last_password_change </text>
<text text-anchor="start" x="197.3" y="-147.8" font-family="Arial" font-size="14.00" fill="#666666">[timestamp with time zone]</text>
<polygon fill="none" stroke="black" points="43.2,-104.8 43.2,-135.6 378.56,-135.6 378.56,-104.8 43.2,-104.8"/>
<text text-anchor="start" x="50.2" y="-117" font-family="Arial" font-size="14.00">created_at </text>
<text text-anchor="start" x="120.25" y="-117" font-family="Arial" font-size="14.00" fill="#666666">[timestamp with time zone]</text>
<polygon fill="none" stroke="black" points="43.2,-74 43.2,-104.8 378.56,-104.8 378.56,-74 43.2,-74"/>
<text text-anchor="start" x="50.2" y="-86.2" font-family="Arial" font-size="14.00">updated_at </text>
<text text-anchor="start" x="124.16" y="-86.2" font-family="Arial" font-size="14.00" fill="#666666">[timestamp with time zone]</text>
<polygon fill="none" stroke="black" points="43.2,-43.2 43.2,-74 378.56,-74 378.56,-43.2 43.2,-43.2"/>
<text text-anchor="start" x="50.2" y="-55.4" font-family="Arial" font-size="14.00">deleted_at </text>
<text text-anchor="start" x="119.48" y="-55.4" font-family="Arial" font-size="14.00" fill="#666666">[timestamp with time zone]</text>
</g>
<!-- public.notifications&#45;&gt;public.users -->
<g id="edge1" class="edge">
<title>public.notifications:user_id&#45;&gt;public.users:id</title>
<path fill="none" stroke="black" d="M360.04,-1015.77C409.47,-965.39 432.03,-520.6 379.56,-520.6"/>
<polygon fill="black" stroke="black" points="360.09,-1015.75 349.13,-1016.23 355.32,-1018.15 351.46,-1020.1 351.46,-1020.1 351.46,-1020.1 355.32,-1018.15 353.18,-1024.27 360.09,-1015.75"/>
<text text-anchor="start" x="357.86" y="-1030.4" font-family="Arial" font-size="10.00">FOREIGN KEY (user_id) REFERENCES users(id) ON DELETE CASCADE</text>
</g>
</g>
</svg>
