<?xml version="1.0" encoding="UTF-8" standalone="no"?>
<!DOCTYPE svg PUBLIC "-//W3C//DTD SVG 1.1//EN"
 "http://www.w3.org/Graphics/SVG/1.1/DTD/svg11.dtd">
<!-- Generated by graphviz version 12.1.2 (20240928.0832)
 -->
<!-- Title: public.damage_levels Pages: 1 -->
<svg width="691pt" height="879pt"
 viewBox="0.00 0.00 691.17 879.20" xmlns="http://www.w3.org/2000/svg" xmlns:xlink="http://www.w3.org/1999/xlink">
<g id="graph0" class="graph" transform="scale(1 1) rotate(0) translate(4 875.2)">
<title>public.damage_levels</title>
<polygon fill="white" stroke="none" points="-4,4 -4,-875.2 687.17,-875.2 687.17,4 -4,4"/>
<!-- public.damage_levels -->
<g id="node1" class="node">
<title>public.damage_levels</title>
<polygon fill="#efefef" stroke="none" points="53.72,-200.2 53.72,-235.8 348.65,-235.8 348.65,-200.2 53.72,-200.2"/>
<polygon fill="none" stroke="black" points="53.72,-200.2 53.72,-235.8 348.65,-235.8 348.65,-200.2 53.72,-200.2"/>
<text text-anchor="start" x="60.72" y="-213.6" font-family="Arial Bold" font-size="18.00">public.damage_levels</text>
<text text-anchor="start" x="217.16" y="-213.6" font-family="Arial" font-size="14.00">    </text>
<text text-anchor="start" x="248.28" y="-213.6" font-family="Arial" font-size="14.00" fill="#666666">[BASE TABLE]</text>
<polygon fill="none" stroke="black" points="53.72,-169.4 53.72,-200.2 348.65,-200.2 348.65,-169.4 53.72,-169.4"/>
<text text-anchor="start" x="60.72" y="-181.6" font-family="Arial" font-size="14.00">id </text>
<text text-anchor="start" x="75.5" y="-181.6" font-family="Arial" font-size="14.00" fill="#666666">[integer]</text>
<polygon fill="none" stroke="black" points="53.72,-138.6 53.72,-169.4 348.65,-169.4 348.65,-138.6 53.72,-138.6"/>
<text text-anchor="start" x="60.72" y="-150.8" font-family="Arial" font-size="14.00">name </text>
<text text-anchor="start" x="99.63" y="-150.8" font-family="Arial" font-size="14.00" fill="#666666">[varchar(50)]</text>
<polygon fill="none" stroke="black" points="53.72,-107.8 53.72,-138.6 348.65,-138.6 348.65,-107.8 53.72,-107.8"/>
<text text-anchor="start" x="60.72" y="-120" font-family="Arial" font-size="14.00">description </text>
<text text-anchor="start" x="132.31" y="-120" font-family="Arial" font-size="14.00" fill="#666666">[text]</text>
<polygon fill="none" stroke="black" points="53.72,-77 53.72,-107.8 348.65,-107.8 348.65,-77 53.72,-77"/>
<text text-anchor="start" x="60.72" y="-89.2" font-family="Arial" font-size="14.00">created_at </text>
<text text-anchor="start" x="130.76" y="-89.2" font-family="Arial" font-size="14.00" fill="#666666">[timestamp with time zone]</text>
<polygon fill="none" stroke="black" points="53.72,-46.2 53.72,-77 348.65,-77 348.65,-46.2 53.72,-46.2"/>
<text text-anchor="start" x="60.72" y="-58.4" font-family="Arial" font-size="14.00">updated_at </text>
<text text-anchor="start" x="134.67" y="-58.4" font-family="Arial" font-size="14.00" fill="#666666">[timestamp with time zone]</text>
<polygon fill="none" stroke="black" stroke-width="3" points="52.22,-44.7 52.22,-237.3 350.15,-237.3 350.15,-44.7 52.22,-44.7"/>
</g>
<!-- public.assessment_items -->
<g id="node2" class="node">
<title>public.assessment_items</title>
<polygon fill="#efefef" stroke="none" points="43.2,-792.4 43.2,-828 359.17,-828 359.17,-792.4 43.2,-792.4"/>
<polygon fill="none" stroke="black" points="43.2,-792.4 43.2,-828 359.17,-828 359.17,-792.4 43.2,-792.4"/>
<text text-anchor="start" x="50.2" y="-805.8" font-family="Arial Bold" font-size="18.00">public.assessment_items</text>
<text text-anchor="start" x="227.68" y="-805.8" font-family="Arial" font-size="14.00">    </text>
<text text-anchor="start" x="258.79" y="-805.8" font-family="Arial" font-size="14.00" fill="#666666">[BASE TABLE]</text>
<polygon fill="none" stroke="black" points="43.2,-761.6 43.2,-792.4 359.17,-792.4 359.17,-761.6 43.2,-761.6"/>
<text text-anchor="start" x="50.2" y="-773.8" font-family="Arial" font-size="14.00">id </text>
<text text-anchor="start" x="64.99" y="-773.8" font-family="Arial" font-size="14.00" fill="#666666">[integer]</text>
<polygon fill="none" stroke="black" points="43.2,-730.8 43.2,-761.6 359.17,-761.6 359.17,-730.8 43.2,-730.8"/>
<text text-anchor="start" x="50.2" y="-743" font-family="Arial" font-size="14.00">assessment_id </text>
<text text-anchor="start" x="147.47" y="-743" font-family="Arial" font-size="14.00" fill="#666666">[bigint]</text>
<polygon fill="none" stroke="black" points="43.2,-700 43.2,-730.8 359.17,-730.8 359.17,-700 43.2,-700"/>
<text text-anchor="start" x="50.2" y="-712.2" font-family="Arial" font-size="14.00">item_name </text>
<text text-anchor="start" x="123.34" y="-712.2" font-family="Arial" font-size="14.00" fill="#666666">[varchar(100)]</text>
<polygon fill="none" stroke="black" points="43.2,-669.2 43.2,-700 359.17,-700 359.17,-669.2 43.2,-669.2"/>
<text text-anchor="start" x="50.2" y="-681.4" font-family="Arial" font-size="14.00">facility_type_id </text>
<text text-anchor="start" x="145.92" y="-681.4" font-family="Arial" font-size="14.00" fill="#666666">[integer]</text>
<polygon fill="none" stroke="black" points="43.2,-638.4 43.2,-669.2 359.17,-669.2 359.17,-638.4 43.2,-638.4"/>
<text text-anchor="start" x="50.2" y="-650.6" font-family="Arial" font-size="14.00">damage_level_id </text>
<text text-anchor="start" x="159.94" y="-650.6" font-family="Arial" font-size="14.00" fill="#666666">[integer]</text>
<polygon fill="none" stroke="black" points="43.2,-607.6 43.2,-638.4 359.17,-638.4 359.17,-607.6 43.2,-607.6"/>
<text text-anchor="start" x="50.2" y="-619.8" font-family="Arial" font-size="14.00">damage_description </text>
<text text-anchor="start" x="180.17" y="-619.8" font-family="Arial" font-size="14.00" fill="#666666">[text]</text>
<polygon fill="none" stroke="black" points="43.2,-576.8 43.2,-607.6 359.17,-607.6 359.17,-576.8 43.2,-576.8"/>
<text text-anchor="start" x="50.2" y="-589" font-family="Arial" font-size="14.00">damage_amount </text>
<text text-anchor="start" x="159.16" y="-589" font-family="Arial" font-size="14.00" fill="#666666">[numeric(15,2)]</text>
<polygon fill="none" stroke="black" points="43.2,-546 43.2,-576.8 359.17,-576.8 359.17,-546 43.2,-546"/>
<text text-anchor="start" x="50.2" y="-558.2" font-family="Arial" font-size="14.00">approved_amount </text>
<text text-anchor="start" x="166.95" y="-558.2" font-family="Arial" font-size="14.00" fill="#666666">[numeric(15,2)]</text>
<polygon fill="none" stroke="black" points="43.2,-515.2 43.2,-546 359.17,-546 359.17,-515.2 43.2,-515.2"/>
<text text-anchor="start" x="50.2" y="-527.4" font-family="Arial" font-size="14.00">location_latitude </text>
<text text-anchor="start" x="155.28" y="-527.4" font-family="Arial" font-size="14.00" fill="#666666">[numeric(10,8)]</text>
<polygon fill="none" stroke="black" points="43.2,-484.4 43.2,-515.2 359.17,-515.2 359.17,-484.4 43.2,-484.4"/>
<text text-anchor="start" x="50.2" y="-496.6" font-family="Arial" font-size="14.00">location_longitude </text>
<text text-anchor="start" x="166.96" y="-496.6" font-family="Arial" font-size="14.00" fill="#666666">[numeric(11,8)]</text>
<polygon fill="none" stroke="black" points="43.2,-453.6 43.2,-484.4 359.17,-484.4 359.17,-453.6 43.2,-453.6"/>
<text text-anchor="start" x="50.2" y="-465.8" font-family="Arial" font-size="14.00">notes </text>
<text text-anchor="start" x="88.34" y="-465.8" font-family="Arial" font-size="14.00" fill="#666666">[text]</text>
<polygon fill="none" stroke="black" points="43.2,-422.8 43.2,-453.6 359.17,-453.6 359.17,-422.8 43.2,-422.8"/>
<text text-anchor="start" x="50.2" y="-435" font-family="Arial" font-size="14.00">created_at </text>
<text text-anchor="start" x="120.25" y="-435" font-family="Arial" font-size="14.00" fill="#666666">[timestamp with time zone]</text>
<polygon fill="none" stroke="black" points="43.2,-392 43.2,-422.8 359.17,-422.8 359.17,-392 43.2,-392"/>
<text text-anchor="start" x="50.2" y="-404.2" font-family="Arial" font-size="14.00">updated_at </text>
<text text-anchor="start" x="124.16" y="-404.2" font-family="Arial" font-size="14.00" fill="#666666">[timestamp with time zone]</text>
<polygon fill="none" stroke="black" points="43.2,-361.2 43.2,-392 359.17,-392 359.17,-361.2 43.2,-361.2"/>
<text text-anchor="start" x="50.2" y="-373.4" font-family="Arial" font-size="14.00">deleted_at </text>
<text text-anchor="start" x="119.48" y="-373.4" font-family="Arial" font-size="14.00" fill="#666666">[timestamp with time zone]</text>
</g>
<!-- public.assessment_items&#45;&gt;public.damage_levels -->
<g id="edge1" class="edge">
<title>public.assessment_items:damage_level_id&#45;&gt;public.damage_levels:id</title>
<path fill="none" stroke="black" d="M370.45,-652.19C463.59,-622.29 450.34,-184.8 349.65,-184.8"/>
<polygon fill="black" stroke="black" points="370.38,-652.21 359.8,-649.3 365.11,-653.03 360.83,-653.7 360.83,-653.7 360.83,-653.7 365.11,-653.03 361.19,-658.19 370.38,-652.21"/>
<text text-anchor="start" x="367.17" y="-663.8" font-family="Arial" font-size="10.00">FOREIGN KEY (damage_level_id) REFERENCES damage_levels(id)</text>
</g>
</g>
</svg>
