<?xml version="1.0" encoding="UTF-8" standalone="no"?>
<!DOCTYPE svg PUBLIC "-//W3C//DTD SVG 1.1//EN"
 "http://www.w3.org/Graphics/SVG/1.1/DTD/svg11.dtd">
<!-- Generated by graphviz version 12.1.2 (20240928.0832)
 -->
<!-- Title: public.prefectures Pages: 1 -->
<svg width="761pt" height="694pt"
 viewBox="0.00 0.00 760.52 694.40" xmlns="http://www.w3.org/2000/svg" xmlns:xlink="http://www.w3.org/1999/xlink">
<g id="graph0" class="graph" transform="scale(1 1) rotate(0) translate(4 690.4)">
<title>public.prefectures</title>
<polygon fill="white" stroke="none" points="-4,4 -4,-690.4 756.52,-690.4 756.52,4 -4,4"/>
<!-- public.prefectures -->
<g id="node1" class="node">
<title>public.prefectures</title>
<polygon fill="#efefef" stroke="none" points="245.22,-138.6 245.22,-174.2 513.14,-174.2 513.14,-138.6 245.22,-138.6"/>
<polygon fill="none" stroke="black" points="245.22,-138.6 245.22,-174.2 513.14,-174.2 513.14,-138.6 245.22,-138.6"/>
<text text-anchor="start" x="252.22" y="-152" font-family="Arial Bold" font-size="18.00">public.prefectures</text>
<text text-anchor="start" x="381.65" y="-152" font-family="Arial" font-size="14.00">    </text>
<text text-anchor="start" x="412.77" y="-152" font-family="Arial" font-size="14.00" fill="#666666">[BASE TABLE]</text>
<polygon fill="none" stroke="black" points="245.22,-107.8 245.22,-138.6 513.14,-138.6 513.14,-107.8 245.22,-107.8"/>
<text text-anchor="start" x="252.22" y="-120" font-family="Arial" font-size="14.00">id </text>
<text text-anchor="start" x="267" y="-120" font-family="Arial" font-size="14.00" fill="#666666">[integer]</text>
<polygon fill="none" stroke="black" points="245.22,-77 245.22,-107.8 513.14,-107.8 513.14,-77 245.22,-77"/>
<text text-anchor="start" x="252.22" y="-89.2" font-family="Arial" font-size="14.00">code </text>
<text text-anchor="start" x="286.47" y="-89.2" font-family="Arial" font-size="14.00" fill="#666666">[varchar(2)]</text>
<polygon fill="none" stroke="black" points="245.22,-46.2 245.22,-77 513.14,-77 513.14,-46.2 245.22,-46.2"/>
<text text-anchor="start" x="252.22" y="-58.4" font-family="Arial" font-size="14.00">name </text>
<text text-anchor="start" x="291.13" y="-58.4" font-family="Arial" font-size="14.00" fill="#666666">[varchar(10)]</text>
<polygon fill="none" stroke="black" stroke-width="3" points="243.72,-44.7 243.72,-175.7 514.64,-175.7 514.64,-44.7 243.72,-44.7"/>
</g>
<!-- public.municipalities -->
<g id="node2" class="node">
<title>public.municipalities</title>
<polygon fill="#efefef" stroke="none" points="43.2,-576.8 43.2,-612.4 333.16,-612.4 333.16,-576.8 43.2,-576.8"/>
<polygon fill="none" stroke="black" points="43.2,-576.8 43.2,-612.4 333.16,-612.4 333.16,-576.8 43.2,-576.8"/>
<text text-anchor="start" x="50.2" y="-590.2" font-family="Arial Bold" font-size="18.00">public.municipalities</text>
<text text-anchor="start" x="201.67" y="-590.2" font-family="Arial" font-size="14.00">    </text>
<text text-anchor="start" x="232.79" y="-590.2" font-family="Arial" font-size="14.00" fill="#666666">[BASE TABLE]</text>
<polygon fill="none" stroke="black" points="43.2,-546 43.2,-576.8 333.16,-576.8 333.16,-546 43.2,-546"/>
<text text-anchor="start" x="50.2" y="-558.2" font-family="Arial" font-size="14.00">id </text>
<text text-anchor="start" x="64.99" y="-558.2" font-family="Arial" font-size="14.00" fill="#666666">[integer]</text>
<polygon fill="none" stroke="black" points="43.2,-515.2 43.2,-546 333.16,-546 333.16,-515.2 43.2,-515.2"/>
<text text-anchor="start" x="50.2" y="-527.4" font-family="Arial" font-size="14.00">prefecture_code </text>
<text text-anchor="start" x="155.27" y="-527.4" font-family="Arial" font-size="14.00" fill="#666666">[varchar(2)]</text>
<polygon fill="none" stroke="black" points="43.2,-484.4 43.2,-515.2 333.16,-515.2 333.16,-484.4 43.2,-484.4"/>
<text text-anchor="start" x="50.2" y="-496.6" font-family="Arial" font-size="14.00">organization_code </text>
<text text-anchor="start" x="168.51" y="-496.6" font-family="Arial" font-size="14.00" fill="#666666">[varchar(6)]</text>
<polygon fill="none" stroke="black" points="43.2,-453.6 43.2,-484.4 333.16,-484.4 333.16,-453.6 43.2,-453.6"/>
<text text-anchor="start" x="50.2" y="-465.8" font-family="Arial" font-size="14.00">prefecture_name_kanji </text>
<text text-anchor="start" x="196.51" y="-465.8" font-family="Arial" font-size="14.00" fill="#666666">[varchar(10)]</text>
<polygon fill="none" stroke="black" points="43.2,-422.8 43.2,-453.6 333.16,-453.6 333.16,-422.8 43.2,-422.8"/>
<text text-anchor="start" x="50.2" y="-435" font-family="Arial" font-size="14.00">municipality_name_kanji </text>
<text text-anchor="start" x="206.61" y="-435" font-family="Arial" font-size="14.00" fill="#666666">[varchar(50)]</text>
<polygon fill="none" stroke="black" points="43.2,-392 43.2,-422.8 333.16,-422.8 333.16,-392 43.2,-392"/>
<text text-anchor="start" x="50.2" y="-404.2" font-family="Arial" font-size="14.00">prefecture_name_kana </text>
<text text-anchor="start" x="198.07" y="-404.2" font-family="Arial" font-size="14.00" fill="#666666">[varchar(20)]</text>
<polygon fill="none" stroke="black" points="43.2,-361.2 43.2,-392 333.16,-392 333.16,-361.2 43.2,-361.2"/>
<text text-anchor="start" x="50.2" y="-373.4" font-family="Arial" font-size="14.00">municipality_name_kana </text>
<text text-anchor="start" x="208.18" y="-373.4" font-family="Arial" font-size="14.00" fill="#666666">[varchar(100)]</text>
<polygon fill="none" stroke="black" points="43.2,-330.4 43.2,-361.2 333.16,-361.2 333.16,-330.4 43.2,-330.4"/>
<text text-anchor="start" x="50.2" y="-342.6" font-family="Arial" font-size="14.00">is_active </text>
<text text-anchor="start" x="108.56" y="-342.6" font-family="Arial" font-size="14.00" fill="#666666">[boolean]</text>
</g>
<!-- public.municipalities&#45;&gt;public.prefectures -->
<g id="edge1" class="edge">
<title>public.municipalities:prefecture_code&#45;&gt;public.prefectures:code</title>
<path fill="none" stroke="black" d="M344.09,-527.98C384.05,-504.63 355.65,-332.29 333.16,-287.2 311.25,-243.28 267.21,-264.28 245.22,-220.4 219.73,-169.54 187.33,-92.4 244.22,-92.4"/>
<polygon fill="black" stroke="black" points="344.15,-527.96 333.33,-526.16 338.99,-529.32 334.81,-530.43 334.81,-530.43 334.81,-530.43 338.99,-529.32 335.63,-534.87 344.15,-527.96"/>
<text text-anchor="start" x="341.16" y="-540.6" font-family="Arial" font-size="10.00">FOREIGN KEY (prefecture_code) REFERENCES prefectures(code)</text>
</g>
<!-- public.unit_prices -->
<g id="node3" class="node">
<title>public.unit_prices</title>
<polygon fill="#efefef" stroke="none" points="437.2,-607.6 437.2,-643.2 705.16,-643.2 705.16,-607.6 437.2,-607.6"/>
<polygon fill="none" stroke="black" points="437.2,-607.6 437.2,-643.2 705.16,-643.2 705.16,-607.6 437.2,-607.6"/>
<text text-anchor="start" x="444.2" y="-621" font-family="Arial Bold" font-size="18.00">public.unit_prices</text>
<text text-anchor="start" x="573.67" y="-621" font-family="Arial" font-size="14.00">    </text>
<text text-anchor="start" x="604.79" y="-621" font-family="Arial" font-size="14.00" fill="#666666">[BASE TABLE]</text>
<polygon fill="none" stroke="black" points="437.2,-576.8 437.2,-607.6 705.16,-607.6 705.16,-576.8 437.2,-576.8"/>
<text text-anchor="start" x="444.2" y="-589" font-family="Arial" font-size="14.00">id </text>
<text text-anchor="start" x="458.99" y="-589" font-family="Arial" font-size="14.00" fill="#666666">[bigint]</text>
<polygon fill="none" stroke="black" points="437.2,-546 437.2,-576.8 705.16,-576.8 705.16,-546 437.2,-546"/>
<text text-anchor="start" x="444.2" y="-558.2" font-family="Arial" font-size="14.00">category_id </text>
<text text-anchor="start" x="520.47" y="-558.2" font-family="Arial" font-size="14.00" fill="#666666">[integer]</text>
<polygon fill="none" stroke="black" points="437.2,-515.2 437.2,-546 705.16,-546 705.16,-515.2 437.2,-515.2"/>
<text text-anchor="start" x="444.2" y="-527.4" font-family="Arial" font-size="14.00">prefecture_code </text>
<text text-anchor="start" x="549.27" y="-527.4" font-family="Arial" font-size="14.00" fill="#666666">[varchar(2)]</text>
<polygon fill="none" stroke="black" points="437.2,-484.4 437.2,-515.2 705.16,-515.2 705.16,-484.4 437.2,-484.4"/>
<text text-anchor="start" x="444.2" y="-496.6" font-family="Arial" font-size="14.00">unit_price </text>
<text text-anchor="start" x="508.79" y="-496.6" font-family="Arial" font-size="14.00" fill="#666666">[numeric(12,2)]</text>
<polygon fill="none" stroke="black" points="437.2,-453.6 437.2,-484.4 705.16,-484.4 705.16,-453.6 437.2,-453.6"/>
<text text-anchor="start" x="444.2" y="-465.8" font-family="Arial" font-size="14.00">unit_type </text>
<text text-anchor="start" x="504.91" y="-465.8" font-family="Arial" font-size="14.00" fill="#666666">[varchar(20)]</text>
<polygon fill="none" stroke="black" points="437.2,-422.8 437.2,-453.6 705.16,-453.6 705.16,-422.8 437.2,-422.8"/>
<text text-anchor="start" x="444.2" y="-435" font-family="Arial" font-size="14.00">valid_from </text>
<text text-anchor="start" x="512.67" y="-435" font-family="Arial" font-size="14.00" fill="#666666">[date]</text>
<polygon fill="none" stroke="black" points="437.2,-392 437.2,-422.8 705.16,-422.8 705.16,-392 437.2,-392"/>
<text text-anchor="start" x="444.2" y="-404.2" font-family="Arial" font-size="14.00">valid_to </text>
<text text-anchor="start" x="496.34" y="-404.2" font-family="Arial" font-size="14.00" fill="#666666">[date]</text>
<polygon fill="none" stroke="black" points="437.2,-361.2 437.2,-392 705.16,-392 705.16,-361.2 437.2,-361.2"/>
<text text-anchor="start" x="444.2" y="-373.4" font-family="Arial" font-size="14.00">notes </text>
<text text-anchor="start" x="482.34" y="-373.4" font-family="Arial" font-size="14.00" fill="#666666">[text]</text>
<polygon fill="none" stroke="black" points="437.2,-330.4 437.2,-361.2 705.16,-361.2 705.16,-330.4 437.2,-330.4"/>
<text text-anchor="start" x="444.2" y="-342.6" font-family="Arial" font-size="14.00">created_at </text>
<text text-anchor="start" x="514.25" y="-342.6" font-family="Arial" font-size="14.00" fill="#666666">[timestamp with time zone]</text>
<polygon fill="none" stroke="black" points="437.2,-299.6 437.2,-330.4 705.16,-330.4 705.16,-299.6 437.2,-299.6"/>
<text text-anchor="start" x="444.2" y="-311.8" font-family="Arial" font-size="14.00">updated_at </text>
<text text-anchor="start" x="518.16" y="-311.8" font-family="Arial" font-size="14.00" fill="#666666">[timestamp with time zone]</text>
</g>
<!-- public.unit_prices&#45;&gt;public.prefectures -->
<g id="edge2" class="edge">
<title>public.unit_prices:prefecture_code&#45;&gt;public.prefectures:code</title>
<path fill="none" stroke="black" d="M426.1,-528.24C378.82,-504.25 406.51,-304.72 437.2,-256.4 457.23,-224.87 493.05,-251.89 513.14,-220.4 543.75,-172.44 571.03,-92.4 514.14,-92.4"/>
<polygon fill="black" stroke="black" points="426.14,-528.25 434.85,-534.91 431.33,-529.46 435.55,-530.45 435.55,-530.45 435.55,-530.45 431.33,-529.46 436.9,-526.14 426.14,-528.25"/>
<text text-anchor="start" x="443.2" y="-514.6" font-family="Arial" font-size="10.00">FOREIGN KEY (prefecture_code) REFERENCES prefectures(code)</text>
</g>
</g>
</svg>
