<?xml version="1.0" encoding="UTF-8" standalone="no"?>
<!DOCTYPE svg PUBLIC "-//W3C//DTD SVG 1.1//EN"
 "http://www.w3.org/Graphics/SVG/1.1/DTD/svg11.dtd">
<!-- Generated by graphviz version 12.1.2 (20240928.0832)
 -->
<!-- Title: public.unit_prices Pages: 1 -->
<svg width="899pt" height="756pt"
 viewBox="0.00 0.00 898.92 756.00" xmlns="http://www.w3.org/2000/svg" xmlns:xlink="http://www.w3.org/1999/xlink">
<g id="graph0" class="graph" transform="scale(1 1) rotate(0) translate(4 752)">
<title>public.unit_prices</title>
<polygon fill="white" stroke="none" points="-4,4 -4,-752 894.92,-752 894.92,4 -4,4"/>
<!-- public.unit_prices -->
<g id="node1" class="node">
<title>public.unit_prices</title>
<polygon fill="#efefef" stroke="none" points="305.64,-666.2 305.64,-701.8 573.6,-701.8 573.6,-666.2 305.64,-666.2"/>
<polygon fill="none" stroke="black" points="305.64,-666.2 305.64,-701.8 573.6,-701.8 573.6,-666.2 305.64,-666.2"/>
<text text-anchor="start" x="312.64" y="-679.6" font-family="Arial Bold" font-size="18.00">public.unit_prices</text>
<text text-anchor="start" x="442.11" y="-679.6" font-family="Arial" font-size="14.00">    </text>
<text text-anchor="start" x="473.23" y="-679.6" font-family="Arial" font-size="14.00" fill="#666666">[BASE TABLE]</text>
<polygon fill="none" stroke="black" points="305.64,-635.4 305.64,-666.2 573.6,-666.2 573.6,-635.4 305.64,-635.4"/>
<text text-anchor="start" x="312.64" y="-647.6" font-family="Arial" font-size="14.00">id </text>
<text text-anchor="start" x="327.43" y="-647.6" font-family="Arial" font-size="14.00" fill="#666666">[bigint]</text>
<polygon fill="none" stroke="black" points="305.64,-604.6 305.64,-635.4 573.6,-635.4 573.6,-604.6 305.64,-604.6"/>
<text text-anchor="start" x="312.64" y="-616.8" font-family="Arial" font-size="14.00">category_id </text>
<text text-anchor="start" x="388.91" y="-616.8" font-family="Arial" font-size="14.00" fill="#666666">[integer]</text>
<polygon fill="none" stroke="black" points="305.64,-573.8 305.64,-604.6 573.6,-604.6 573.6,-573.8 305.64,-573.8"/>
<text text-anchor="start" x="312.64" y="-586" font-family="Arial" font-size="14.00">prefecture_code </text>
<text text-anchor="start" x="417.71" y="-586" font-family="Arial" font-size="14.00" fill="#666666">[varchar(2)]</text>
<polygon fill="none" stroke="black" points="305.64,-543 305.64,-573.8 573.6,-573.8 573.6,-543 305.64,-543"/>
<text text-anchor="start" x="312.64" y="-555.2" font-family="Arial" font-size="14.00">unit_price </text>
<text text-anchor="start" x="377.23" y="-555.2" font-family="Arial" font-size="14.00" fill="#666666">[numeric(12,2)]</text>
<polygon fill="none" stroke="black" points="305.64,-512.2 305.64,-543 573.6,-543 573.6,-512.2 305.64,-512.2"/>
<text text-anchor="start" x="312.64" y="-524.4" font-family="Arial" font-size="14.00">unit_type </text>
<text text-anchor="start" x="373.35" y="-524.4" font-family="Arial" font-size="14.00" fill="#666666">[varchar(20)]</text>
<polygon fill="none" stroke="black" points="305.64,-481.4 305.64,-512.2 573.6,-512.2 573.6,-481.4 305.64,-481.4"/>
<text text-anchor="start" x="312.64" y="-493.6" font-family="Arial" font-size="14.00">valid_from </text>
<text text-anchor="start" x="381.11" y="-493.6" font-family="Arial" font-size="14.00" fill="#666666">[date]</text>
<polygon fill="none" stroke="black" points="305.64,-450.6 305.64,-481.4 573.6,-481.4 573.6,-450.6 305.64,-450.6"/>
<text text-anchor="start" x="312.64" y="-462.8" font-family="Arial" font-size="14.00">valid_to </text>
<text text-anchor="start" x="364.78" y="-462.8" font-family="Arial" font-size="14.00" fill="#666666">[date]</text>
<polygon fill="none" stroke="black" points="305.64,-419.8 305.64,-450.6 573.6,-450.6 573.6,-419.8 305.64,-419.8"/>
<text text-anchor="start" x="312.64" y="-432" font-family="Arial" font-size="14.00">notes </text>
<text text-anchor="start" x="350.78" y="-432" font-family="Arial" font-size="14.00" fill="#666666">[text]</text>
<polygon fill="none" stroke="black" points="305.64,-389 305.64,-419.8 573.6,-419.8 573.6,-389 305.64,-389"/>
<text text-anchor="start" x="312.64" y="-401.2" font-family="Arial" font-size="14.00">created_at </text>
<text text-anchor="start" x="382.69" y="-401.2" font-family="Arial" font-size="14.00" fill="#666666">[timestamp with time zone]</text>
<polygon fill="none" stroke="black" points="305.64,-358.2 305.64,-389 573.6,-389 573.6,-358.2 305.64,-358.2"/>
<text text-anchor="start" x="312.64" y="-370.4" font-family="Arial" font-size="14.00">updated_at </text>
<text text-anchor="start" x="386.6" y="-370.4" font-family="Arial" font-size="14.00" fill="#666666">[timestamp with time zone]</text>
<polygon fill="none" stroke="black" stroke-width="3" points="304.14,-356.7 304.14,-703.3 575.1,-703.3 575.1,-356.7 304.14,-356.7"/>
</g>
<!-- public.work_categories -->
<g id="node2" class="node">
<title>public.work_categories</title>
<polygon fill="#efefef" stroke="none" points="90.15,-197.2 90.15,-232.8 397.09,-232.8 397.09,-197.2 90.15,-197.2"/>
<polygon fill="none" stroke="black" points="90.15,-197.2 90.15,-232.8 397.09,-232.8 397.09,-197.2 90.15,-197.2"/>
<text text-anchor="start" x="97.15" y="-210.6" font-family="Arial Bold" font-size="18.00">public.work_categories</text>
<text text-anchor="start" x="265.6" y="-210.6" font-family="Arial" font-size="14.00">    </text>
<text text-anchor="start" x="296.71" y="-210.6" font-family="Arial" font-size="14.00" fill="#666666">[BASE TABLE]</text>
<polygon fill="none" stroke="black" points="90.15,-166.4 90.15,-197.2 397.09,-197.2 397.09,-166.4 90.15,-166.4"/>
<text text-anchor="start" x="97.15" y="-178.6" font-family="Arial" font-size="14.00">id </text>
<text text-anchor="start" x="111.94" y="-178.6" font-family="Arial" font-size="14.00" fill="#666666">[integer]</text>
<polygon fill="none" stroke="black" points="90.15,-135.6 90.15,-166.4 397.09,-166.4 397.09,-135.6 90.15,-135.6"/>
<text text-anchor="start" x="97.15" y="-147.8" font-family="Arial" font-size="14.00">category_name </text>
<text text-anchor="start" x="197.55" y="-147.8" font-family="Arial" font-size="14.00" fill="#666666">[varchar(20)]</text>
<polygon fill="none" stroke="black" points="90.15,-104.8 90.15,-135.6 397.09,-135.6 397.09,-104.8 90.15,-104.8"/>
<text text-anchor="start" x="97.15" y="-117" font-family="Arial" font-size="14.00">icon_name </text>
<text text-anchor="start" x="169.53" y="-117" font-family="Arial" font-size="14.00" fill="#666666">[varchar(50)]</text>
<polygon fill="none" stroke="black" points="90.15,-74 90.15,-104.8 397.09,-104.8 397.09,-74 90.15,-74"/>
<text text-anchor="start" x="97.15" y="-86.2" font-family="Arial" font-size="14.00">sort_order </text>
<text text-anchor="start" x="164.85" y="-86.2" font-family="Arial" font-size="14.00" fill="#666666">[integer]</text>
<polygon fill="none" stroke="black" points="90.15,-43.2 90.15,-74 397.09,-74 397.09,-43.2 90.15,-43.2"/>
<text text-anchor="start" x="97.15" y="-55.4" font-family="Arial" font-size="14.00">is_active </text>
<text text-anchor="start" x="155.51" y="-55.4" font-family="Arial" font-size="14.00" fill="#666666">[boolean]</text>
</g>
<!-- public.unit_prices&#45;&gt;public.work_categories -->
<g id="edge1" class="edge">
<title>public.unit_prices:category_id&#45;&gt;public.work_categories:id</title>
<path fill="none" stroke="black" d="M294.22,-619.6C170.96,-609.77 230.44,-422.04 305.64,-312 330.28,-275.94 372.31,-311.97 397.09,-276 420.84,-241.52 439.95,-181.8 398.09,-181.8"/>
<polygon fill="black" stroke="black" points="294.31,-619.6 304.13,-624.48 299.64,-619.81 303.97,-619.97 303.97,-619.97 303.97,-619.97 299.64,-619.81 304.48,-615.49 294.31,-619.6"/>
<text text-anchor="start" x="7" y="-630" font-family="Arial" font-size="10.00">FOREIGN KEY (category_id) REFERENCES work_categories(id)</text>
</g>
<!-- public.prefectures -->
<g id="node3" class="node">
<title>public.prefectures</title>
<polygon fill="#efefef" stroke="none" points="501.66,-166.4 501.66,-202 769.58,-202 769.58,-166.4 501.66,-166.4"/>
<polygon fill="none" stroke="black" points="501.66,-166.4 501.66,-202 769.58,-202 769.58,-166.4 501.66,-166.4"/>
<text text-anchor="start" x="508.66" y="-179.8" font-family="Arial Bold" font-size="18.00">public.prefectures</text>
<text text-anchor="start" x="638.09" y="-179.8" font-family="Arial" font-size="14.00">    </text>
<text text-anchor="start" x="669.21" y="-179.8" font-family="Arial" font-size="14.00" fill="#666666">[BASE TABLE]</text>
<polygon fill="none" stroke="black" points="501.66,-135.6 501.66,-166.4 769.58,-166.4 769.58,-135.6 501.66,-135.6"/>
<text text-anchor="start" x="508.66" y="-147.8" font-family="Arial" font-size="14.00">id </text>
<text text-anchor="start" x="523.44" y="-147.8" font-family="Arial" font-size="14.00" fill="#666666">[integer]</text>
<polygon fill="none" stroke="black" points="501.66,-104.8 501.66,-135.6 769.58,-135.6 769.58,-104.8 501.66,-104.8"/>
<text text-anchor="start" x="508.66" y="-117" font-family="Arial" font-size="14.00">code </text>
<text text-anchor="start" x="542.91" y="-117" font-family="Arial" font-size="14.00" fill="#666666">[varchar(2)]</text>
<polygon fill="none" stroke="black" points="501.66,-74 501.66,-104.8 769.58,-104.8 769.58,-74 501.66,-74"/>
<text text-anchor="start" x="508.66" y="-86.2" font-family="Arial" font-size="14.00">name </text>
<text text-anchor="start" x="547.57" y="-86.2" font-family="Arial" font-size="14.00" fill="#666666">[varchar(10)]</text>
</g>
<!-- public.unit_prices&#45;&gt;public.prefectures -->
<g id="edge2" class="edge">
<title>public.unit_prices:prefecture_code&#45;&gt;public.prefectures:code</title>
<path fill="none" stroke="black" d="M584.92,-588.78C693.44,-579.61 621.6,-421.53 573.6,-312 556.09,-272.04 519.26,-285.13 501.66,-245.2 479.25,-194.36 445.1,-120.2 500.66,-120.2"/>
<polygon fill="black" stroke="black" points="584.93,-588.78 574.75,-584.69 579.6,-589 575.27,-589.17 575.27,-589.17 575.27,-589.17 579.6,-589 575.12,-593.68 584.93,-588.78"/>
<text text-anchor="start" x="581.6" y="-599.2" font-family="Arial" font-size="10.00">FOREIGN KEY (prefecture_code) REFERENCES prefectures(code)</text>
</g>
</g>
</svg>
