<?xml version="1.0" encoding="UTF-8" standalone="no"?>
<!DOCTYPE svg PUBLIC "-//W3C//DTD SVG 1.1//EN"
 "http://www.w3.org/Graphics/SVG/1.1/DTD/svg11.dtd">
<!-- Generated by graphviz version 12.1.2 (20240928.0832)
 -->
<!-- Title: public.assessment_items Pages: 1 -->
<svg width="1168pt" height="1218pt"
 viewBox="0.00 0.00 1168.41 1218.00" xmlns="http://www.w3.org/2000/svg" xmlns:xlink="http://www.w3.org/1999/xlink">
<g id="graph0" class="graph" transform="scale(1 1) rotate(0) translate(4 1214)">
<title>public.assessment_items</title>
<polygon fill="white" stroke="none" points="-4,4 -4,-1214 1164.41,-1214 1164.41,4 -4,4"/>
<!-- public.assessment_items -->
<g id="node1" class="node">
<title>public.assessment_items</title>
<polygon fill="#efefef" stroke="none" points="416.76,-1128.2 416.76,-1163.8 732.73,-1163.8 732.73,-1128.2 416.76,-1128.2"/>
<polygon fill="none" stroke="black" points="416.76,-1128.2 416.76,-1163.8 732.73,-1163.8 732.73,-1128.2 416.76,-1128.2"/>
<text text-anchor="start" x="423.76" y="-1141.6" font-family="Arial Bold" font-size="18.00">public.assessment_items</text>
<text text-anchor="start" x="601.24" y="-1141.6" font-family="Arial" font-size="14.00">    </text>
<text text-anchor="start" x="632.36" y="-1141.6" font-family="Arial" font-size="14.00" fill="#666666">[BASE TABLE]</text>
<polygon fill="none" stroke="black" points="416.76,-1097.4 416.76,-1128.2 732.73,-1128.2 732.73,-1097.4 416.76,-1097.4"/>
<text text-anchor="start" x="423.76" y="-1109.6" font-family="Arial" font-size="14.00">id </text>
<text text-anchor="start" x="438.55" y="-1109.6" font-family="Arial" font-size="14.00" fill="#666666">[integer]</text>
<polygon fill="none" stroke="black" points="416.76,-1066.6 416.76,-1097.4 732.73,-1097.4 732.73,-1066.6 416.76,-1066.6"/>
<text text-anchor="start" x="423.76" y="-1078.8" font-family="Arial" font-size="14.00">assessment_id </text>
<text text-anchor="start" x="521.03" y="-1078.8" font-family="Arial" font-size="14.00" fill="#666666">[bigint]</text>
<polygon fill="none" stroke="black" points="416.76,-1035.8 416.76,-1066.6 732.73,-1066.6 732.73,-1035.8 416.76,-1035.8"/>
<text text-anchor="start" x="423.76" y="-1048" font-family="Arial" font-size="14.00">item_name </text>
<text text-anchor="start" x="496.91" y="-1048" font-family="Arial" font-size="14.00" fill="#666666">[varchar(100)]</text>
<polygon fill="none" stroke="black" points="416.76,-1005 416.76,-1035.8 732.73,-1035.8 732.73,-1005 416.76,-1005"/>
<text text-anchor="start" x="423.76" y="-1017.2" font-family="Arial" font-size="14.00">facility_type_id </text>
<text text-anchor="start" x="519.48" y="-1017.2" font-family="Arial" font-size="14.00" fill="#666666">[integer]</text>
<polygon fill="none" stroke="black" points="416.76,-974.2 416.76,-1005 732.73,-1005 732.73,-974.2 416.76,-974.2"/>
<text text-anchor="start" x="423.76" y="-986.4" font-family="Arial" font-size="14.00">damage_level_id </text>
<text text-anchor="start" x="533.51" y="-986.4" font-family="Arial" font-size="14.00" fill="#666666">[integer]</text>
<polygon fill="none" stroke="black" points="416.76,-943.4 416.76,-974.2 732.73,-974.2 732.73,-943.4 416.76,-943.4"/>
<text text-anchor="start" x="423.76" y="-955.6" font-family="Arial" font-size="14.00">damage_description </text>
<text text-anchor="start" x="553.73" y="-955.6" font-family="Arial" font-size="14.00" fill="#666666">[text]</text>
<polygon fill="none" stroke="black" points="416.76,-912.6 416.76,-943.4 732.73,-943.4 732.73,-912.6 416.76,-912.6"/>
<text text-anchor="start" x="423.76" y="-924.8" font-family="Arial" font-size="14.00">damage_amount </text>
<text text-anchor="start" x="532.73" y="-924.8" font-family="Arial" font-size="14.00" fill="#666666">[numeric(15,2)]</text>
<polygon fill="none" stroke="black" points="416.76,-881.8 416.76,-912.6 732.73,-912.6 732.73,-881.8 416.76,-881.8"/>
<text text-anchor="start" x="423.76" y="-894" font-family="Arial" font-size="14.00">approved_amount </text>
<text text-anchor="start" x="540.51" y="-894" font-family="Arial" font-size="14.00" fill="#666666">[numeric(15,2)]</text>
<polygon fill="none" stroke="black" points="416.76,-851 416.76,-881.8 732.73,-881.8 732.73,-851 416.76,-851"/>
<text text-anchor="start" x="423.76" y="-863.2" font-family="Arial" font-size="14.00">location_latitude </text>
<text text-anchor="start" x="528.84" y="-863.2" font-family="Arial" font-size="14.00" fill="#666666">[numeric(10,8)]</text>
<polygon fill="none" stroke="black" points="416.76,-820.2 416.76,-851 732.73,-851 732.73,-820.2 416.76,-820.2"/>
<text text-anchor="start" x="423.76" y="-832.4" font-family="Arial" font-size="14.00">location_longitude </text>
<text text-anchor="start" x="540.52" y="-832.4" font-family="Arial" font-size="14.00" fill="#666666">[numeric(11,8)]</text>
<polygon fill="none" stroke="black" points="416.76,-789.4 416.76,-820.2 732.73,-820.2 732.73,-789.4 416.76,-789.4"/>
<text text-anchor="start" x="423.76" y="-801.6" font-family="Arial" font-size="14.00">notes </text>
<text text-anchor="start" x="461.9" y="-801.6" font-family="Arial" font-size="14.00" fill="#666666">[text]</text>
<polygon fill="none" stroke="black" points="416.76,-758.6 416.76,-789.4 732.73,-789.4 732.73,-758.6 416.76,-758.6"/>
<text text-anchor="start" x="423.76" y="-770.8" font-family="Arial" font-size="14.00">created_at </text>
<text text-anchor="start" x="493.81" y="-770.8" font-family="Arial" font-size="14.00" fill="#666666">[timestamp with time zone]</text>
<polygon fill="none" stroke="black" points="416.76,-727.8 416.76,-758.6 732.73,-758.6 732.73,-727.8 416.76,-727.8"/>
<text text-anchor="start" x="423.76" y="-740" font-family="Arial" font-size="14.00">updated_at </text>
<text text-anchor="start" x="497.72" y="-740" font-family="Arial" font-size="14.00" fill="#666666">[timestamp with time zone]</text>
<polygon fill="none" stroke="black" points="416.76,-697 416.76,-727.8 732.73,-727.8 732.73,-697 416.76,-697"/>
<text text-anchor="start" x="423.76" y="-709.2" font-family="Arial" font-size="14.00">deleted_at </text>
<text text-anchor="start" x="493.04" y="-709.2" font-family="Arial" font-size="14.00" fill="#666666">[timestamp with time zone]</text>
<polygon fill="none" stroke="black" stroke-width="3" points="415.26,-695.5 415.26,-1165.3 734.23,-1165.3 734.23,-695.5 415.26,-695.5"/>
</g>
<!-- public.assessments -->
<g id="node2" class="node">
<title>public.assessments</title>
<polygon fill="#efefef" stroke="none" points="52.26,-536 52.26,-571.6 327.23,-571.6 327.23,-536 52.26,-536"/>
<polygon fill="none" stroke="black" points="52.26,-536 52.26,-571.6 327.23,-571.6 327.23,-536 52.26,-536"/>
<text text-anchor="start" x="59.26" y="-549.4" font-family="Arial Bold" font-size="18.00">public.assessments</text>
<text text-anchor="start" x="195.74" y="-549.4" font-family="Arial" font-size="14.00">    </text>
<text text-anchor="start" x="226.86" y="-549.4" font-family="Arial" font-size="14.00" fill="#666666">[BASE TABLE]</text>
<polygon fill="none" stroke="black" points="52.26,-505.2 52.26,-536 327.23,-536 327.23,-505.2 52.26,-505.2"/>
<text text-anchor="start" x="59.26" y="-517.4" font-family="Arial" font-size="14.00">id </text>
<text text-anchor="start" x="74.04" y="-517.4" font-family="Arial" font-size="14.00" fill="#666666">[bigint]</text>
<polygon fill="none" stroke="black" points="52.26,-474.4 52.26,-505.2 327.23,-505.2 327.23,-474.4 52.26,-474.4"/>
<text text-anchor="start" x="59.26" y="-486.6" font-family="Arial" font-size="14.00">disaster_id </text>
<text text-anchor="start" x="130.85" y="-486.6" font-family="Arial" font-size="14.00" fill="#666666">[uuid]</text>
<polygon fill="none" stroke="black" points="52.26,-443.6 52.26,-474.4 327.23,-474.4 327.23,-443.6 52.26,-443.6"/>
<text text-anchor="start" x="59.26" y="-455.8" font-family="Arial" font-size="14.00">user_id </text>
<text text-anchor="start" x="109.07" y="-455.8" font-family="Arial" font-size="14.00" fill="#666666">[uuid]</text>
<polygon fill="none" stroke="black" points="52.26,-412.8 52.26,-443.6 327.23,-443.6 327.23,-412.8 52.26,-412.8"/>
<text text-anchor="start" x="59.26" y="-425" font-family="Arial" font-size="14.00">assessment_date </text>
<text text-anchor="start" x="172.88" y="-425" font-family="Arial" font-size="14.00" fill="#666666">[date]</text>
<polygon fill="none" stroke="black" points="52.26,-382 52.26,-412.8 327.23,-412.8 327.23,-382 52.26,-382"/>
<text text-anchor="start" x="59.26" y="-394.2" font-family="Arial" font-size="14.00">assessment_type </text>
<text text-anchor="start" x="172.09" y="-394.2" font-family="Arial" font-size="14.00" fill="#666666">[varchar(50)]</text>
<polygon fill="none" stroke="black" points="52.26,-351.2 52.26,-382 327.23,-382 327.23,-351.2 52.26,-351.2"/>
<text text-anchor="start" x="59.26" y="-363.4" font-family="Arial" font-size="14.00">status </text>
<text text-anchor="start" x="100.5" y="-363.4" font-family="Arial" font-size="14.00" fill="#666666">[varchar(30)]</text>
<polygon fill="none" stroke="black" points="52.26,-320.4 52.26,-351.2 327.23,-351.2 327.23,-320.4 52.26,-320.4"/>
<text text-anchor="start" x="59.26" y="-332.6" font-family="Arial" font-size="14.00">assessment_method </text>
<text text-anchor="start" x="192.33" y="-332.6" font-family="Arial" font-size="14.00" fill="#666666">[varchar(50)]</text>
<polygon fill="none" stroke="black" points="52.26,-289.6 52.26,-320.4 327.23,-320.4 327.23,-289.6 52.26,-289.6"/>
<text text-anchor="start" x="59.26" y="-301.8" font-family="Arial" font-size="14.00">assessment_summary </text>
<text text-anchor="start" x="203.19" y="-301.8" font-family="Arial" font-size="14.00" fill="#666666">[text]</text>
<polygon fill="none" stroke="black" points="52.26,-258.8 52.26,-289.6 327.23,-289.6 327.23,-258.8 52.26,-258.8"/>
<text text-anchor="start" x="59.26" y="-271" font-family="Arial" font-size="14.00">damage_amount </text>
<text text-anchor="start" x="168.22" y="-271" font-family="Arial" font-size="14.00" fill="#666666">[numeric(15,2)]</text>
<polygon fill="none" stroke="black" points="52.26,-228 52.26,-258.8 327.23,-258.8 327.23,-228 52.26,-228"/>
<text text-anchor="start" x="59.26" y="-240.2" font-family="Arial" font-size="14.00">approved_amount </text>
<text text-anchor="start" x="176.01" y="-240.2" font-family="Arial" font-size="14.00" fill="#666666">[numeric(15,2)]</text>
<polygon fill="none" stroke="black" points="52.26,-197.2 52.26,-228 327.23,-228 327.23,-197.2 52.26,-197.2"/>
<text text-anchor="start" x="59.26" y="-209.4" font-family="Arial" font-size="14.00">approval_date </text>
<text text-anchor="start" x="151.89" y="-209.4" font-family="Arial" font-size="14.00" fill="#666666">[timestamp with time zone]</text>
<polygon fill="none" stroke="black" points="52.26,-166.4 52.26,-197.2 327.23,-197.2 327.23,-166.4 52.26,-166.4"/>
<text text-anchor="start" x="59.26" y="-178.6" font-family="Arial" font-size="14.00">approved_by </text>
<text text-anchor="start" x="144.1" y="-178.6" font-family="Arial" font-size="14.00" fill="#666666">[uuid]</text>
<polygon fill="none" stroke="black" points="52.26,-135.6 52.26,-166.4 327.23,-166.4 327.23,-135.6 52.26,-135.6"/>
<text text-anchor="start" x="59.26" y="-147.8" font-family="Arial" font-size="14.00">notes </text>
<text text-anchor="start" x="97.4" y="-147.8" font-family="Arial" font-size="14.00" fill="#666666">[text]</text>
<polygon fill="none" stroke="black" points="52.26,-104.8 52.26,-135.6 327.23,-135.6 327.23,-104.8 52.26,-104.8"/>
<text text-anchor="start" x="59.26" y="-117" font-family="Arial" font-size="14.00">created_at </text>
<text text-anchor="start" x="129.31" y="-117" font-family="Arial" font-size="14.00" fill="#666666">[timestamp with time zone]</text>
<polygon fill="none" stroke="black" points="52.26,-74 52.26,-104.8 327.23,-104.8 327.23,-74 52.26,-74"/>
<text text-anchor="start" x="59.26" y="-86.2" font-family="Arial" font-size="14.00">updated_at </text>
<text text-anchor="start" x="133.22" y="-86.2" font-family="Arial" font-size="14.00" fill="#666666">[timestamp with time zone]</text>
<polygon fill="none" stroke="black" points="52.26,-43.2 52.26,-74 327.23,-74 327.23,-43.2 52.26,-43.2"/>
<text text-anchor="start" x="59.26" y="-55.4" font-family="Arial" font-size="14.00">deleted_at </text>
<text text-anchor="start" x="128.54" y="-55.4" font-family="Arial" font-size="14.00" fill="#666666">[timestamp with time zone]</text>
</g>
<!-- public.assessment_items&#45;&gt;public.assessments -->
<g id="edge1" class="edge">
<title>public.assessment_items:assessment_id&#45;&gt;public.assessments:id</title>
<path fill="none" stroke="black" d="M405.72,-1080.67C298.61,-1050.65 450.92,-520.6 328.23,-520.6"/>
<polygon fill="black" stroke="black" points="405.52,-1080.65 414.84,-1086.42 410.81,-1081.35 415.1,-1081.91 415.1,-1081.91 415.1,-1081.91 410.81,-1081.35 416.02,-1077.49 405.52,-1080.65"/>
<text text-anchor="start" x="7" y="-1092" font-family="Arial" font-size="10.00">FOREIGN KEY (assessment_id) REFERENCES assessments(id) ON DELETE CASCADE</text>
</g>
<!-- public.facility_types -->
<g id="node3" class="node">
<title>public.facility_types</title>
<polygon fill="#efefef" stroke="none" points="431.77,-366.6 431.77,-402.2 717.72,-402.2 717.72,-366.6 431.77,-366.6"/>
<polygon fill="none" stroke="black" points="431.77,-366.6 431.77,-402.2 717.72,-402.2 717.72,-366.6 431.77,-366.6"/>
<text text-anchor="start" x="438.77" y="-380" font-family="Arial Bold" font-size="18.00">public.facility_types</text>
<text text-anchor="start" x="586.23" y="-380" font-family="Arial" font-size="14.00">    </text>
<text text-anchor="start" x="617.35" y="-380" font-family="Arial" font-size="14.00" fill="#666666">[BASE TABLE]</text>
<polygon fill="none" stroke="black" points="431.77,-335.8 431.77,-366.6 717.72,-366.6 717.72,-335.8 431.77,-335.8"/>
<text text-anchor="start" x="438.77" y="-348" font-family="Arial" font-size="14.00">id </text>
<text text-anchor="start" x="453.56" y="-348" font-family="Arial" font-size="14.00" fill="#666666">[integer]</text>
<polygon fill="none" stroke="black" points="431.77,-305 431.77,-335.8 717.72,-335.8 717.72,-305 431.77,-305"/>
<text text-anchor="start" x="438.77" y="-317.2" font-family="Arial" font-size="14.00">name </text>
<text text-anchor="start" x="477.68" y="-317.2" font-family="Arial" font-size="14.00" fill="#666666">[varchar(50)]</text>
<polygon fill="none" stroke="black" points="431.77,-274.2 431.77,-305 717.72,-305 717.72,-274.2 431.77,-274.2"/>
<text text-anchor="start" x="438.77" y="-286.4" font-family="Arial" font-size="14.00">description </text>
<text text-anchor="start" x="510.36" y="-286.4" font-family="Arial" font-size="14.00" fill="#666666">[text]</text>
<polygon fill="none" stroke="black" points="431.77,-243.4 431.77,-274.2 717.72,-274.2 717.72,-243.4 431.77,-243.4"/>
<text text-anchor="start" x="438.77" y="-255.6" font-family="Arial" font-size="14.00">created_at </text>
<text text-anchor="start" x="508.82" y="-255.6" font-family="Arial" font-size="14.00" fill="#666666">[timestamp with time zone]</text>
<polygon fill="none" stroke="black" points="431.77,-212.6 431.77,-243.4 717.72,-243.4 717.72,-212.6 431.77,-212.6"/>
<text text-anchor="start" x="438.77" y="-224.8" font-family="Arial" font-size="14.00">updated_at </text>
<text text-anchor="start" x="512.73" y="-224.8" font-family="Arial" font-size="14.00" fill="#666666">[timestamp with time zone]</text>
</g>
<!-- public.assessment_items&#45;&gt;public.facility_types -->
<g id="edge2" class="edge">
<title>public.assessment_items:facility_type_id&#45;&gt;public.facility_types:id</title>
<path fill="none" stroke="black" d="M740.28,-1012.42C768.89,-936.92 753.51,-351.2 718.72,-351.2"/>
<polygon fill="black" stroke="black" points="740.28,-1012.41 730.46,-1017.29 736.9,-1016.53 734.15,-1019.88 734.15,-1019.88 734.15,-1019.88 736.9,-1016.53 737.42,-1023 740.28,-1012.41"/>
<text text-anchor="start" x="740.73" y="-1030.4" font-family="Arial" font-size="10.00">FOREIGN KEY (facility_type_id) REFERENCES facility_types(id)</text>
</g>
<!-- public.damage_levels -->
<g id="node4" class="node">
<title>public.damage_levels</title>
<polygon fill="#efefef" stroke="none" points="822.28,-366.6 822.28,-402.2 1117.21,-402.2 1117.21,-366.6 822.28,-366.6"/>
<polygon fill="none" stroke="black" points="822.28,-366.6 822.28,-402.2 1117.21,-402.2 1117.21,-366.6 822.28,-366.6"/>
<text text-anchor="start" x="829.28" y="-380" font-family="Arial Bold" font-size="18.00">public.damage_levels</text>
<text text-anchor="start" x="985.72" y="-380" font-family="Arial" font-size="14.00">    </text>
<text text-anchor="start" x="1016.84" y="-380" font-family="Arial" font-size="14.00" fill="#666666">[BASE TABLE]</text>
<polygon fill="none" stroke="black" points="822.28,-335.8 822.28,-366.6 1117.21,-366.6 1117.21,-335.8 822.28,-335.8"/>
<text text-anchor="start" x="829.28" y="-348" font-family="Arial" font-size="14.00">id </text>
<text text-anchor="start" x="844.06" y="-348" font-family="Arial" font-size="14.00" fill="#666666">[integer]</text>
<polygon fill="none" stroke="black" points="822.28,-305 822.28,-335.8 1117.21,-335.8 1117.21,-305 822.28,-305"/>
<text text-anchor="start" x="829.28" y="-317.2" font-family="Arial" font-size="14.00">name </text>
<text text-anchor="start" x="868.19" y="-317.2" font-family="Arial" font-size="14.00" fill="#666666">[varchar(50)]</text>
<polygon fill="none" stroke="black" points="822.28,-274.2 822.28,-305 1117.21,-305 1117.21,-274.2 822.28,-274.2"/>
<text text-anchor="start" x="829.28" y="-286.4" font-family="Arial" font-size="14.00">description </text>
<text text-anchor="start" x="900.87" y="-286.4" font-family="Arial" font-size="14.00" fill="#666666">[text]</text>
<polygon fill="none" stroke="black" points="822.28,-243.4 822.28,-274.2 1117.21,-274.2 1117.21,-243.4 822.28,-243.4"/>
<text text-anchor="start" x="829.28" y="-255.6" font-family="Arial" font-size="14.00">created_at </text>
<text text-anchor="start" x="899.33" y="-255.6" font-family="Arial" font-size="14.00" fill="#666666">[timestamp with time zone]</text>
<polygon fill="none" stroke="black" points="822.28,-212.6 822.28,-243.4 1117.21,-243.4 1117.21,-212.6 822.28,-212.6"/>
<text text-anchor="start" x="829.28" y="-224.8" font-family="Arial" font-size="14.00">updated_at </text>
<text text-anchor="start" x="903.24" y="-224.8" font-family="Arial" font-size="14.00" fill="#666666">[timestamp with time zone]</text>
</g>
<!-- public.assessment_items&#45;&gt;public.damage_levels -->
<g id="edge3" class="edge">
<title>public.assessment_items:damage_level_id&#45;&gt;public.damage_levels:id</title>
<path fill="none" stroke="black" d="M742.99,-985.52C800.39,-931.15 753.04,-351.2 821.28,-351.2"/>
<polygon fill="black" stroke="black" points="743.19,-985.43 732.22,-985.35 738.31,-987.58 734.34,-989.33 734.34,-989.33 734.34,-989.33 738.31,-987.58 735.85,-993.58 743.19,-985.43"/>
<text text-anchor="start" x="740.73" y="-999.6" font-family="Arial" font-size="10.00">FOREIGN KEY (damage_level_id) REFERENCES damage_levels(id)</text>
</g>
</g>
</svg>
