<?xml version="1.0" encoding="UTF-8" standalone="no"?>
<!DOCTYPE svg PUBLIC "-//W3C//DTD SVG 1.1//EN"
 "http://www.w3.org/Graphics/SVG/1.1/DTD/svg11.dtd">
<!-- Generated by graphviz version 12.1.2 (20240928.0832)
 -->
<!-- Title: public.login_histories Pages: 1 -->
<svg width="605pt" height="1033pt"
 viewBox="0.00 0.00 604.75 1033.20" xmlns="http://www.w3.org/2000/svg" xmlns:xlink="http://www.w3.org/1999/xlink">
<g id="graph0" class="graph" transform="scale(1 1) rotate(0) translate(4 1029.2)">
<title>public.login_histories</title>
<polygon fill="white" stroke="none" points="-4,4 -4,-1029.2 600.75,-1029.2 600.75,4 -4,4"/>
<!-- public.login_histories -->
<g id="node1" class="node">
<title>public.login_histories</title>
<polygon fill="#efefef" stroke="none" points="63.39,-943.4 63.39,-979 358.37,-979 358.37,-943.4 63.39,-943.4"/>
<polygon fill="none" stroke="black" points="63.39,-943.4 63.39,-979 358.37,-979 358.37,-943.4 63.39,-943.4"/>
<text text-anchor="start" x="70.39" y="-956.8" font-family="Arial Bold" font-size="18.00">public.login_histories</text>
<text text-anchor="start" x="226.88" y="-956.8" font-family="Arial" font-size="14.00">    </text>
<text text-anchor="start" x="258" y="-956.8" font-family="Arial" font-size="14.00" fill="#666666">[BASE TABLE]</text>
<polygon fill="none" stroke="black" points="63.39,-912.6 63.39,-943.4 358.37,-943.4 358.37,-912.6 63.39,-912.6"/>
<text text-anchor="start" x="70.39" y="-924.8" font-family="Arial" font-size="14.00">id </text>
<text text-anchor="start" x="85.18" y="-924.8" font-family="Arial" font-size="14.00" fill="#666666">[bigint]</text>
<polygon fill="none" stroke="black" points="63.39,-881.8 63.39,-912.6 358.37,-912.6 358.37,-881.8 63.39,-881.8"/>
<text text-anchor="start" x="70.39" y="-894" font-family="Arial" font-size="14.00">user_id </text>
<text text-anchor="start" x="120.2" y="-894" font-family="Arial" font-size="14.00" fill="#666666">[uuid]</text>
<polygon fill="none" stroke="black" points="63.39,-851 63.39,-881.8 358.37,-881.8 358.37,-851 63.39,-851"/>
<text text-anchor="start" x="70.39" y="-863.2" font-family="Arial" font-size="14.00">username </text>
<text text-anchor="start" x="136.53" y="-863.2" font-family="Arial" font-size="14.00" fill="#666666">[varchar(100)]</text>
<polygon fill="none" stroke="black" points="63.39,-820.2 63.39,-851 358.37,-851 358.37,-820.2 63.39,-820.2"/>
<text text-anchor="start" x="70.39" y="-832.4" font-family="Arial" font-size="14.00">login_type </text>
<text text-anchor="start" x="138.11" y="-832.4" font-family="Arial" font-size="14.00" fill="#666666">[varchar(50)]</text>
<polygon fill="none" stroke="black" points="63.39,-789.4 63.39,-820.2 358.37,-820.2 358.37,-789.4 63.39,-789.4"/>
<text text-anchor="start" x="70.39" y="-801.6" font-family="Arial" font-size="14.00">ip_address </text>
<text text-anchor="start" x="142.77" y="-801.6" font-family="Arial" font-size="14.00" fill="#666666">[inet]</text>
<polygon fill="none" stroke="black" points="63.39,-758.6 63.39,-789.4 358.37,-789.4 358.37,-758.6 63.39,-758.6"/>
<text text-anchor="start" x="70.39" y="-770.8" font-family="Arial" font-size="14.00">user_agent </text>
<text text-anchor="start" x="144.33" y="-770.8" font-family="Arial" font-size="14.00" fill="#666666">[text]</text>
<polygon fill="none" stroke="black" points="63.39,-727.8 63.39,-758.6 358.37,-758.6 358.37,-727.8 63.39,-727.8"/>
<text text-anchor="start" x="70.39" y="-740" font-family="Arial" font-size="14.00">failure_reason </text>
<text text-anchor="start" x="163" y="-740" font-family="Arial" font-size="14.00" fill="#666666">[varchar(255)]</text>
<polygon fill="none" stroke="black" points="63.39,-697 63.39,-727.8 358.37,-727.8 358.37,-697 63.39,-697"/>
<text text-anchor="start" x="70.39" y="-709.2" font-family="Arial" font-size="14.00">created_at </text>
<text text-anchor="start" x="140.44" y="-709.2" font-family="Arial" font-size="14.00" fill="#666666">[timestamp with time zone]</text>
<polygon fill="none" stroke="black" stroke-width="3" points="61.89,-695.5 61.89,-980.5 359.87,-980.5 359.87,-695.5 61.89,-695.5"/>
</g>
<!-- public.users -->
<g id="node2" class="node">
<title>public.users</title>
<polygon fill="#efefef" stroke="none" points="43.2,-536 43.2,-571.6 378.56,-571.6 378.56,-536 43.2,-536"/>
<polygon fill="none" stroke="black" points="43.2,-536 43.2,-571.6 378.56,-571.6 378.56,-536 43.2,-536"/>
<text text-anchor="start" x="105.39" y="-549.4" font-family="Arial Bold" font-size="18.00">public.users</text>
<text text-anchor="start" x="191.88" y="-549.4" font-family="Arial" font-size="14.00">    </text>
<text text-anchor="start" x="222.99" y="-549.4" font-family="Arial" font-size="14.00" fill="#666666">[BASE TABLE]</text>
<polygon fill="none" stroke="black" points="43.2,-505.2 43.2,-536 378.56,-536 378.56,-505.2 43.2,-505.2"/>
<text text-anchor="start" x="50.2" y="-517.4" font-family="Arial" font-size="14.00">id </text>
<text text-anchor="start" x="64.99" y="-517.4" font-family="Arial" font-size="14.00" fill="#666666">[uuid]</text>
<polygon fill="none" stroke="black" points="43.2,-474.4 43.2,-505.2 378.56,-505.2 378.56,-474.4 43.2,-474.4"/>
<text text-anchor="start" x="50.2" y="-486.6" font-family="Arial" font-size="14.00">name </text>
<text text-anchor="start" x="89.11" y="-486.6" font-family="Arial" font-size="14.00" fill="#666666">[varchar(255)]</text>
<polygon fill="none" stroke="black" points="43.2,-443.6 43.2,-474.4 378.56,-474.4 378.56,-443.6 43.2,-443.6"/>
<text text-anchor="start" x="50.2" y="-455.8" font-family="Arial" font-size="14.00">email </text>
<text text-anchor="start" x="87.54" y="-455.8" font-family="Arial" font-size="14.00" fill="#666666">[varchar(255)]</text>
<polygon fill="none" stroke="black" points="43.2,-412.8 43.2,-443.6 378.56,-443.6 378.56,-412.8 43.2,-412.8"/>
<text text-anchor="start" x="50.2" y="-425" font-family="Arial" font-size="14.00">password </text>
<text text-anchor="start" x="114.01" y="-425" font-family="Arial" font-size="14.00" fill="#666666">[varchar(255)]</text>
<polygon fill="none" stroke="black" points="43.2,-382 43.2,-412.8 378.56,-412.8 378.56,-382 43.2,-382"/>
<text text-anchor="start" x="50.2" y="-394.2" font-family="Arial" font-size="14.00">organization_id </text>
<text text-anchor="start" x="149.05" y="-394.2" font-family="Arial" font-size="14.00" fill="#666666">[integer]</text>
<polygon fill="none" stroke="black" points="43.2,-351.2 43.2,-382 378.56,-382 378.56,-351.2 43.2,-351.2"/>
<text text-anchor="start" x="50.2" y="-363.4" font-family="Arial" font-size="14.00">role_id </text>
<text text-anchor="start" x="96.12" y="-363.4" font-family="Arial" font-size="14.00" fill="#666666">[smallint]</text>
<polygon fill="none" stroke="black" points="43.2,-320.4 43.2,-351.2 378.56,-351.2 378.56,-320.4 43.2,-320.4"/>
<text text-anchor="start" x="50.2" y="-332.6" font-family="Arial" font-size="14.00">is_active </text>
<text text-anchor="start" x="108.56" y="-332.6" font-family="Arial" font-size="14.00" fill="#666666">[boolean]</text>
<polygon fill="none" stroke="black" points="43.2,-289.6 43.2,-320.4 378.56,-320.4 378.56,-289.6 43.2,-289.6"/>
<text text-anchor="start" x="50.2" y="-301.8" font-family="Arial" font-size="14.00">email_verified </text>
<text text-anchor="start" x="140.46" y="-301.8" font-family="Arial" font-size="14.00" fill="#666666">[boolean]</text>
<polygon fill="none" stroke="black" points="43.2,-258.8 43.2,-289.6 378.56,-289.6 378.56,-258.8 43.2,-258.8"/>
<text text-anchor="start" x="50.2" y="-271" font-family="Arial" font-size="14.00">mfa_enabled </text>
<text text-anchor="start" x="135.04" y="-271" font-family="Arial" font-size="14.00" fill="#666666">[boolean]</text>
<polygon fill="none" stroke="black" points="43.2,-228 43.2,-258.8 378.56,-258.8 378.56,-228 43.2,-228"/>
<text text-anchor="start" x="50.2" y="-240.2" font-family="Arial" font-size="14.00">mfa_secret </text>
<text text-anchor="start" x="123.34" y="-240.2" font-family="Arial" font-size="14.00" fill="#666666">[varchar(255)]</text>
<polygon fill="none" stroke="black" points="43.2,-197.2 43.2,-228 378.56,-228 378.56,-197.2 43.2,-197.2"/>
<text text-anchor="start" x="50.2" y="-209.4" font-family="Arial" font-size="14.00">password_reset_token </text>
<text text-anchor="start" x="194.95" y="-209.4" font-family="Arial" font-size="14.00" fill="#666666">[varchar(255)]</text>
<polygon fill="none" stroke="black" points="43.2,-166.4 43.2,-197.2 378.56,-197.2 378.56,-166.4 43.2,-166.4"/>
<text text-anchor="start" x="50.2" y="-178.6" font-family="Arial" font-size="14.00">password_reset_expires </text>
<text text-anchor="start" x="205.83" y="-178.6" font-family="Arial" font-size="14.00" fill="#666666">[timestamp with time zone]</text>
<polygon fill="none" stroke="black" points="43.2,-135.6 43.2,-166.4 378.56,-166.4 378.56,-135.6 43.2,-135.6"/>
<text text-anchor="start" x="50.2" y="-147.8" font-family="Arial" font-size="14.00">last_password_change </text>
<text text-anchor="start" x="197.3" y="-147.8" font-family="Arial" font-size="14.00" fill="#666666">[timestamp with time zone]</text>
<polygon fill="none" stroke="black" points="43.2,-104.8 43.2,-135.6 378.56,-135.6 378.56,-104.8 43.2,-104.8"/>
<text text-anchor="start" x="50.2" y="-117" font-family="Arial" font-size="14.00">created_at </text>
<text text-anchor="start" x="120.25" y="-117" font-family="Arial" font-size="14.00" fill="#666666">[timestamp with time zone]</text>
<polygon fill="none" stroke="black" points="43.2,-74 43.2,-104.8 378.56,-104.8 378.56,-74 43.2,-74"/>
<text text-anchor="start" x="50.2" y="-86.2" font-family="Arial" font-size="14.00">updated_at </text>
<text text-anchor="start" x="124.16" y="-86.2" font-family="Arial" font-size="14.00" fill="#666666">[timestamp with time zone]</text>
<polygon fill="none" stroke="black" points="43.2,-43.2 43.2,-74 378.56,-74 378.56,-43.2 43.2,-43.2"/>
<text text-anchor="start" x="50.2" y="-55.4" font-family="Arial" font-size="14.00">deleted_at </text>
<text text-anchor="start" x="119.48" y="-55.4" font-family="Arial" font-size="14.00" fill="#666666">[timestamp with time zone]</text>
</g>
<!-- public.login_histories&#45;&gt;public.users -->
<g id="edge1" class="edge">
<title>public.login_histories:user_id&#45;&gt;public.users:id</title>
<path fill="none" stroke="black" d="M369.36,-895.35C444.66,-866.94 459.93,-520.6 379.56,-520.6"/>
<polygon fill="black" stroke="black" points="369.53,-895.32 358.88,-892.71 364.28,-896.29 360.03,-897.08 360.03,-897.08 360.03,-897.08 364.28,-896.29 360.52,-901.56 369.53,-895.32"/>
<text text-anchor="start" x="366.37" y="-907.2" font-family="Arial" font-size="10.00">FOREIGN KEY (user_id) REFERENCES users(id)</text>
</g>
</g>
</svg>
