<?xml version="1.0" encoding="UTF-8" standalone="no"?>
<!DOCTYPE svg PUBLIC "-//W3C//DTD SVG 1.1//EN"
 "http://www.w3.org/Graphics/SVG/1.1/DTD/svg11.dtd">
<!-- Generated by graphviz version 12.1.2 (20240928.0832)
 -->
<!-- Title: public.facility_types Pages: 1 -->
<svg width="838pt" height="879pt"
 viewBox="0.00 0.00 838.35 879.20" xmlns="http://www.w3.org/2000/svg" xmlns:xlink="http://www.w3.org/1999/xlink">
<g id="graph0" class="graph" transform="scale(1 1) rotate(0) translate(4 875.2)">
<title>public.facility_types</title>
<polygon fill="white" stroke="none" points="-4,4 -4,-875.2 834.35,-875.2 834.35,4 -4,4"/>
<!-- public.facility_types -->
<g id="node1" class="node">
<title>public.facility_types</title>
<polygon fill="#efefef" stroke="none" points="270.21,-200.2 270.21,-235.8 556.16,-235.8 556.16,-200.2 270.21,-200.2"/>
<polygon fill="none" stroke="black" points="270.21,-200.2 270.21,-235.8 556.16,-235.8 556.16,-200.2 270.21,-200.2"/>
<text text-anchor="start" x="277.21" y="-213.6" font-family="Arial Bold" font-size="18.00">public.facility_types</text>
<text text-anchor="start" x="424.67" y="-213.6" font-family="Arial" font-size="14.00">    </text>
<text text-anchor="start" x="455.79" y="-213.6" font-family="Arial" font-size="14.00" fill="#666666">[BASE TABLE]</text>
<polygon fill="none" stroke="black" points="270.21,-169.4 270.21,-200.2 556.16,-200.2 556.16,-169.4 270.21,-169.4"/>
<text text-anchor="start" x="277.21" y="-181.6" font-family="Arial" font-size="14.00">id </text>
<text text-anchor="start" x="291.99" y="-181.6" font-family="Arial" font-size="14.00" fill="#666666">[integer]</text>
<polygon fill="none" stroke="black" points="270.21,-138.6 270.21,-169.4 556.16,-169.4 556.16,-138.6 270.21,-138.6"/>
<text text-anchor="start" x="277.21" y="-150.8" font-family="Arial" font-size="14.00">name </text>
<text text-anchor="start" x="316.12" y="-150.8" font-family="Arial" font-size="14.00" fill="#666666">[varchar(50)]</text>
<polygon fill="none" stroke="black" points="270.21,-107.8 270.21,-138.6 556.16,-138.6 556.16,-107.8 270.21,-107.8"/>
<text text-anchor="start" x="277.21" y="-120" font-family="Arial" font-size="14.00">description </text>
<text text-anchor="start" x="348.8" y="-120" font-family="Arial" font-size="14.00" fill="#666666">[text]</text>
<polygon fill="none" stroke="black" points="270.21,-77 270.21,-107.8 556.16,-107.8 556.16,-77 270.21,-77"/>
<text text-anchor="start" x="277.21" y="-89.2" font-family="Arial" font-size="14.00">created_at </text>
<text text-anchor="start" x="347.26" y="-89.2" font-family="Arial" font-size="14.00" fill="#666666">[timestamp with time zone]</text>
<polygon fill="none" stroke="black" points="270.21,-46.2 270.21,-77 556.16,-77 556.16,-46.2 270.21,-46.2"/>
<text text-anchor="start" x="277.21" y="-58.4" font-family="Arial" font-size="14.00">updated_at </text>
<text text-anchor="start" x="351.17" y="-58.4" font-family="Arial" font-size="14.00" fill="#666666">[timestamp with time zone]</text>
<polygon fill="none" stroke="black" stroke-width="3" points="268.71,-44.7 268.71,-237.3 557.66,-237.3 557.66,-44.7 268.71,-44.7"/>
</g>
<!-- public.assessment_items -->
<g id="node2" class="node">
<title>public.assessment_items</title>
<polygon fill="#efefef" stroke="none" points="43.2,-792.4 43.2,-828 359.17,-828 359.17,-792.4 43.2,-792.4"/>
<polygon fill="none" stroke="black" points="43.2,-792.4 43.2,-828 359.17,-828 359.17,-792.4 43.2,-792.4"/>
<text text-anchor="start" x="50.2" y="-805.8" font-family="Arial Bold" font-size="18.00">public.assessment_items</text>
<text text-anchor="start" x="227.68" y="-805.8" font-family="Arial" font-size="14.00">    </text>
<text text-anchor="start" x="258.79" y="-805.8" font-family="Arial" font-size="14.00" fill="#666666">[BASE TABLE]</text>
<polygon fill="none" stroke="black" points="43.2,-761.6 43.2,-792.4 359.17,-792.4 359.17,-761.6 43.2,-761.6"/>
<text text-anchor="start" x="50.2" y="-773.8" font-family="Arial" font-size="14.00">id </text>
<text text-anchor="start" x="64.99" y="-773.8" font-family="Arial" font-size="14.00" fill="#666666">[integer]</text>
<polygon fill="none" stroke="black" points="43.2,-730.8 43.2,-761.6 359.17,-761.6 359.17,-730.8 43.2,-730.8"/>
<text text-anchor="start" x="50.2" y="-743" font-family="Arial" font-size="14.00">assessment_id </text>
<text text-anchor="start" x="147.47" y="-743" font-family="Arial" font-size="14.00" fill="#666666">[bigint]</text>
<polygon fill="none" stroke="black" points="43.2,-700 43.2,-730.8 359.17,-730.8 359.17,-700 43.2,-700"/>
<text text-anchor="start" x="50.2" y="-712.2" font-family="Arial" font-size="14.00">item_name </text>
<text text-anchor="start" x="123.34" y="-712.2" font-family="Arial" font-size="14.00" fill="#666666">[varchar(100)]</text>
<polygon fill="none" stroke="black" points="43.2,-669.2 43.2,-700 359.17,-700 359.17,-669.2 43.2,-669.2"/>
<text text-anchor="start" x="50.2" y="-681.4" font-family="Arial" font-size="14.00">facility_type_id </text>
<text text-anchor="start" x="145.92" y="-681.4" font-family="Arial" font-size="14.00" fill="#666666">[integer]</text>
<polygon fill="none" stroke="black" points="43.2,-638.4 43.2,-669.2 359.17,-669.2 359.17,-638.4 43.2,-638.4"/>
<text text-anchor="start" x="50.2" y="-650.6" font-family="Arial" font-size="14.00">damage_level_id </text>
<text text-anchor="start" x="159.94" y="-650.6" font-family="Arial" font-size="14.00" fill="#666666">[integer]</text>
<polygon fill="none" stroke="black" points="43.2,-607.6 43.2,-638.4 359.17,-638.4 359.17,-607.6 43.2,-607.6"/>
<text text-anchor="start" x="50.2" y="-619.8" font-family="Arial" font-size="14.00">damage_description </text>
<text text-anchor="start" x="180.17" y="-619.8" font-family="Arial" font-size="14.00" fill="#666666">[text]</text>
<polygon fill="none" stroke="black" points="43.2,-576.8 43.2,-607.6 359.17,-607.6 359.17,-576.8 43.2,-576.8"/>
<text text-anchor="start" x="50.2" y="-589" font-family="Arial" font-size="14.00">damage_amount </text>
<text text-anchor="start" x="159.16" y="-589" font-family="Arial" font-size="14.00" fill="#666666">[numeric(15,2)]</text>
<polygon fill="none" stroke="black" points="43.2,-546 43.2,-576.8 359.17,-576.8 359.17,-546 43.2,-546"/>
<text text-anchor="start" x="50.2" y="-558.2" font-family="Arial" font-size="14.00">approved_amount </text>
<text text-anchor="start" x="166.95" y="-558.2" font-family="Arial" font-size="14.00" fill="#666666">[numeric(15,2)]</text>
<polygon fill="none" stroke="black" points="43.2,-515.2 43.2,-546 359.17,-546 359.17,-515.2 43.2,-515.2"/>
<text text-anchor="start" x="50.2" y="-527.4" font-family="Arial" font-size="14.00">location_latitude </text>
<text text-anchor="start" x="155.28" y="-527.4" font-family="Arial" font-size="14.00" fill="#666666">[numeric(10,8)]</text>
<polygon fill="none" stroke="black" points="43.2,-484.4 43.2,-515.2 359.17,-515.2 359.17,-484.4 43.2,-484.4"/>
<text text-anchor="start" x="50.2" y="-496.6" font-family="Arial" font-size="14.00">location_longitude </text>
<text text-anchor="start" x="166.96" y="-496.6" font-family="Arial" font-size="14.00" fill="#666666">[numeric(11,8)]</text>
<polygon fill="none" stroke="black" points="43.2,-453.6 43.2,-484.4 359.17,-484.4 359.17,-453.6 43.2,-453.6"/>
<text text-anchor="start" x="50.2" y="-465.8" font-family="Arial" font-size="14.00">notes </text>
<text text-anchor="start" x="88.34" y="-465.8" font-family="Arial" font-size="14.00" fill="#666666">[text]</text>
<polygon fill="none" stroke="black" points="43.2,-422.8 43.2,-453.6 359.17,-453.6 359.17,-422.8 43.2,-422.8"/>
<text text-anchor="start" x="50.2" y="-435" font-family="Arial" font-size="14.00">created_at </text>
<text text-anchor="start" x="120.25" y="-435" font-family="Arial" font-size="14.00" fill="#666666">[timestamp with time zone]</text>
<polygon fill="none" stroke="black" points="43.2,-392 43.2,-422.8 359.17,-422.8 359.17,-392 43.2,-392"/>
<text text-anchor="start" x="50.2" y="-404.2" font-family="Arial" font-size="14.00">updated_at </text>
<text text-anchor="start" x="124.16" y="-404.2" font-family="Arial" font-size="14.00" fill="#666666">[timestamp with time zone]</text>
<polygon fill="none" stroke="black" points="43.2,-361.2 43.2,-392 359.17,-392 359.17,-361.2 43.2,-361.2"/>
<text text-anchor="start" x="50.2" y="-373.4" font-family="Arial" font-size="14.00">deleted_at </text>
<text text-anchor="start" x="119.48" y="-373.4" font-family="Arial" font-size="14.00" fill="#666666">[timestamp with time zone]</text>
</g>
<!-- public.assessment_items&#45;&gt;public.facility_types -->
<g id="edge1" class="edge">
<title>public.assessment_items:facility_type_id&#45;&gt;public.facility_types:id</title>
<path fill="none" stroke="black" d="M370.44,-682.84C438.31,-658.19 402.75,-382.46 359.17,-318 335.28,-282.67 294.23,-317.24 270.21,-282 245.88,-246.3 226.01,-184.8 269.21,-184.8"/>
<polygon fill="black" stroke="black" points="370.35,-682.85 359.74,-680.11 365.09,-683.75 360.83,-684.49 360.83,-684.49 360.83,-684.49 365.09,-683.75 361.26,-688.98 370.35,-682.85"/>
<text text-anchor="start" x="367.17" y="-694.6" font-family="Arial" font-size="10.00">FOREIGN KEY (facility_type_id) REFERENCES facility_types(id)</text>
</g>
<!-- public.facility_equipment -->
<g id="node3" class="node">
<title>public.facility_equipment</title>
<polygon fill="#efefef" stroke="none" points="463.21,-792.4 463.21,-828 787.15,-828 787.15,-792.4 463.21,-792.4"/>
<polygon fill="none" stroke="black" points="463.21,-792.4 463.21,-828 787.15,-828 787.15,-792.4 463.21,-792.4"/>
<text text-anchor="start" x="470.21" y="-805.8" font-family="Arial Bold" font-size="18.00">public.facility_equipment</text>
<text text-anchor="start" x="655.66" y="-805.8" font-family="Arial" font-size="14.00">    </text>
<text text-anchor="start" x="686.78" y="-805.8" font-family="Arial" font-size="14.00" fill="#666666">[BASE TABLE]</text>
<polygon fill="none" stroke="black" points="463.21,-761.6 463.21,-792.4 787.15,-792.4 787.15,-761.6 463.21,-761.6"/>
<text text-anchor="start" x="470.21" y="-773.8" font-family="Arial" font-size="14.00">id </text>
<text text-anchor="start" x="485" y="-773.8" font-family="Arial" font-size="14.00" fill="#666666">[integer]</text>
<polygon fill="none" stroke="black" points="463.21,-730.8 463.21,-761.6 787.15,-761.6 787.15,-730.8 463.21,-730.8"/>
<text text-anchor="start" x="470.21" y="-743" font-family="Arial" font-size="14.00">name </text>
<text text-anchor="start" x="509.12" y="-743" font-family="Arial" font-size="14.00" fill="#666666">[varchar(100)]</text>
<polygon fill="none" stroke="black" points="463.21,-700 463.21,-730.8 787.15,-730.8 787.15,-700 463.21,-700"/>
<text text-anchor="start" x="470.21" y="-712.2" font-family="Arial" font-size="14.00">facility_type_id </text>
<text text-anchor="start" x="565.93" y="-712.2" font-family="Arial" font-size="14.00" fill="#666666">[integer]</text>
<polygon fill="none" stroke="black" points="463.21,-669.2 463.21,-700 787.15,-700 787.15,-669.2 463.21,-669.2"/>
<text text-anchor="start" x="470.21" y="-681.4" font-family="Arial" font-size="14.00">model_number </text>
<text text-anchor="start" x="567.49" y="-681.4" font-family="Arial" font-size="14.00" fill="#666666">[varchar(100)]</text>
<polygon fill="none" stroke="black" points="463.21,-638.4 463.21,-669.2 787.15,-669.2 787.15,-638.4 463.21,-638.4"/>
<text text-anchor="start" x="470.21" y="-650.6" font-family="Arial" font-size="14.00">manufacturer </text>
<text text-anchor="start" x="556.59" y="-650.6" font-family="Arial" font-size="14.00" fill="#666666">[varchar(100)]</text>
<polygon fill="none" stroke="black" points="463.21,-607.6 463.21,-638.4 787.15,-638.4 787.15,-607.6 463.21,-607.6"/>
<text text-anchor="start" x="470.21" y="-619.8" font-family="Arial" font-size="14.00">installation_date </text>
<text text-anchor="start" x="575.29" y="-619.8" font-family="Arial" font-size="14.00" fill="#666666">[date]</text>
<polygon fill="none" stroke="black" points="463.21,-576.8 463.21,-607.6 787.15,-607.6 787.15,-576.8 463.21,-576.8"/>
<text text-anchor="start" x="470.21" y="-589" font-family="Arial" font-size="14.00">status </text>
<text text-anchor="start" x="511.46" y="-589" font-family="Arial" font-size="14.00" fill="#666666">[varchar(50)]</text>
<polygon fill="none" stroke="black" points="463.21,-546 463.21,-576.8 787.15,-576.8 787.15,-546 463.21,-546"/>
<text text-anchor="start" x="470.21" y="-558.2" font-family="Arial" font-size="14.00">location_description </text>
<text text-anchor="start" x="597.85" y="-558.2" font-family="Arial" font-size="14.00" fill="#666666">[text]</text>
<polygon fill="none" stroke="black" points="463.21,-515.2 463.21,-546 787.15,-546 787.15,-515.2 463.21,-515.2"/>
<text text-anchor="start" x="470.21" y="-527.4" font-family="Arial" font-size="14.00">location_latitude </text>
<text text-anchor="start" x="575.29" y="-527.4" font-family="Arial" font-size="14.00" fill="#666666">[numeric(10,8)]</text>
<polygon fill="none" stroke="black" points="463.21,-484.4 463.21,-515.2 787.15,-515.2 787.15,-484.4 463.21,-484.4"/>
<text text-anchor="start" x="470.21" y="-496.6" font-family="Arial" font-size="14.00">location_longitude </text>
<text text-anchor="start" x="586.97" y="-496.6" font-family="Arial" font-size="14.00" fill="#666666">[numeric(11,8)]</text>
<polygon fill="none" stroke="black" points="463.21,-453.6 463.21,-484.4 787.15,-484.4 787.15,-453.6 463.21,-453.6"/>
<text text-anchor="start" x="470.21" y="-465.8" font-family="Arial" font-size="14.00">notes </text>
<text text-anchor="start" x="508.35" y="-465.8" font-family="Arial" font-size="14.00" fill="#666666">[text]</text>
<polygon fill="none" stroke="black" points="463.21,-422.8 463.21,-453.6 787.15,-453.6 787.15,-422.8 463.21,-422.8"/>
<text text-anchor="start" x="470.21" y="-435" font-family="Arial" font-size="14.00">created_at </text>
<text text-anchor="start" x="540.26" y="-435" font-family="Arial" font-size="14.00" fill="#666666">[timestamp with time zone]</text>
<polygon fill="none" stroke="black" points="463.21,-392 463.21,-422.8 787.15,-422.8 787.15,-392 463.21,-392"/>
<text text-anchor="start" x="470.21" y="-404.2" font-family="Arial" font-size="14.00">updated_at </text>
<text text-anchor="start" x="544.17" y="-404.2" font-family="Arial" font-size="14.00" fill="#666666">[timestamp with time zone]</text>
<polygon fill="none" stroke="black" points="463.21,-361.2 463.21,-392 787.15,-392 787.15,-361.2 463.21,-361.2"/>
<text text-anchor="start" x="470.21" y="-373.4" font-family="Arial" font-size="14.00">deleted_at </text>
<text text-anchor="start" x="539.5" y="-373.4" font-family="Arial" font-size="14.00" fill="#666666">[timestamp with time zone]</text>
</g>
<!-- public.facility_equipment&#45;&gt;public.facility_types -->
<g id="edge2" class="edge">
<title>public.facility_equipment:facility_type_id&#45;&gt;public.facility_types:id</title>
<path fill="none" stroke="black" d="M453.63,-710C421,-664.92 440.02,-351.77 463.21,-318 488.3,-281.49 530.94,-318.42 556.16,-282 580.76,-246.49 600.36,-184.8 557.16,-184.8"/>
<polygon fill="black" stroke="black" points="453.46,-709.9 459.54,-719.03 457.98,-712.74 461.65,-715.04 461.65,-715.04 461.65,-715.04 457.98,-712.74 464.33,-711.41 453.46,-709.9"/>
<text text-anchor="start" x="469.21" y="-725.4" font-family="Arial" font-size="10.00">FOREIGN KEY (facility_type_id) REFERENCES facility_types(id)</text>
</g>
</g>
</svg>
