<?xml version="1.0" encoding="UTF-8" standalone="no"?>
<!DOCTYPE svg PUBLIC "-//W3C//DTD SVG 1.1//EN"
 "http://www.w3.org/Graphics/SVG/1.1/DTD/svg11.dtd">
<!-- Generated by graphviz version 12.1.2 (20240928.0832)
 -->
<!-- Title: public.gis_data Pages: 1 -->
<svg width="934pt" height="1156pt"
 viewBox="0.00 0.00 933.80 1156.40" xmlns="http://www.w3.org/2000/svg" xmlns:xlink="http://www.w3.org/1999/xlink">
<g id="graph0" class="graph" transform="scale(1 1) rotate(0) translate(4 1152.4)">
<title>public.gis_data</title>
<polygon fill="white" stroke="none" points="-4,4 -4,-1152.4 929.8,-1152.4 929.8,4 -4,4"/>
<!-- public.gis_data -->
<g id="node1" class="node">
<title>public.gis_data</title>
<polygon fill="#efefef" stroke="none" points="380.08,-1066.6 380.08,-1102.2 633.76,-1102.2 633.76,-1066.6 380.08,-1066.6"/>
<polygon fill="none" stroke="black" points="380.08,-1066.6 380.08,-1102.2 633.76,-1102.2 633.76,-1066.6 380.08,-1066.6"/>
<text text-anchor="start" x="389.94" y="-1080" font-family="Arial Bold" font-size="18.00">public.gis_data</text>
<text text-anchor="start" x="499.42" y="-1080" font-family="Arial" font-size="14.00">    </text>
<text text-anchor="start" x="530.53" y="-1080" font-family="Arial" font-size="14.00" fill="#666666">[BASE TABLE]</text>
<polygon fill="none" stroke="black" points="380.08,-1035.8 380.08,-1066.6 633.76,-1066.6 633.76,-1035.8 380.08,-1035.8"/>
<text text-anchor="start" x="387.08" y="-1048" font-family="Arial" font-size="14.00">id </text>
<text text-anchor="start" x="401.87" y="-1048" font-family="Arial" font-size="14.00" fill="#666666">[integer]</text>
<polygon fill="none" stroke="black" points="380.08,-1005 380.08,-1035.8 633.76,-1035.8 633.76,-1005 380.08,-1005"/>
<text text-anchor="start" x="387.08" y="-1017.2" font-family="Arial" font-size="14.00">disaster_id </text>
<text text-anchor="start" x="458.68" y="-1017.2" font-family="Arial" font-size="14.00" fill="#666666">[uuid]</text>
<polygon fill="none" stroke="black" points="380.08,-974.2 380.08,-1005 633.76,-1005 633.76,-974.2 380.08,-974.2"/>
<text text-anchor="start" x="387.08" y="-986.4" font-family="Arial" font-size="14.00">data_type </text>
<text text-anchor="start" x="452.47" y="-986.4" font-family="Arial" font-size="14.00" fill="#666666">[varchar(50)]</text>
<polygon fill="none" stroke="black" points="380.08,-943.4 380.08,-974.2 633.76,-974.2 633.76,-943.4 380.08,-943.4"/>
<text text-anchor="start" x="387.08" y="-955.6" font-family="Arial" font-size="14.00">name </text>
<text text-anchor="start" x="425.99" y="-955.6" font-family="Arial" font-size="14.00" fill="#666666">[varchar(100)]</text>
<polygon fill="none" stroke="black" points="380.08,-912.6 380.08,-943.4 633.76,-943.4 633.76,-912.6 380.08,-912.6"/>
<text text-anchor="start" x="387.08" y="-924.8" font-family="Arial" font-size="14.00">description </text>
<text text-anchor="start" x="458.68" y="-924.8" font-family="Arial" font-size="14.00" fill="#666666">[text]</text>
<polygon fill="none" stroke="black" points="380.08,-881.8 380.08,-912.6 633.76,-912.6 633.76,-881.8 380.08,-881.8"/>
<text text-anchor="start" x="387.08" y="-894" font-family="Arial" font-size="14.00">geometry_type </text>
<text text-anchor="start" x="483.58" y="-894" font-family="Arial" font-size="14.00" fill="#666666">[varchar(20)]</text>
<polygon fill="none" stroke="black" points="380.08,-851 380.08,-881.8 633.76,-881.8 633.76,-851 380.08,-851"/>
<text text-anchor="start" x="387.08" y="-863.2" font-family="Arial" font-size="14.00">geometry_data </text>
<text text-anchor="start" x="484.37" y="-863.2" font-family="Arial" font-size="14.00" fill="#666666">[text]</text>
<polygon fill="none" stroke="black" points="380.08,-820.2 380.08,-851 633.76,-851 633.76,-820.2 380.08,-820.2"/>
<text text-anchor="start" x="387.08" y="-832.4" font-family="Arial" font-size="14.00">properties </text>
<text text-anchor="start" x="453.23" y="-832.4" font-family="Arial" font-size="14.00" fill="#666666">[jsonb]</text>
<polygon fill="none" stroke="black" points="380.08,-789.4 380.08,-820.2 633.76,-820.2 633.76,-789.4 380.08,-789.4"/>
<text text-anchor="start" x="387.08" y="-801.6" font-family="Arial" font-size="14.00">created_by </text>
<text text-anchor="start" x="460.24" y="-801.6" font-family="Arial" font-size="14.00" fill="#666666">[uuid]</text>
<polygon fill="none" stroke="black" points="380.08,-758.6 380.08,-789.4 633.76,-789.4 633.76,-758.6 380.08,-758.6"/>
<text text-anchor="start" x="387.08" y="-770.8" font-family="Arial" font-size="14.00">created_at </text>
<text text-anchor="start" x="457.13" y="-770.8" font-family="Arial" font-size="14.00" fill="#666666">[timestamp with time zone]</text>
<polygon fill="none" stroke="black" points="380.08,-727.8 380.08,-758.6 633.76,-758.6 633.76,-727.8 380.08,-727.8"/>
<text text-anchor="start" x="387.08" y="-740" font-family="Arial" font-size="14.00">updated_at </text>
<text text-anchor="start" x="461.04" y="-740" font-family="Arial" font-size="14.00" fill="#666666">[timestamp with time zone]</text>
<polygon fill="none" stroke="black" points="380.08,-697 380.08,-727.8 633.76,-727.8 633.76,-697 380.08,-697"/>
<text text-anchor="start" x="387.08" y="-709.2" font-family="Arial" font-size="14.00">deleted_at </text>
<text text-anchor="start" x="456.37" y="-709.2" font-family="Arial" font-size="14.00" fill="#666666">[timestamp with time zone]</text>
<polygon fill="none" stroke="black" stroke-width="3" points="378.58,-695.5 378.58,-1103.7 635.26,-1103.7 635.26,-695.5 378.58,-695.5"/>
</g>
<!-- public.disasters -->
<g id="node2" class="node">
<title>public.disasters</title>
<polygon fill="#efefef" stroke="none" points="157.13,-536 157.13,-571.6 442.72,-571.6 442.72,-536 157.13,-536"/>
<polygon fill="none" stroke="black" points="157.13,-536 157.13,-571.6 442.72,-571.6 442.72,-536 157.13,-536"/>
<text text-anchor="start" x="181.94" y="-549.4" font-family="Arial Bold" font-size="18.00">public.disasters</text>
<text text-anchor="start" x="293.42" y="-549.4" font-family="Arial" font-size="14.00">    </text>
<text text-anchor="start" x="324.54" y="-549.4" font-family="Arial" font-size="14.00" fill="#666666">[BASE TABLE]</text>
<polygon fill="none" stroke="black" points="157.13,-505.2 157.13,-536 442.72,-536 442.72,-505.2 157.13,-505.2"/>
<text text-anchor="start" x="164.13" y="-517.4" font-family="Arial" font-size="14.00">id </text>
<text text-anchor="start" x="178.91" y="-517.4" font-family="Arial" font-size="14.00" fill="#666666">[uuid]</text>
<polygon fill="none" stroke="black" points="157.13,-474.4 157.13,-505.2 442.72,-505.2 442.72,-474.4 157.13,-474.4"/>
<text text-anchor="start" x="164.13" y="-486.6" font-family="Arial" font-size="14.00">name </text>
<text text-anchor="start" x="203.04" y="-486.6" font-family="Arial" font-size="14.00" fill="#666666">[varchar(100)]</text>
<polygon fill="none" stroke="black" points="157.13,-443.6 157.13,-474.4 442.72,-474.4 442.72,-443.6 157.13,-443.6"/>
<text text-anchor="start" x="164.13" y="-455.8" font-family="Arial" font-size="14.00">municipality_id </text>
<text text-anchor="start" x="259.84" y="-455.8" font-family="Arial" font-size="14.00" fill="#666666">[integer]</text>
<polygon fill="none" stroke="black" points="157.13,-412.8 157.13,-443.6 442.72,-443.6 442.72,-412.8 157.13,-412.8"/>
<text text-anchor="start" x="164.13" y="-425" font-family="Arial" font-size="14.00">occurred_at </text>
<text text-anchor="start" x="241.95" y="-425" font-family="Arial" font-size="14.00" fill="#666666">[timestamp with time zone]</text>
<polygon fill="none" stroke="black" points="157.13,-382 157.13,-412.8 442.72,-412.8 442.72,-382 157.13,-382"/>
<text text-anchor="start" x="164.13" y="-394.2" font-family="Arial" font-size="14.00">summary </text>
<text text-anchor="start" x="225.58" y="-394.2" font-family="Arial" font-size="14.00" fill="#666666">[text]</text>
<polygon fill="none" stroke="black" points="157.13,-351.2 157.13,-382 442.72,-382 442.72,-351.2 157.13,-351.2"/>
<text text-anchor="start" x="164.13" y="-363.4" font-family="Arial" font-size="14.00">work_category_id </text>
<text text-anchor="start" x="277.74" y="-363.4" font-family="Arial" font-size="14.00" fill="#666666">[bigint]</text>
<polygon fill="none" stroke="black" points="157.13,-320.4 157.13,-351.2 442.72,-351.2 442.72,-320.4 157.13,-320.4"/>
<text text-anchor="start" x="164.13" y="-332.6" font-family="Arial" font-size="14.00">status </text>
<text text-anchor="start" x="205.37" y="-332.6" font-family="Arial" font-size="14.00" fill="#666666">[disaster_status]</text>
<polygon fill="none" stroke="black" points="157.13,-289.6 157.13,-320.4 442.72,-320.4 442.72,-289.6 157.13,-289.6"/>
<text text-anchor="start" x="164.13" y="-301.8" font-family="Arial" font-size="14.00">affected_area_size </text>
<text text-anchor="start" x="286.32" y="-301.8" font-family="Arial" font-size="14.00" fill="#666666">[numeric(10,2)]</text>
<polygon fill="none" stroke="black" points="157.13,-258.8 157.13,-289.6 442.72,-289.6 442.72,-258.8 157.13,-258.8"/>
<text text-anchor="start" x="164.13" y="-271" font-family="Arial" font-size="14.00">estimated_damage_amount </text>
<text text-anchor="start" x="341.58" y="-271" font-family="Arial" font-size="14.00" fill="#666666">[numeric(15,2)]</text>
<polygon fill="none" stroke="black" points="157.13,-228 157.13,-258.8 442.72,-258.8 442.72,-228 157.13,-228"/>
<text text-anchor="start" x="164.13" y="-240.2" font-family="Arial" font-size="14.00">latitude </text>
<text text-anchor="start" x="213.16" y="-240.2" font-family="Arial" font-size="14.00" fill="#666666">[numeric(10,8)]</text>
<polygon fill="none" stroke="black" points="157.13,-197.2 157.13,-228 442.72,-228 442.72,-197.2 157.13,-197.2"/>
<text text-anchor="start" x="164.13" y="-209.4" font-family="Arial" font-size="14.00">longitude </text>
<text text-anchor="start" x="224.84" y="-209.4" font-family="Arial" font-size="14.00" fill="#666666">[numeric(11,8)]</text>
<polygon fill="none" stroke="black" points="157.13,-166.4 157.13,-197.2 442.72,-197.2 442.72,-166.4 157.13,-166.4"/>
<text text-anchor="start" x="164.13" y="-178.6" font-family="Arial" font-size="14.00">address </text>
<text text-anchor="start" x="217.82" y="-178.6" font-family="Arial" font-size="14.00" fill="#666666">[text]</text>
<polygon fill="none" stroke="black" points="157.13,-135.6 157.13,-166.4 442.72,-166.4 442.72,-135.6 157.13,-135.6"/>
<text text-anchor="start" x="164.13" y="-147.8" font-family="Arial" font-size="14.00">place_id </text>
<text text-anchor="start" x="220.17" y="-147.8" font-family="Arial" font-size="14.00" fill="#666666">[varchar(255)]</text>
<polygon fill="none" stroke="black" points="157.13,-104.8 157.13,-135.6 442.72,-135.6 442.72,-104.8 157.13,-104.8"/>
<text text-anchor="start" x="164.13" y="-117" font-family="Arial" font-size="14.00">created_at </text>
<text text-anchor="start" x="234.18" y="-117" font-family="Arial" font-size="14.00" fill="#666666">[timestamp with time zone]</text>
<polygon fill="none" stroke="black" points="157.13,-74 157.13,-104.8 442.72,-104.8 442.72,-74 157.13,-74"/>
<text text-anchor="start" x="164.13" y="-86.2" font-family="Arial" font-size="14.00">updated_at </text>
<text text-anchor="start" x="238.09" y="-86.2" font-family="Arial" font-size="14.00" fill="#666666">[timestamp with time zone]</text>
<polygon fill="none" stroke="black" points="157.13,-43.2 157.13,-74 442.72,-74 442.72,-43.2 157.13,-43.2"/>
<text text-anchor="start" x="164.13" y="-55.4" font-family="Arial" font-size="14.00">deleted_at </text>
<text text-anchor="start" x="233.41" y="-55.4" font-family="Arial" font-size="14.00" fill="#666666">[timestamp with time zone]</text>
</g>
<!-- public.gis_data&#45;&gt;public.disasters -->
<g id="edge1" class="edge">
<title>public.gis_data:disaster_id&#45;&gt;public.disasters:id</title>
<path fill="none" stroke="black" d="M368.84,-1020.09C218.37,-1010.66 299.39,-789.82 380.08,-650.8 396.2,-623.03 426.49,-642.51 442.72,-614.8 463.88,-578.67 485.59,-520.6 443.72,-520.6"/>
<polygon fill="black" stroke="black" points="368.75,-1020.09 378.61,-1024.89 374.09,-1020.25 378.41,-1020.38 378.41,-1020.38 378.41,-1020.38 374.09,-1020.25 378.89,-1015.89 368.75,-1020.09"/>
<text text-anchor="start" x="7" y="-1030.4" font-family="Arial" font-size="10.00">FOREIGN KEY (disaster_id) REFERENCES disasters(id) ON DELETE CASCADE</text>
</g>
<!-- public.users -->
<g id="node3" class="node">
<title>public.users</title>
<polygon fill="#efefef" stroke="none" points="547.25,-536 547.25,-571.6 882.6,-571.6 882.6,-536 547.25,-536"/>
<polygon fill="none" stroke="black" points="547.25,-536 547.25,-571.6 882.6,-571.6 882.6,-536 547.25,-536"/>
<text text-anchor="start" x="609.44" y="-549.4" font-family="Arial Bold" font-size="18.00">public.users</text>
<text text-anchor="start" x="695.92" y="-549.4" font-family="Arial" font-size="14.00">    </text>
<text text-anchor="start" x="727.04" y="-549.4" font-family="Arial" font-size="14.00" fill="#666666">[BASE TABLE]</text>
<polygon fill="none" stroke="black" points="547.25,-505.2 547.25,-536 882.6,-536 882.6,-505.2 547.25,-505.2"/>
<text text-anchor="start" x="554.25" y="-517.4" font-family="Arial" font-size="14.00">id </text>
<text text-anchor="start" x="569.03" y="-517.4" font-family="Arial" font-size="14.00" fill="#666666">[uuid]</text>
<polygon fill="none" stroke="black" points="547.25,-474.4 547.25,-505.2 882.6,-505.2 882.6,-474.4 547.25,-474.4"/>
<text text-anchor="start" x="554.25" y="-486.6" font-family="Arial" font-size="14.00">name </text>
<text text-anchor="start" x="593.16" y="-486.6" font-family="Arial" font-size="14.00" fill="#666666">[varchar(255)]</text>
<polygon fill="none" stroke="black" points="547.25,-443.6 547.25,-474.4 882.6,-474.4 882.6,-443.6 547.25,-443.6"/>
<text text-anchor="start" x="554.25" y="-455.8" font-family="Arial" font-size="14.00">email </text>
<text text-anchor="start" x="591.59" y="-455.8" font-family="Arial" font-size="14.00" fill="#666666">[varchar(255)]</text>
<polygon fill="none" stroke="black" points="547.25,-412.8 547.25,-443.6 882.6,-443.6 882.6,-412.8 547.25,-412.8"/>
<text text-anchor="start" x="554.25" y="-425" font-family="Arial" font-size="14.00">password </text>
<text text-anchor="start" x="618.05" y="-425" font-family="Arial" font-size="14.00" fill="#666666">[varchar(255)]</text>
<polygon fill="none" stroke="black" points="547.25,-382 547.25,-412.8 882.6,-412.8 882.6,-382 547.25,-382"/>
<text text-anchor="start" x="554.25" y="-394.2" font-family="Arial" font-size="14.00">organization_id </text>
<text text-anchor="start" x="653.09" y="-394.2" font-family="Arial" font-size="14.00" fill="#666666">[integer]</text>
<polygon fill="none" stroke="black" points="547.25,-351.2 547.25,-382 882.6,-382 882.6,-351.2 547.25,-351.2"/>
<text text-anchor="start" x="554.25" y="-363.4" font-family="Arial" font-size="14.00">role_id </text>
<text text-anchor="start" x="600.16" y="-363.4" font-family="Arial" font-size="14.00" fill="#666666">[smallint]</text>
<polygon fill="none" stroke="black" points="547.25,-320.4 547.25,-351.2 882.6,-351.2 882.6,-320.4 547.25,-320.4"/>
<text text-anchor="start" x="554.25" y="-332.6" font-family="Arial" font-size="14.00">is_active </text>
<text text-anchor="start" x="612.6" y="-332.6" font-family="Arial" font-size="14.00" fill="#666666">[boolean]</text>
<polygon fill="none" stroke="black" points="547.25,-289.6 547.25,-320.4 882.6,-320.4 882.6,-289.6 547.25,-289.6"/>
<text text-anchor="start" x="554.25" y="-301.8" font-family="Arial" font-size="14.00">email_verified </text>
<text text-anchor="start" x="644.51" y="-301.8" font-family="Arial" font-size="14.00" fill="#666666">[boolean]</text>
<polygon fill="none" stroke="black" points="547.25,-258.8 547.25,-289.6 882.6,-289.6 882.6,-258.8 547.25,-258.8"/>
<text text-anchor="start" x="554.25" y="-271" font-family="Arial" font-size="14.00">mfa_enabled </text>
<text text-anchor="start" x="639.09" y="-271" font-family="Arial" font-size="14.00" fill="#666666">[boolean]</text>
<polygon fill="none" stroke="black" points="547.25,-228 547.25,-258.8 882.6,-258.8 882.6,-228 547.25,-228"/>
<text text-anchor="start" x="554.25" y="-240.2" font-family="Arial" font-size="14.00">mfa_secret </text>
<text text-anchor="start" x="627.38" y="-240.2" font-family="Arial" font-size="14.00" fill="#666666">[varchar(255)]</text>
<polygon fill="none" stroke="black" points="547.25,-197.2 547.25,-228 882.6,-228 882.6,-197.2 547.25,-197.2"/>
<text text-anchor="start" x="554.25" y="-209.4" font-family="Arial" font-size="14.00">password_reset_token </text>
<text text-anchor="start" x="699" y="-209.4" font-family="Arial" font-size="14.00" fill="#666666">[varchar(255)]</text>
<polygon fill="none" stroke="black" points="547.25,-166.4 547.25,-197.2 882.6,-197.2 882.6,-166.4 547.25,-166.4"/>
<text text-anchor="start" x="554.25" y="-178.6" font-family="Arial" font-size="14.00">password_reset_expires </text>
<text text-anchor="start" x="709.88" y="-178.6" font-family="Arial" font-size="14.00" fill="#666666">[timestamp with time zone]</text>
<polygon fill="none" stroke="black" points="547.25,-135.6 547.25,-166.4 882.6,-166.4 882.6,-135.6 547.25,-135.6"/>
<text text-anchor="start" x="554.25" y="-147.8" font-family="Arial" font-size="14.00">last_password_change </text>
<text text-anchor="start" x="701.34" y="-147.8" font-family="Arial" font-size="14.00" fill="#666666">[timestamp with time zone]</text>
<polygon fill="none" stroke="black" points="547.25,-104.8 547.25,-135.6 882.6,-135.6 882.6,-104.8 547.25,-104.8"/>
<text text-anchor="start" x="554.25" y="-117" font-family="Arial" font-size="14.00">created_at </text>
<text text-anchor="start" x="624.29" y="-117" font-family="Arial" font-size="14.00" fill="#666666">[timestamp with time zone]</text>
<polygon fill="none" stroke="black" points="547.25,-74 547.25,-104.8 882.6,-104.8 882.6,-74 547.25,-74"/>
<text text-anchor="start" x="554.25" y="-86.2" font-family="Arial" font-size="14.00">updated_at </text>
<text text-anchor="start" x="628.2" y="-86.2" font-family="Arial" font-size="14.00" fill="#666666">[timestamp with time zone]</text>
<polygon fill="none" stroke="black" points="547.25,-43.2 547.25,-74 882.6,-74 882.6,-43.2 547.25,-43.2"/>
<text text-anchor="start" x="554.25" y="-55.4" font-family="Arial" font-size="14.00">deleted_at </text>
<text text-anchor="start" x="623.53" y="-55.4" font-family="Arial" font-size="14.00" fill="#666666">[timestamp with time zone]</text>
</g>
<!-- public.gis_data&#45;&gt;public.users -->
<g id="edge2" class="edge">
<title>public.gis_data:created_by&#45;&gt;public.users:id</title>
<path fill="none" stroke="black" d="M645.11,-803.95C699.77,-794.29 669.84,-704.51 633.76,-650.8 610.54,-616.23 570.54,-649.33 547.25,-614.8 523.83,-580.09 504.38,-520.6 546.25,-520.6"/>
<polygon fill="black" stroke="black" points="645.06,-803.95 634.73,-800.29 639.75,-804.39 635.43,-804.75 635.43,-804.75 635.43,-804.75 639.75,-804.39 635.47,-809.26 645.06,-803.95"/>
<text text-anchor="start" x="641.76" y="-814.8" font-family="Arial" font-size="10.00">FOREIGN KEY (created_by) REFERENCES users(id)</text>
</g>
</g>
</svg>
