<?xml version="1.0" encoding="UTF-8" standalone="no"?>
<!DOCTYPE svg PUBLIC "-//W3C//DTD SVG 1.1//EN"
 "http://www.w3.org/Graphics/SVG/1.1/DTD/svg11.dtd">
<!-- Generated by graphviz version 12.1.2 (20240928.0832)
 -->
<!-- Title: public.organizations Pages: 1 -->
<svg width="946pt" height="1033pt"
 viewBox="0.00 0.00 945.84 1033.20" xmlns="http://www.w3.org/2000/svg" xmlns:xlink="http://www.w3.org/1999/xlink">
<g id="graph0" class="graph" transform="scale(1 1) rotate(0) translate(4 1029.2)">
<title>public.organizations</title>
<polygon fill="white" stroke="none" points="-4,4 -4,-1029.2 941.84,-1029.2 941.84,4 -4,4"/>
<!-- public.organizations -->
<g id="node1" class="node">
<title>public.organizations</title>
<polygon fill="#efefef" stroke="none" points="323.31,-292.6 323.31,-328.2 608.26,-328.2 608.26,-292.6 323.31,-292.6"/>
<polygon fill="none" stroke="black" points="323.31,-292.6 323.31,-328.2 608.26,-328.2 608.26,-292.6 323.31,-292.6"/>
<text text-anchor="start" x="330.31" y="-306" font-family="Arial Bold" font-size="18.00">public.organizations</text>
<text text-anchor="start" x="476.77" y="-306" font-family="Arial" font-size="14.00">    </text>
<text text-anchor="start" x="507.89" y="-306" font-family="Arial" font-size="14.00" fill="#666666">[BASE TABLE]</text>
<polygon fill="none" stroke="black" points="323.31,-261.8 323.31,-292.6 608.26,-292.6 608.26,-261.8 323.31,-261.8"/>
<text text-anchor="start" x="330.31" y="-274" font-family="Arial" font-size="14.00">id </text>
<text text-anchor="start" x="345.1" y="-274" font-family="Arial" font-size="14.00" fill="#666666">[bigint]</text>
<polygon fill="none" stroke="black" points="323.31,-231 323.31,-261.8 608.26,-261.8 608.26,-231 323.31,-231"/>
<text text-anchor="start" x="330.31" y="-243.2" font-family="Arial" font-size="14.00">name </text>
<text text-anchor="start" x="369.22" y="-243.2" font-family="Arial" font-size="14.00" fill="#666666">[varchar(64)]</text>
<polygon fill="none" stroke="black" points="323.31,-200.2 323.31,-231 608.26,-231 608.26,-200.2 323.31,-200.2"/>
<text text-anchor="start" x="330.31" y="-212.4" font-family="Arial" font-size="14.00">type </text>
<text text-anchor="start" x="360.66" y="-212.4" font-family="Arial" font-size="14.00" fill="#666666">[varchar(50)]</text>
<polygon fill="none" stroke="black" points="323.31,-169.4 323.31,-200.2 608.26,-200.2 608.26,-169.4 323.31,-169.4"/>
<text text-anchor="start" x="330.31" y="-181.6" font-family="Arial" font-size="14.00">parent_id </text>
<text text-anchor="start" x="392.58" y="-181.6" font-family="Arial" font-size="14.00" fill="#666666">[integer]</text>
<polygon fill="none" stroke="black" points="323.31,-138.6 323.31,-169.4 608.26,-169.4 608.26,-138.6 323.31,-138.6"/>
<text text-anchor="start" x="330.31" y="-150.8" font-family="Arial" font-size="14.00">sort_order </text>
<text text-anchor="start" x="398.01" y="-150.8" font-family="Arial" font-size="14.00" fill="#666666">[integer]</text>
<polygon fill="none" stroke="black" points="323.31,-107.8 323.31,-138.6 608.26,-138.6 608.26,-107.8 323.31,-107.8"/>
<text text-anchor="start" x="330.31" y="-120" font-family="Arial" font-size="14.00">is_active </text>
<text text-anchor="start" x="388.67" y="-120" font-family="Arial" font-size="14.00" fill="#666666">[boolean]</text>
<polygon fill="none" stroke="black" points="323.31,-77 323.31,-107.8 608.26,-107.8 608.26,-77 323.31,-77"/>
<text text-anchor="start" x="330.31" y="-89.2" font-family="Arial" font-size="14.00">created_at </text>
<text text-anchor="start" x="400.36" y="-89.2" font-family="Arial" font-size="14.00" fill="#666666">[timestamp with time zone]</text>
<polygon fill="none" stroke="black" points="323.31,-46.2 323.31,-77 608.26,-77 608.26,-46.2 323.31,-46.2"/>
<text text-anchor="start" x="330.31" y="-58.4" font-family="Arial" font-size="14.00">updated_at </text>
<text text-anchor="start" x="404.27" y="-58.4" font-family="Arial" font-size="14.00" fill="#666666">[timestamp with time zone]</text>
<polygon fill="none" stroke="black" stroke-width="3" points="321.81,-44.7 321.81,-329.7 609.76,-329.7 609.76,-44.7 321.81,-44.7"/>
</g>
<!-- public.organizations&#45;&gt;public.organizations -->
<g id="edge1" class="edge">
<title>public.organizations:parent_id&#45;&gt;public.organizations:id</title>
<path fill="none" stroke="black" d="M467.14,-210.01C474.76,-367.02 474.31,-639.7 465.79,-639.7 457.09,-639.7 456.8,-441.86 464.92,-292.42"/>
<polygon fill="black" stroke="black" points="467.15,-210.17 471.14,-199.95 466.88,-204.84 466.66,-200.51 466.66,-200.51 466.66,-200.51 466.88,-204.84 462.15,-200.41 467.15,-210.17"/>
<text text-anchor="start" x="192.32" y="-209.84" font-family="Arial" font-size="10.00">FOREIGN KEY (parent_id) REFERENCES organizations(id)</text>
</g>
<!-- public.users -->
<g id="node2" class="node">
<title>public.users</title>
<polygon fill="#efefef" stroke="none" points="81.11,-946.4 81.11,-982 416.47,-982 416.47,-946.4 81.11,-946.4"/>
<polygon fill="none" stroke="black" points="81.11,-946.4 81.11,-982 416.47,-982 416.47,-946.4 81.11,-946.4"/>
<text text-anchor="start" x="143.3" y="-959.8" font-family="Arial Bold" font-size="18.00">public.users</text>
<text text-anchor="start" x="229.79" y="-959.8" font-family="Arial" font-size="14.00">    </text>
<text text-anchor="start" x="260.9" y="-959.8" font-family="Arial" font-size="14.00" fill="#666666">[BASE TABLE]</text>
<polygon fill="none" stroke="black" points="81.11,-915.6 81.11,-946.4 416.47,-946.4 416.47,-915.6 81.11,-915.6"/>
<text text-anchor="start" x="88.11" y="-927.8" font-family="Arial" font-size="14.00">id </text>
<text text-anchor="start" x="102.9" y="-927.8" font-family="Arial" font-size="14.00" fill="#666666">[uuid]</text>
<polygon fill="none" stroke="black" points="81.11,-884.8 81.11,-915.6 416.47,-915.6 416.47,-884.8 81.11,-884.8"/>
<text text-anchor="start" x="88.11" y="-897" font-family="Arial" font-size="14.00">name </text>
<text text-anchor="start" x="127.02" y="-897" font-family="Arial" font-size="14.00" fill="#666666">[varchar(255)]</text>
<polygon fill="none" stroke="black" points="81.11,-854 81.11,-884.8 416.47,-884.8 416.47,-854 81.11,-854"/>
<text text-anchor="start" x="88.11" y="-866.2" font-family="Arial" font-size="14.00">email </text>
<text text-anchor="start" x="125.45" y="-866.2" font-family="Arial" font-size="14.00" fill="#666666">[varchar(255)]</text>
<polygon fill="none" stroke="black" points="81.11,-823.2 81.11,-854 416.47,-854 416.47,-823.2 81.11,-823.2"/>
<text text-anchor="start" x="88.11" y="-835.4" font-family="Arial" font-size="14.00">password </text>
<text text-anchor="start" x="151.92" y="-835.4" font-family="Arial" font-size="14.00" fill="#666666">[varchar(255)]</text>
<polygon fill="none" stroke="black" points="81.11,-792.4 81.11,-823.2 416.47,-823.2 416.47,-792.4 81.11,-792.4"/>
<text text-anchor="start" x="88.11" y="-804.6" font-family="Arial" font-size="14.00">organization_id </text>
<text text-anchor="start" x="186.96" y="-804.6" font-family="Arial" font-size="14.00" fill="#666666">[integer]</text>
<polygon fill="none" stroke="black" points="81.11,-761.6 81.11,-792.4 416.47,-792.4 416.47,-761.6 81.11,-761.6"/>
<text text-anchor="start" x="88.11" y="-773.8" font-family="Arial" font-size="14.00">role_id </text>
<text text-anchor="start" x="134.03" y="-773.8" font-family="Arial" font-size="14.00" fill="#666666">[smallint]</text>
<polygon fill="none" stroke="black" points="81.11,-730.8 81.11,-761.6 416.47,-761.6 416.47,-730.8 81.11,-730.8"/>
<text text-anchor="start" x="88.11" y="-743" font-family="Arial" font-size="14.00">is_active </text>
<text text-anchor="start" x="146.47" y="-743" font-family="Arial" font-size="14.00" fill="#666666">[boolean]</text>
<polygon fill="none" stroke="black" points="81.11,-700 81.11,-730.8 416.47,-730.8 416.47,-700 81.11,-700"/>
<text text-anchor="start" x="88.11" y="-712.2" font-family="Arial" font-size="14.00">email_verified </text>
<text text-anchor="start" x="178.37" y="-712.2" font-family="Arial" font-size="14.00" fill="#666666">[boolean]</text>
<polygon fill="none" stroke="black" points="81.11,-669.2 81.11,-700 416.47,-700 416.47,-669.2 81.11,-669.2"/>
<text text-anchor="start" x="88.11" y="-681.4" font-family="Arial" font-size="14.00">mfa_enabled </text>
<text text-anchor="start" x="172.95" y="-681.4" font-family="Arial" font-size="14.00" fill="#666666">[boolean]</text>
<polygon fill="none" stroke="black" points="81.11,-638.4 81.11,-669.2 416.47,-669.2 416.47,-638.4 81.11,-638.4"/>
<text text-anchor="start" x="88.11" y="-650.6" font-family="Arial" font-size="14.00">mfa_secret </text>
<text text-anchor="start" x="161.25" y="-650.6" font-family="Arial" font-size="14.00" fill="#666666">[varchar(255)]</text>
<polygon fill="none" stroke="black" points="81.11,-607.6 81.11,-638.4 416.47,-638.4 416.47,-607.6 81.11,-607.6"/>
<text text-anchor="start" x="88.11" y="-619.8" font-family="Arial" font-size="14.00">password_reset_token </text>
<text text-anchor="start" x="232.86" y="-619.8" font-family="Arial" font-size="14.00" fill="#666666">[varchar(255)]</text>
<polygon fill="none" stroke="black" points="81.11,-576.8 81.11,-607.6 416.47,-607.6 416.47,-576.8 81.11,-576.8"/>
<text text-anchor="start" x="88.11" y="-589" font-family="Arial" font-size="14.00">password_reset_expires </text>
<text text-anchor="start" x="243.74" y="-589" font-family="Arial" font-size="14.00" fill="#666666">[timestamp with time zone]</text>
<polygon fill="none" stroke="black" points="81.11,-546 81.11,-576.8 416.47,-576.8 416.47,-546 81.11,-546"/>
<text text-anchor="start" x="88.11" y="-558.2" font-family="Arial" font-size="14.00">last_password_change </text>
<text text-anchor="start" x="235.21" y="-558.2" font-family="Arial" font-size="14.00" fill="#666666">[timestamp with time zone]</text>
<polygon fill="none" stroke="black" points="81.11,-515.2 81.11,-546 416.47,-546 416.47,-515.2 81.11,-515.2"/>
<text text-anchor="start" x="88.11" y="-527.4" font-family="Arial" font-size="14.00">created_at </text>
<text text-anchor="start" x="158.16" y="-527.4" font-family="Arial" font-size="14.00" fill="#666666">[timestamp with time zone]</text>
<polygon fill="none" stroke="black" points="81.11,-484.4 81.11,-515.2 416.47,-515.2 416.47,-484.4 81.11,-484.4"/>
<text text-anchor="start" x="88.11" y="-496.6" font-family="Arial" font-size="14.00">updated_at </text>
<text text-anchor="start" x="162.07" y="-496.6" font-family="Arial" font-size="14.00" fill="#666666">[timestamp with time zone]</text>
<polygon fill="none" stroke="black" points="81.11,-453.6 81.11,-484.4 416.47,-484.4 416.47,-453.6 81.11,-453.6"/>
<text text-anchor="start" x="88.11" y="-465.8" font-family="Arial" font-size="14.00">deleted_at </text>
<text text-anchor="start" x="157.39" y="-465.8" font-family="Arial" font-size="14.00" fill="#666666">[timestamp with time zone]</text>
</g>
<!-- public.users&#45;&gt;public.organizations -->
<g id="edge2" class="edge">
<title>public.users:organization_id&#45;&gt;public.organizations:id</title>
<path fill="none" stroke="black" d="M426.05,-802.4C458.69,-757.32 439.67,-444.16 416.47,-410.4 391.32,-373.82 348.6,-410.88 323.31,-374.4 298.7,-338.89 279.11,-277.2 322.31,-277.2"/>
<polygon fill="black" stroke="black" points="426.22,-802.3 415.36,-803.81 421.7,-805.14 418.03,-807.44 418.03,-807.44 418.03,-807.44 421.7,-805.14 420.14,-811.43 426.22,-802.3"/>
<text text-anchor="start" x="7" y="-817.8" font-family="Arial" font-size="10.00">FOREIGN KEY (organization_id) REFERENCES organizations(id) ON DELETE SET NULL</text>
</g>
<!-- public.user_organizations -->
<g id="node3" class="node">
<title>public.user_organizations</title>
<polygon fill="#efefef" stroke="none" points="520.82,-777 520.82,-812.6 844.76,-812.6 844.76,-777 520.82,-777"/>
<polygon fill="none" stroke="black" points="520.82,-777 520.82,-812.6 844.76,-812.6 844.76,-777 520.82,-777"/>
<text text-anchor="start" x="527.82" y="-790.4" font-family="Arial Bold" font-size="18.00">public.user_organizations</text>
<text text-anchor="start" x="713.27" y="-790.4" font-family="Arial" font-size="14.00">    </text>
<text text-anchor="start" x="744.39" y="-790.4" font-family="Arial" font-size="14.00" fill="#666666">[BASE TABLE]</text>
<polygon fill="none" stroke="black" points="520.82,-746.2 520.82,-777 844.76,-777 844.76,-746.2 520.82,-746.2"/>
<text text-anchor="start" x="527.82" y="-758.4" font-family="Arial" font-size="14.00">user_id </text>
<text text-anchor="start" x="577.63" y="-758.4" font-family="Arial" font-size="14.00" fill="#666666">[uuid]</text>
<polygon fill="none" stroke="black" points="520.82,-715.4 520.82,-746.2 844.76,-746.2 844.76,-715.4 520.82,-715.4"/>
<text text-anchor="start" x="527.82" y="-727.6" font-family="Arial" font-size="14.00">organization_id </text>
<text text-anchor="start" x="626.67" y="-727.6" font-family="Arial" font-size="14.00" fill="#666666">[integer]</text>
<polygon fill="none" stroke="black" points="520.82,-684.6 520.82,-715.4 844.76,-715.4 844.76,-684.6 520.82,-684.6"/>
<text text-anchor="start" x="527.82" y="-696.8" font-family="Arial" font-size="14.00">is_primary </text>
<text text-anchor="start" x="596.27" y="-696.8" font-family="Arial" font-size="14.00" fill="#666666">[boolean]</text>
<polygon fill="none" stroke="black" points="520.82,-653.8 520.82,-684.6 844.76,-684.6 844.76,-653.8 520.82,-653.8"/>
<text text-anchor="start" x="527.82" y="-666" font-family="Arial" font-size="14.00">created_at </text>
<text text-anchor="start" x="597.87" y="-666" font-family="Arial" font-size="14.00" fill="#666666">[timestamp with time zone]</text>
<polygon fill="none" stroke="black" points="520.82,-623 520.82,-653.8 844.76,-653.8 844.76,-623 520.82,-623"/>
<text text-anchor="start" x="527.82" y="-635.2" font-family="Arial" font-size="14.00">updated_at </text>
<text text-anchor="start" x="601.78" y="-635.2" font-family="Arial" font-size="14.00" fill="#666666">[timestamp with time zone]</text>
</g>
<!-- public.user_organizations&#45;&gt;public.organizations -->
<g id="edge3" class="edge">
<title>public.user_organizations:organization_id&#45;&gt;public.organizations:id</title>
<path fill="none" stroke="black" d="M509.63,-730.38C331.71,-714.99 811.13,-277.2 609.26,-277.2"/>
<polygon fill="black" stroke="black" points="509.49,-730.38 519.3,-735.28 514.82,-730.6 519.15,-730.77 519.15,-730.77 519.15,-730.77 514.82,-730.6 519.67,-726.29 509.49,-730.38"/>
<text text-anchor="start" x="526.82" y="-740.8" font-family="Arial" font-size="10.00">FOREIGN KEY (organization_id) REFERENCES organizations(id) ON DELETE CASCADE</text>
</g>
</g>
</svg>
