<?xml version="1.0" encoding="UTF-8" standalone="no"?>
<!DOCTYPE svg PUBLIC "-//W3C//DTD SVG 1.1//EN"
 "http://www.w3.org/Graphics/SVG/1.1/DTD/svg11.dtd">
<!-- Generated by graphviz version 12.1.2 (20240928.0832)
 -->
<!-- Title: public.user_roles Pages: 1 -->
<svg width="962pt" height="910pt"
 viewBox="0.00 0.00 962.32 910.00" xmlns="http://www.w3.org/2000/svg" xmlns:xlink="http://www.w3.org/1999/xlink">
<g id="graph0" class="graph" transform="scale(1 1) rotate(0) translate(4 906)">
<title>public.user_roles</title>
<polygon fill="white" stroke="none" points="-4,4 -4,-906 958.32,-906 958.32,4 -4,4"/>
<!-- public.user_roles -->
<g id="node1" class="node">
<title>public.user_roles</title>
<polygon fill="#efefef" stroke="none" points="348.96,-820.2 348.96,-855.8 610.92,-855.8 610.92,-820.2 348.96,-820.2"/>
<polygon fill="none" stroke="black" points="348.96,-820.2 348.96,-855.8 610.92,-855.8 610.92,-820.2 348.96,-820.2"/>
<text text-anchor="start" x="355.96" y="-833.6" font-family="Arial Bold" font-size="18.00">public.user_roles</text>
<text text-anchor="start" x="479.43" y="-833.6" font-family="Arial" font-size="14.00">    </text>
<text text-anchor="start" x="510.55" y="-833.6" font-family="Arial" font-size="14.00" fill="#666666">[BASE TABLE]</text>
<polygon fill="none" stroke="black" points="348.96,-789.4 348.96,-820.2 610.92,-820.2 610.92,-789.4 348.96,-789.4"/>
<text text-anchor="start" x="355.96" y="-801.6" font-family="Arial" font-size="14.00">user_id </text>
<text text-anchor="start" x="405.77" y="-801.6" font-family="Arial" font-size="14.00" fill="#666666">[uuid]</text>
<polygon fill="none" stroke="black" points="348.96,-758.6 348.96,-789.4 610.92,-789.4 610.92,-758.6 348.96,-758.6"/>
<text text-anchor="start" x="355.96" y="-770.8" font-family="Arial" font-size="14.00">role_id </text>
<text text-anchor="start" x="401.88" y="-770.8" font-family="Arial" font-size="14.00" fill="#666666">[integer]</text>
<polygon fill="none" stroke="black" points="348.96,-727.8 348.96,-758.6 610.92,-758.6 610.92,-727.8 348.96,-727.8"/>
<text text-anchor="start" x="355.96" y="-740" font-family="Arial" font-size="14.00">created_at </text>
<text text-anchor="start" x="426.01" y="-740" font-family="Arial" font-size="14.00" fill="#666666">[timestamp with time zone]</text>
<polygon fill="none" stroke="black" points="348.96,-697 348.96,-727.8 610.92,-727.8 610.92,-697 348.96,-697"/>
<text text-anchor="start" x="355.96" y="-709.2" font-family="Arial" font-size="14.00">updated_at </text>
<text text-anchor="start" x="429.92" y="-709.2" font-family="Arial" font-size="14.00" fill="#666666">[timestamp with time zone]</text>
<polygon fill="none" stroke="black" stroke-width="3" points="347.46,-695.5 347.46,-857.3 612.42,-857.3 612.42,-695.5 347.46,-695.5"/>
</g>
<!-- public.users -->
<g id="node2" class="node">
<title>public.users</title>
<polygon fill="#efefef" stroke="none" points="113.26,-536 113.26,-571.6 448.62,-571.6 448.62,-536 113.26,-536"/>
<polygon fill="none" stroke="black" points="113.26,-536 113.26,-571.6 448.62,-571.6 448.62,-536 113.26,-536"/>
<text text-anchor="start" x="175.45" y="-549.4" font-family="Arial Bold" font-size="18.00">public.users</text>
<text text-anchor="start" x="261.94" y="-549.4" font-family="Arial" font-size="14.00">    </text>
<text text-anchor="start" x="293.05" y="-549.4" font-family="Arial" font-size="14.00" fill="#666666">[BASE TABLE]</text>
<polygon fill="none" stroke="black" points="113.26,-505.2 113.26,-536 448.62,-536 448.62,-505.2 113.26,-505.2"/>
<text text-anchor="start" x="120.26" y="-517.4" font-family="Arial" font-size="14.00">id </text>
<text text-anchor="start" x="135.05" y="-517.4" font-family="Arial" font-size="14.00" fill="#666666">[uuid]</text>
<polygon fill="none" stroke="black" points="113.26,-474.4 113.26,-505.2 448.62,-505.2 448.62,-474.4 113.26,-474.4"/>
<text text-anchor="start" x="120.26" y="-486.6" font-family="Arial" font-size="14.00">name </text>
<text text-anchor="start" x="159.17" y="-486.6" font-family="Arial" font-size="14.00" fill="#666666">[varchar(255)]</text>
<polygon fill="none" stroke="black" points="113.26,-443.6 113.26,-474.4 448.62,-474.4 448.62,-443.6 113.26,-443.6"/>
<text text-anchor="start" x="120.26" y="-455.8" font-family="Arial" font-size="14.00">email </text>
<text text-anchor="start" x="157.6" y="-455.8" font-family="Arial" font-size="14.00" fill="#666666">[varchar(255)]</text>
<polygon fill="none" stroke="black" points="113.26,-412.8 113.26,-443.6 448.62,-443.6 448.62,-412.8 113.26,-412.8"/>
<text text-anchor="start" x="120.26" y="-425" font-family="Arial" font-size="14.00">password </text>
<text text-anchor="start" x="184.07" y="-425" font-family="Arial" font-size="14.00" fill="#666666">[varchar(255)]</text>
<polygon fill="none" stroke="black" points="113.26,-382 113.26,-412.8 448.62,-412.8 448.62,-382 113.26,-382"/>
<text text-anchor="start" x="120.26" y="-394.2" font-family="Arial" font-size="14.00">organization_id </text>
<text text-anchor="start" x="219.11" y="-394.2" font-family="Arial" font-size="14.00" fill="#666666">[integer]</text>
<polygon fill="none" stroke="black" points="113.26,-351.2 113.26,-382 448.62,-382 448.62,-351.2 113.26,-351.2"/>
<text text-anchor="start" x="120.26" y="-363.4" font-family="Arial" font-size="14.00">role_id </text>
<text text-anchor="start" x="166.18" y="-363.4" font-family="Arial" font-size="14.00" fill="#666666">[smallint]</text>
<polygon fill="none" stroke="black" points="113.26,-320.4 113.26,-351.2 448.62,-351.2 448.62,-320.4 113.26,-320.4"/>
<text text-anchor="start" x="120.26" y="-332.6" font-family="Arial" font-size="14.00">is_active </text>
<text text-anchor="start" x="178.62" y="-332.6" font-family="Arial" font-size="14.00" fill="#666666">[boolean]</text>
<polygon fill="none" stroke="black" points="113.26,-289.6 113.26,-320.4 448.62,-320.4 448.62,-289.6 113.26,-289.6"/>
<text text-anchor="start" x="120.26" y="-301.8" font-family="Arial" font-size="14.00">email_verified </text>
<text text-anchor="start" x="210.52" y="-301.8" font-family="Arial" font-size="14.00" fill="#666666">[boolean]</text>
<polygon fill="none" stroke="black" points="113.26,-258.8 113.26,-289.6 448.62,-289.6 448.62,-258.8 113.26,-258.8"/>
<text text-anchor="start" x="120.26" y="-271" font-family="Arial" font-size="14.00">mfa_enabled </text>
<text text-anchor="start" x="205.1" y="-271" font-family="Arial" font-size="14.00" fill="#666666">[boolean]</text>
<polygon fill="none" stroke="black" points="113.26,-228 113.26,-258.8 448.62,-258.8 448.62,-228 113.26,-228"/>
<text text-anchor="start" x="120.26" y="-240.2" font-family="Arial" font-size="14.00">mfa_secret </text>
<text text-anchor="start" x="193.4" y="-240.2" font-family="Arial" font-size="14.00" fill="#666666">[varchar(255)]</text>
<polygon fill="none" stroke="black" points="113.26,-197.2 113.26,-228 448.62,-228 448.62,-197.2 113.26,-197.2"/>
<text text-anchor="start" x="120.26" y="-209.4" font-family="Arial" font-size="14.00">password_reset_token </text>
<text text-anchor="start" x="265.01" y="-209.4" font-family="Arial" font-size="14.00" fill="#666666">[varchar(255)]</text>
<polygon fill="none" stroke="black" points="113.26,-166.4 113.26,-197.2 448.62,-197.2 448.62,-166.4 113.26,-166.4"/>
<text text-anchor="start" x="120.26" y="-178.6" font-family="Arial" font-size="14.00">password_reset_expires </text>
<text text-anchor="start" x="275.89" y="-178.6" font-family="Arial" font-size="14.00" fill="#666666">[timestamp with time zone]</text>
<polygon fill="none" stroke="black" points="113.26,-135.6 113.26,-166.4 448.62,-166.4 448.62,-135.6 113.26,-135.6"/>
<text text-anchor="start" x="120.26" y="-147.8" font-family="Arial" font-size="14.00">last_password_change </text>
<text text-anchor="start" x="267.36" y="-147.8" font-family="Arial" font-size="14.00" fill="#666666">[timestamp with time zone]</text>
<polygon fill="none" stroke="black" points="113.26,-104.8 113.26,-135.6 448.62,-135.6 448.62,-104.8 113.26,-104.8"/>
<text text-anchor="start" x="120.26" y="-117" font-family="Arial" font-size="14.00">created_at </text>
<text text-anchor="start" x="190.31" y="-117" font-family="Arial" font-size="14.00" fill="#666666">[timestamp with time zone]</text>
<polygon fill="none" stroke="black" points="113.26,-74 113.26,-104.8 448.62,-104.8 448.62,-74 113.26,-74"/>
<text text-anchor="start" x="120.26" y="-86.2" font-family="Arial" font-size="14.00">updated_at </text>
<text text-anchor="start" x="194.22" y="-86.2" font-family="Arial" font-size="14.00" fill="#666666">[timestamp with time zone]</text>
<polygon fill="none" stroke="black" points="113.26,-43.2 113.26,-74 448.62,-74 448.62,-43.2 113.26,-43.2"/>
<text text-anchor="start" x="120.26" y="-55.4" font-family="Arial" font-size="14.00">deleted_at </text>
<text text-anchor="start" x="189.54" y="-55.4" font-family="Arial" font-size="14.00" fill="#666666">[timestamp with time zone]</text>
</g>
<!-- public.user_roles&#45;&gt;public.users -->
<g id="edge1" class="edge">
<title>public.user_roles:user_id&#45;&gt;public.users:id</title>
<path fill="none" stroke="black" d="M337.6,-803.94C282.82,-794.2 311.61,-703.64 348.96,-650.8 376.14,-612.34 421.36,-653.2 448.62,-614.8 472.86,-580.66 491.49,-520.6 449.62,-520.6"/>
<polygon fill="black" stroke="black" points="337.66,-803.95 347.26,-809.26 342.98,-804.39 347.29,-804.74 347.29,-804.74 347.29,-804.74 342.98,-804.39 348,-800.29 337.66,-803.95"/>
<text text-anchor="start" x="7" y="-814.8" font-family="Arial" font-size="10.00">FOREIGN KEY (user_id) REFERENCES users(id) ON DELETE CASCADE</text>
</g>
<!-- public.roles -->
<g id="node3" class="node">
<title>public.roles</title>
<polygon fill="#efefef" stroke="none" points="553.1,-366.6 553.1,-402.2 806.78,-402.2 806.78,-366.6 553.1,-366.6"/>
<polygon fill="none" stroke="black" points="553.1,-366.6 553.1,-402.2 806.78,-402.2 806.78,-366.6 553.1,-366.6"/>
<text text-anchor="start" x="575.45" y="-380" font-family="Arial Bold" font-size="18.00">public.roles</text>
<text text-anchor="start" x="659.93" y="-380" font-family="Arial" font-size="14.00">    </text>
<text text-anchor="start" x="691.05" y="-380" font-family="Arial" font-size="14.00" fill="#666666">[BASE TABLE]</text>
<polygon fill="none" stroke="black" points="553.1,-335.8 553.1,-366.6 806.78,-366.6 806.78,-335.8 553.1,-335.8"/>
<text text-anchor="start" x="560.1" y="-348" font-family="Arial" font-size="14.00">id </text>
<text text-anchor="start" x="574.88" y="-348" font-family="Arial" font-size="14.00" fill="#666666">[integer]</text>
<polygon fill="none" stroke="black" points="553.1,-305 553.1,-335.8 806.78,-335.8 806.78,-305 553.1,-305"/>
<text text-anchor="start" x="560.1" y="-317.2" font-family="Arial" font-size="14.00">name </text>
<text text-anchor="start" x="599.01" y="-317.2" font-family="Arial" font-size="14.00" fill="#666666">[varchar(50)]</text>
<polygon fill="none" stroke="black" points="553.1,-274.2 553.1,-305 806.78,-305 806.78,-274.2 553.1,-274.2"/>
<text text-anchor="start" x="560.1" y="-286.4" font-family="Arial" font-size="14.00">description </text>
<text text-anchor="start" x="631.69" y="-286.4" font-family="Arial" font-size="14.00" fill="#666666">[text]</text>
<polygon fill="none" stroke="black" points="553.1,-243.4 553.1,-274.2 806.78,-274.2 806.78,-243.4 553.1,-243.4"/>
<text text-anchor="start" x="560.1" y="-255.6" font-family="Arial" font-size="14.00">created_at </text>
<text text-anchor="start" x="630.15" y="-255.6" font-family="Arial" font-size="14.00" fill="#666666">[timestamp with time zone]</text>
<polygon fill="none" stroke="black" points="553.1,-212.6 553.1,-243.4 806.78,-243.4 806.78,-212.6 553.1,-212.6"/>
<text text-anchor="start" x="560.1" y="-224.8" font-family="Arial" font-size="14.00">updated_at </text>
<text text-anchor="start" x="634.06" y="-224.8" font-family="Arial" font-size="14.00" fill="#666666">[timestamp with time zone]</text>
</g>
<!-- public.user_roles&#45;&gt;public.roles -->
<g id="edge2" class="edge">
<title>public.user_roles:role_id&#45;&gt;public.roles:id</title>
<path fill="none" stroke="black" d="M622.33,-773.52C784.78,-757.65 366.02,-351.2 552.1,-351.2"/>
<polygon fill="black" stroke="black" points="622.24,-773.53 612.05,-769.49 616.91,-773.77 612.59,-773.97 612.59,-773.97 612.59,-773.97 616.91,-773.77 612.46,-778.48 622.24,-773.53"/>
<text text-anchor="start" x="618.92" y="-784" font-family="Arial" font-size="10.00">FOREIGN KEY (role_id) REFERENCES roles(id) ON DELETE CASCADE</text>
</g>
</g>
</svg>
