<?xml version="1.0" encoding="UTF-8" standalone="no"?>
<!DOCTYPE svg PUBLIC "-//W3C//DTD SVG 1.1//EN"
 "http://www.w3.org/Graphics/SVG/1.1/DTD/svg11.dtd">
<!-- Generated by graphviz version 12.1.2 (20240928.0832)
 -->
<!-- Title: public.assessments Pages: 1 -->
<svg width="1067pt" height="1869pt"
 viewBox="0.00 0.00 1067.28 1868.80" xmlns="http://www.w3.org/2000/svg" xmlns:xlink="http://www.w3.org/1999/xlink">
<g id="graph0" class="graph" transform="scale(1 1) rotate(0) translate(4 1864.8)">
<title>public.assessments</title>
<polygon fill="white" stroke="none" points="-4,4 -4,-1864.8 1063.28,-1864.8 1063.28,4 -4,4"/>
<!-- public.assessments -->
<g id="node1" class="node">
<title>public.assessments</title>
<polygon fill="#efefef" stroke="none" points="463.51,-1189.8 463.51,-1225.4 738.48,-1225.4 738.48,-1189.8 463.51,-1189.8"/>
<polygon fill="none" stroke="black" points="463.51,-1189.8 463.51,-1225.4 738.48,-1225.4 738.48,-1189.8 463.51,-1189.8"/>
<text text-anchor="start" x="470.51" y="-1203.2" font-family="Arial Bold" font-size="18.00">public.assessments</text>
<text text-anchor="start" x="606.99" y="-1203.2" font-family="Arial" font-size="14.00">    </text>
<text text-anchor="start" x="638.11" y="-1203.2" font-family="Arial" font-size="14.00" fill="#666666">[BASE TABLE]</text>
<polygon fill="none" stroke="black" points="463.51,-1159 463.51,-1189.8 738.48,-1189.8 738.48,-1159 463.51,-1159"/>
<text text-anchor="start" x="470.51" y="-1171.2" font-family="Arial" font-size="14.00">id </text>
<text text-anchor="start" x="485.29" y="-1171.2" font-family="Arial" font-size="14.00" fill="#666666">[bigint]</text>
<polygon fill="none" stroke="black" points="463.51,-1128.2 463.51,-1159 738.48,-1159 738.48,-1128.2 463.51,-1128.2"/>
<text text-anchor="start" x="470.51" y="-1140.4" font-family="Arial" font-size="14.00">disaster_id </text>
<text text-anchor="start" x="542.1" y="-1140.4" font-family="Arial" font-size="14.00" fill="#666666">[uuid]</text>
<polygon fill="none" stroke="black" points="463.51,-1097.4 463.51,-1128.2 738.48,-1128.2 738.48,-1097.4 463.51,-1097.4"/>
<text text-anchor="start" x="470.51" y="-1109.6" font-family="Arial" font-size="14.00">user_id </text>
<text text-anchor="start" x="520.32" y="-1109.6" font-family="Arial" font-size="14.00" fill="#666666">[uuid]</text>
<polygon fill="none" stroke="black" points="463.51,-1066.6 463.51,-1097.4 738.48,-1097.4 738.48,-1066.6 463.51,-1066.6"/>
<text text-anchor="start" x="470.51" y="-1078.8" font-family="Arial" font-size="14.00">assessment_date </text>
<text text-anchor="start" x="584.13" y="-1078.8" font-family="Arial" font-size="14.00" fill="#666666">[date]</text>
<polygon fill="none" stroke="black" points="463.51,-1035.8 463.51,-1066.6 738.48,-1066.6 738.48,-1035.8 463.51,-1035.8"/>
<text text-anchor="start" x="470.51" y="-1048" font-family="Arial" font-size="14.00">assessment_type </text>
<text text-anchor="start" x="583.34" y="-1048" font-family="Arial" font-size="14.00" fill="#666666">[varchar(50)]</text>
<polygon fill="none" stroke="black" points="463.51,-1005 463.51,-1035.8 738.48,-1035.8 738.48,-1005 463.51,-1005"/>
<text text-anchor="start" x="470.51" y="-1017.2" font-family="Arial" font-size="14.00">status </text>
<text text-anchor="start" x="511.75" y="-1017.2" font-family="Arial" font-size="14.00" fill="#666666">[varchar(30)]</text>
<polygon fill="none" stroke="black" points="463.51,-974.2 463.51,-1005 738.48,-1005 738.48,-974.2 463.51,-974.2"/>
<text text-anchor="start" x="470.51" y="-986.4" font-family="Arial" font-size="14.00">assessment_method </text>
<text text-anchor="start" x="603.58" y="-986.4" font-family="Arial" font-size="14.00" fill="#666666">[varchar(50)]</text>
<polygon fill="none" stroke="black" points="463.51,-943.4 463.51,-974.2 738.48,-974.2 738.48,-943.4 463.51,-943.4"/>
<text text-anchor="start" x="470.51" y="-955.6" font-family="Arial" font-size="14.00">assessment_summary </text>
<text text-anchor="start" x="614.44" y="-955.6" font-family="Arial" font-size="14.00" fill="#666666">[text]</text>
<polygon fill="none" stroke="black" points="463.51,-912.6 463.51,-943.4 738.48,-943.4 738.48,-912.6 463.51,-912.6"/>
<text text-anchor="start" x="470.51" y="-924.8" font-family="Arial" font-size="14.00">damage_amount </text>
<text text-anchor="start" x="579.47" y="-924.8" font-family="Arial" font-size="14.00" fill="#666666">[numeric(15,2)]</text>
<polygon fill="none" stroke="black" points="463.51,-881.8 463.51,-912.6 738.48,-912.6 738.48,-881.8 463.51,-881.8"/>
<text text-anchor="start" x="470.51" y="-894" font-family="Arial" font-size="14.00">approved_amount </text>
<text text-anchor="start" x="587.26" y="-894" font-family="Arial" font-size="14.00" fill="#666666">[numeric(15,2)]</text>
<polygon fill="none" stroke="black" points="463.51,-851 463.51,-881.8 738.48,-881.8 738.48,-851 463.51,-851"/>
<text text-anchor="start" x="470.51" y="-863.2" font-family="Arial" font-size="14.00">approval_date </text>
<text text-anchor="start" x="563.14" y="-863.2" font-family="Arial" font-size="14.00" fill="#666666">[timestamp with time zone]</text>
<polygon fill="none" stroke="black" points="463.51,-820.2 463.51,-851 738.48,-851 738.48,-820.2 463.51,-820.2"/>
<text text-anchor="start" x="470.51" y="-832.4" font-family="Arial" font-size="14.00">approved_by </text>
<text text-anchor="start" x="555.35" y="-832.4" font-family="Arial" font-size="14.00" fill="#666666">[uuid]</text>
<polygon fill="none" stroke="black" points="463.51,-789.4 463.51,-820.2 738.48,-820.2 738.48,-789.4 463.51,-789.4"/>
<text text-anchor="start" x="470.51" y="-801.6" font-family="Arial" font-size="14.00">notes </text>
<text text-anchor="start" x="508.65" y="-801.6" font-family="Arial" font-size="14.00" fill="#666666">[text]</text>
<polygon fill="none" stroke="black" points="463.51,-758.6 463.51,-789.4 738.48,-789.4 738.48,-758.6 463.51,-758.6"/>
<text text-anchor="start" x="470.51" y="-770.8" font-family="Arial" font-size="14.00">created_at </text>
<text text-anchor="start" x="540.56" y="-770.8" font-family="Arial" font-size="14.00" fill="#666666">[timestamp with time zone]</text>
<polygon fill="none" stroke="black" points="463.51,-727.8 463.51,-758.6 738.48,-758.6 738.48,-727.8 463.51,-727.8"/>
<text text-anchor="start" x="470.51" y="-740" font-family="Arial" font-size="14.00">updated_at </text>
<text text-anchor="start" x="544.47" y="-740" font-family="Arial" font-size="14.00" fill="#666666">[timestamp with time zone]</text>
<polygon fill="none" stroke="black" points="463.51,-697 463.51,-727.8 738.48,-727.8 738.48,-697 463.51,-697"/>
<text text-anchor="start" x="470.51" y="-709.2" font-family="Arial" font-size="14.00">deleted_at </text>
<text text-anchor="start" x="539.79" y="-709.2" font-family="Arial" font-size="14.00" fill="#666666">[timestamp with time zone]</text>
<polygon fill="none" stroke="black" stroke-width="3" points="462.01,-695.5 462.01,-1226.9 739.98,-1226.9 739.98,-695.5 462.01,-695.5"/>
</g>
<!-- public.disasters -->
<g id="node4" class="node">
<title>public.disasters</title>
<polygon fill="#efefef" stroke="none" points="43.2,-536 43.2,-571.6 328.79,-571.6 328.79,-536 43.2,-536"/>
<polygon fill="none" stroke="black" points="43.2,-536 43.2,-571.6 328.79,-571.6 328.79,-536 43.2,-536"/>
<text text-anchor="start" x="68.01" y="-549.4" font-family="Arial Bold" font-size="18.00">public.disasters</text>
<text text-anchor="start" x="179.49" y="-549.4" font-family="Arial" font-size="14.00">    </text>
<text text-anchor="start" x="210.61" y="-549.4" font-family="Arial" font-size="14.00" fill="#666666">[BASE TABLE]</text>
<polygon fill="none" stroke="black" points="43.2,-505.2 43.2,-536 328.79,-536 328.79,-505.2 43.2,-505.2"/>
<text text-anchor="start" x="50.2" y="-517.4" font-family="Arial" font-size="14.00">id </text>
<text text-anchor="start" x="64.99" y="-517.4" font-family="Arial" font-size="14.00" fill="#666666">[uuid]</text>
<polygon fill="none" stroke="black" points="43.2,-474.4 43.2,-505.2 328.79,-505.2 328.79,-474.4 43.2,-474.4"/>
<text text-anchor="start" x="50.2" y="-486.6" font-family="Arial" font-size="14.00">name </text>
<text text-anchor="start" x="89.11" y="-486.6" font-family="Arial" font-size="14.00" fill="#666666">[varchar(100)]</text>
<polygon fill="none" stroke="black" points="43.2,-443.6 43.2,-474.4 328.79,-474.4 328.79,-443.6 43.2,-443.6"/>
<text text-anchor="start" x="50.2" y="-455.8" font-family="Arial" font-size="14.00">municipality_id </text>
<text text-anchor="start" x="145.91" y="-455.8" font-family="Arial" font-size="14.00" fill="#666666">[integer]</text>
<polygon fill="none" stroke="black" points="43.2,-412.8 43.2,-443.6 328.79,-443.6 328.79,-412.8 43.2,-412.8"/>
<text text-anchor="start" x="50.2" y="-425" font-family="Arial" font-size="14.00">occurred_at </text>
<text text-anchor="start" x="128.02" y="-425" font-family="Arial" font-size="14.00" fill="#666666">[timestamp with time zone]</text>
<polygon fill="none" stroke="black" points="43.2,-382 43.2,-412.8 328.79,-412.8 328.79,-382 43.2,-382"/>
<text text-anchor="start" x="50.2" y="-394.2" font-family="Arial" font-size="14.00">summary </text>
<text text-anchor="start" x="111.65" y="-394.2" font-family="Arial" font-size="14.00" fill="#666666">[text]</text>
<polygon fill="none" stroke="black" points="43.2,-351.2 43.2,-382 328.79,-382 328.79,-351.2 43.2,-351.2"/>
<text text-anchor="start" x="50.2" y="-363.4" font-family="Arial" font-size="14.00">work_category_id </text>
<text text-anchor="start" x="163.81" y="-363.4" font-family="Arial" font-size="14.00" fill="#666666">[bigint]</text>
<polygon fill="none" stroke="black" points="43.2,-320.4 43.2,-351.2 328.79,-351.2 328.79,-320.4 43.2,-320.4"/>
<text text-anchor="start" x="50.2" y="-332.6" font-family="Arial" font-size="14.00">status </text>
<text text-anchor="start" x="91.44" y="-332.6" font-family="Arial" font-size="14.00" fill="#666666">[disaster_status]</text>
<polygon fill="none" stroke="black" points="43.2,-289.6 43.2,-320.4 328.79,-320.4 328.79,-289.6 43.2,-289.6"/>
<text text-anchor="start" x="50.2" y="-301.8" font-family="Arial" font-size="14.00">affected_area_size </text>
<text text-anchor="start" x="172.39" y="-301.8" font-family="Arial" font-size="14.00" fill="#666666">[numeric(10,2)]</text>
<polygon fill="none" stroke="black" points="43.2,-258.8 43.2,-289.6 328.79,-289.6 328.79,-258.8 43.2,-258.8"/>
<text text-anchor="start" x="50.2" y="-271" font-family="Arial" font-size="14.00">estimated_damage_amount </text>
<text text-anchor="start" x="227.65" y="-271" font-family="Arial" font-size="14.00" fill="#666666">[numeric(15,2)]</text>
<polygon fill="none" stroke="black" points="43.2,-228 43.2,-258.8 328.79,-258.8 328.79,-228 43.2,-228"/>
<text text-anchor="start" x="50.2" y="-240.2" font-family="Arial" font-size="14.00">latitude </text>
<text text-anchor="start" x="99.23" y="-240.2" font-family="Arial" font-size="14.00" fill="#666666">[numeric(10,8)]</text>
<polygon fill="none" stroke="black" points="43.2,-197.2 43.2,-228 328.79,-228 328.79,-197.2 43.2,-197.2"/>
<text text-anchor="start" x="50.2" y="-209.4" font-family="Arial" font-size="14.00">longitude </text>
<text text-anchor="start" x="110.92" y="-209.4" font-family="Arial" font-size="14.00" fill="#666666">[numeric(11,8)]</text>
<polygon fill="none" stroke="black" points="43.2,-166.4 43.2,-197.2 328.79,-197.2 328.79,-166.4 43.2,-166.4"/>
<text text-anchor="start" x="50.2" y="-178.6" font-family="Arial" font-size="14.00">address </text>
<text text-anchor="start" x="103.9" y="-178.6" font-family="Arial" font-size="14.00" fill="#666666">[text]</text>
<polygon fill="none" stroke="black" points="43.2,-135.6 43.2,-166.4 328.79,-166.4 328.79,-135.6 43.2,-135.6"/>
<text text-anchor="start" x="50.2" y="-147.8" font-family="Arial" font-size="14.00">place_id </text>
<text text-anchor="start" x="106.24" y="-147.8" font-family="Arial" font-size="14.00" fill="#666666">[varchar(255)]</text>
<polygon fill="none" stroke="black" points="43.2,-104.8 43.2,-135.6 328.79,-135.6 328.79,-104.8 43.2,-104.8"/>
<text text-anchor="start" x="50.2" y="-117" font-family="Arial" font-size="14.00">created_at </text>
<text text-anchor="start" x="120.25" y="-117" font-family="Arial" font-size="14.00" fill="#666666">[timestamp with time zone]</text>
<polygon fill="none" stroke="black" points="43.2,-74 43.2,-104.8 328.79,-104.8 328.79,-74 43.2,-74"/>
<text text-anchor="start" x="50.2" y="-86.2" font-family="Arial" font-size="14.00">updated_at </text>
<text text-anchor="start" x="124.16" y="-86.2" font-family="Arial" font-size="14.00" fill="#666666">[timestamp with time zone]</text>
<polygon fill="none" stroke="black" points="43.2,-43.2 43.2,-74 328.79,-74 328.79,-43.2 43.2,-43.2"/>
<text text-anchor="start" x="50.2" y="-55.4" font-family="Arial" font-size="14.00">deleted_at </text>
<text text-anchor="start" x="119.48" y="-55.4" font-family="Arial" font-size="14.00" fill="#666666">[timestamp with time zone]</text>
</g>
<!-- public.assessments&#45;&gt;public.disasters -->
<g id="edge3" class="edge">
<title>public.assessments:disaster_id&#45;&gt;public.disasters:id</title>
<path fill="none" stroke="black" d="M453.06,-1139.62C392.39,-1086.56 397.25,-520.6 329.79,-520.6"/>
<polygon fill="black" stroke="black" points="452.98,-1139.59 460.45,-1147.62 457.9,-1141.66 461.89,-1143.34 461.89,-1143.34 461.89,-1143.34 457.9,-1141.66 463.95,-1139.32 452.98,-1139.59"/>
<text text-anchor="start" x="90.43" y="-1153.6" font-family="Arial" font-size="10.00">FOREIGN KEY (disaster_id) REFERENCES disasters(id) ON DELETE CASCADE</text>
</g>
<!-- public.users -->
<g id="node5" class="node">
<title>public.users</title>
<polygon fill="#efefef" stroke="none" points="433.32,-536 433.32,-571.6 768.67,-571.6 768.67,-536 433.32,-536"/>
<polygon fill="none" stroke="black" points="433.32,-536 433.32,-571.6 768.67,-571.6 768.67,-536 433.32,-536"/>
<text text-anchor="start" x="495.51" y="-549.4" font-family="Arial Bold" font-size="18.00">public.users</text>
<text text-anchor="start" x="581.99" y="-549.4" font-family="Arial" font-size="14.00">    </text>
<text text-anchor="start" x="613.11" y="-549.4" font-family="Arial" font-size="14.00" fill="#666666">[BASE TABLE]</text>
<polygon fill="none" stroke="black" points="433.32,-505.2 433.32,-536 768.67,-536 768.67,-505.2 433.32,-505.2"/>
<text text-anchor="start" x="440.32" y="-517.4" font-family="Arial" font-size="14.00">id </text>
<text text-anchor="start" x="455.1" y="-517.4" font-family="Arial" font-size="14.00" fill="#666666">[uuid]</text>
<polygon fill="none" stroke="black" points="433.32,-474.4 433.32,-505.2 768.67,-505.2 768.67,-474.4 433.32,-474.4"/>
<text text-anchor="start" x="440.32" y="-486.6" font-family="Arial" font-size="14.00">name </text>
<text text-anchor="start" x="479.23" y="-486.6" font-family="Arial" font-size="14.00" fill="#666666">[varchar(255)]</text>
<polygon fill="none" stroke="black" points="433.32,-443.6 433.32,-474.4 768.67,-474.4 768.67,-443.6 433.32,-443.6"/>
<text text-anchor="start" x="440.32" y="-455.8" font-family="Arial" font-size="14.00">email </text>
<text text-anchor="start" x="477.66" y="-455.8" font-family="Arial" font-size="14.00" fill="#666666">[varchar(255)]</text>
<polygon fill="none" stroke="black" points="433.32,-412.8 433.32,-443.6 768.67,-443.6 768.67,-412.8 433.32,-412.8"/>
<text text-anchor="start" x="440.32" y="-425" font-family="Arial" font-size="14.00">password </text>
<text text-anchor="start" x="504.12" y="-425" font-family="Arial" font-size="14.00" fill="#666666">[varchar(255)]</text>
<polygon fill="none" stroke="black" points="433.32,-382 433.32,-412.8 768.67,-412.8 768.67,-382 433.32,-382"/>
<text text-anchor="start" x="440.32" y="-394.2" font-family="Arial" font-size="14.00">organization_id </text>
<text text-anchor="start" x="539.16" y="-394.2" font-family="Arial" font-size="14.00" fill="#666666">[integer]</text>
<polygon fill="none" stroke="black" points="433.32,-351.2 433.32,-382 768.67,-382 768.67,-351.2 433.32,-351.2"/>
<text text-anchor="start" x="440.32" y="-363.4" font-family="Arial" font-size="14.00">role_id </text>
<text text-anchor="start" x="486.23" y="-363.4" font-family="Arial" font-size="14.00" fill="#666666">[smallint]</text>
<polygon fill="none" stroke="black" points="433.32,-320.4 433.32,-351.2 768.67,-351.2 768.67,-320.4 433.32,-320.4"/>
<text text-anchor="start" x="440.32" y="-332.6" font-family="Arial" font-size="14.00">is_active </text>
<text text-anchor="start" x="498.68" y="-332.6" font-family="Arial" font-size="14.00" fill="#666666">[boolean]</text>
<polygon fill="none" stroke="black" points="433.32,-289.6 433.32,-320.4 768.67,-320.4 768.67,-289.6 433.32,-289.6"/>
<text text-anchor="start" x="440.32" y="-301.8" font-family="Arial" font-size="14.00">email_verified </text>
<text text-anchor="start" x="530.58" y="-301.8" font-family="Arial" font-size="14.00" fill="#666666">[boolean]</text>
<polygon fill="none" stroke="black" points="433.32,-258.8 433.32,-289.6 768.67,-289.6 768.67,-258.8 433.32,-258.8"/>
<text text-anchor="start" x="440.32" y="-271" font-family="Arial" font-size="14.00">mfa_enabled </text>
<text text-anchor="start" x="525.16" y="-271" font-family="Arial" font-size="14.00" fill="#666666">[boolean]</text>
<polygon fill="none" stroke="black" points="433.32,-228 433.32,-258.8 768.67,-258.8 768.67,-228 433.32,-228"/>
<text text-anchor="start" x="440.32" y="-240.2" font-family="Arial" font-size="14.00">mfa_secret </text>
<text text-anchor="start" x="513.45" y="-240.2" font-family="Arial" font-size="14.00" fill="#666666">[varchar(255)]</text>
<polygon fill="none" stroke="black" points="433.32,-197.2 433.32,-228 768.67,-228 768.67,-197.2 433.32,-197.2"/>
<text text-anchor="start" x="440.32" y="-209.4" font-family="Arial" font-size="14.00">password_reset_token </text>
<text text-anchor="start" x="585.07" y="-209.4" font-family="Arial" font-size="14.00" fill="#666666">[varchar(255)]</text>
<polygon fill="none" stroke="black" points="433.32,-166.4 433.32,-197.2 768.67,-197.2 768.67,-166.4 433.32,-166.4"/>
<text text-anchor="start" x="440.32" y="-178.6" font-family="Arial" font-size="14.00">password_reset_expires </text>
<text text-anchor="start" x="595.95" y="-178.6" font-family="Arial" font-size="14.00" fill="#666666">[timestamp with time zone]</text>
<polygon fill="none" stroke="black" points="433.32,-135.6 433.32,-166.4 768.67,-166.4 768.67,-135.6 433.32,-135.6"/>
<text text-anchor="start" x="440.32" y="-147.8" font-family="Arial" font-size="14.00">last_password_change </text>
<text text-anchor="start" x="587.41" y="-147.8" font-family="Arial" font-size="14.00" fill="#666666">[timestamp with time zone]</text>
<polygon fill="none" stroke="black" points="433.32,-104.8 433.32,-135.6 768.67,-135.6 768.67,-104.8 433.32,-104.8"/>
<text text-anchor="start" x="440.32" y="-117" font-family="Arial" font-size="14.00">created_at </text>
<text text-anchor="start" x="510.37" y="-117" font-family="Arial" font-size="14.00" fill="#666666">[timestamp with time zone]</text>
<polygon fill="none" stroke="black" points="433.32,-74 433.32,-104.8 768.67,-104.8 768.67,-74 433.32,-74"/>
<text text-anchor="start" x="440.32" y="-86.2" font-family="Arial" font-size="14.00">updated_at </text>
<text text-anchor="start" x="514.28" y="-86.2" font-family="Arial" font-size="14.00" fill="#666666">[timestamp with time zone]</text>
<polygon fill="none" stroke="black" points="433.32,-43.2 433.32,-74 768.67,-74 768.67,-43.2 433.32,-43.2"/>
<text text-anchor="start" x="440.32" y="-55.4" font-family="Arial" font-size="14.00">deleted_at </text>
<text text-anchor="start" x="509.6" y="-55.4" font-family="Arial" font-size="14.00" fill="#666666">[timestamp with time zone]</text>
</g>
<!-- public.assessments&#45;&gt;public.users -->
<g id="edge4" class="edge">
<title>public.assessments:user_id&#45;&gt;public.users:id</title>
<path fill="none" stroke="black" d="M749.78,-1112.49C1003.77,-1097.29 1029.74,-520.6 769.67,-520.6"/>
<polygon fill="black" stroke="black" points="749.81,-1112.49 739.68,-1108.29 744.48,-1112.65 740.15,-1112.78 740.15,-1112.78 740.15,-1112.78 744.48,-1112.65 739.95,-1117.29 749.81,-1112.49"/>
<text text-anchor="start" x="746.48" y="-1122.8" font-family="Arial" font-size="10.00">FOREIGN KEY (user_id) REFERENCES users(id)</text>
</g>
<!-- public.assessments&#45;&gt;public.users -->
<g id="edge5" class="edge">
<title>public.assessments:approved_by&#45;&gt;public.users:id</title>
<path fill="none" stroke="black" d="M749.59,-835.05C881.5,-820.41 906.88,-520.6 769.67,-520.6"/>
<polygon fill="black" stroke="black" points="749.8,-835.03 739.57,-831.09 744.48,-835.33 740.15,-835.56 740.15,-835.56 740.15,-835.56 744.48,-835.33 740.06,-840.07 749.8,-835.03"/>
<text text-anchor="start" x="746.48" y="-845.6" font-family="Arial" font-size="10.00">FOREIGN KEY (approved_by) REFERENCES users(id)</text>
</g>
<!-- public.assessment_items -->
<g id="node2" class="node">
<title>public.assessment_items</title>
<polygon fill="#efefef" stroke="none" points="224.01,-1782 224.01,-1817.6 539.98,-1817.6 539.98,-1782 224.01,-1782"/>
<polygon fill="none" stroke="black" points="224.01,-1782 224.01,-1817.6 539.98,-1817.6 539.98,-1782 224.01,-1782"/>
<text text-anchor="start" x="231.01" y="-1795.4" font-family="Arial Bold" font-size="18.00">public.assessment_items</text>
<text text-anchor="start" x="408.49" y="-1795.4" font-family="Arial" font-size="14.00">    </text>
<text text-anchor="start" x="439.61" y="-1795.4" font-family="Arial" font-size="14.00" fill="#666666">[BASE TABLE]</text>
<polygon fill="none" stroke="black" points="224.01,-1751.2 224.01,-1782 539.98,-1782 539.98,-1751.2 224.01,-1751.2"/>
<text text-anchor="start" x="231.01" y="-1763.4" font-family="Arial" font-size="14.00">id </text>
<text text-anchor="start" x="245.8" y="-1763.4" font-family="Arial" font-size="14.00" fill="#666666">[integer]</text>
<polygon fill="none" stroke="black" points="224.01,-1720.4 224.01,-1751.2 539.98,-1751.2 539.98,-1720.4 224.01,-1720.4"/>
<text text-anchor="start" x="231.01" y="-1732.6" font-family="Arial" font-size="14.00">assessment_id </text>
<text text-anchor="start" x="328.28" y="-1732.6" font-family="Arial" font-size="14.00" fill="#666666">[bigint]</text>
<polygon fill="none" stroke="black" points="224.01,-1689.6 224.01,-1720.4 539.98,-1720.4 539.98,-1689.6 224.01,-1689.6"/>
<text text-anchor="start" x="231.01" y="-1701.8" font-family="Arial" font-size="14.00">item_name </text>
<text text-anchor="start" x="304.16" y="-1701.8" font-family="Arial" font-size="14.00" fill="#666666">[varchar(100)]</text>
<polygon fill="none" stroke="black" points="224.01,-1658.8 224.01,-1689.6 539.98,-1689.6 539.98,-1658.8 224.01,-1658.8"/>
<text text-anchor="start" x="231.01" y="-1671" font-family="Arial" font-size="14.00">facility_type_id </text>
<text text-anchor="start" x="326.73" y="-1671" font-family="Arial" font-size="14.00" fill="#666666">[integer]</text>
<polygon fill="none" stroke="black" points="224.01,-1628 224.01,-1658.8 539.98,-1658.8 539.98,-1628 224.01,-1628"/>
<text text-anchor="start" x="231.01" y="-1640.2" font-family="Arial" font-size="14.00">damage_level_id </text>
<text text-anchor="start" x="340.76" y="-1640.2" font-family="Arial" font-size="14.00" fill="#666666">[integer]</text>
<polygon fill="none" stroke="black" points="224.01,-1597.2 224.01,-1628 539.98,-1628 539.98,-1597.2 224.01,-1597.2"/>
<text text-anchor="start" x="231.01" y="-1609.4" font-family="Arial" font-size="14.00">damage_description </text>
<text text-anchor="start" x="360.98" y="-1609.4" font-family="Arial" font-size="14.00" fill="#666666">[text]</text>
<polygon fill="none" stroke="black" points="224.01,-1566.4 224.01,-1597.2 539.98,-1597.2 539.98,-1566.4 224.01,-1566.4"/>
<text text-anchor="start" x="231.01" y="-1578.6" font-family="Arial" font-size="14.00">damage_amount </text>
<text text-anchor="start" x="339.98" y="-1578.6" font-family="Arial" font-size="14.00" fill="#666666">[numeric(15,2)]</text>
<polygon fill="none" stroke="black" points="224.01,-1535.6 224.01,-1566.4 539.98,-1566.4 539.98,-1535.6 224.01,-1535.6"/>
<text text-anchor="start" x="231.01" y="-1547.8" font-family="Arial" font-size="14.00">approved_amount </text>
<text text-anchor="start" x="347.76" y="-1547.8" font-family="Arial" font-size="14.00" fill="#666666">[numeric(15,2)]</text>
<polygon fill="none" stroke="black" points="224.01,-1504.8 224.01,-1535.6 539.98,-1535.6 539.98,-1504.8 224.01,-1504.8"/>
<text text-anchor="start" x="231.01" y="-1517" font-family="Arial" font-size="14.00">location_latitude </text>
<text text-anchor="start" x="336.09" y="-1517" font-family="Arial" font-size="14.00" fill="#666666">[numeric(10,8)]</text>
<polygon fill="none" stroke="black" points="224.01,-1474 224.01,-1504.8 539.98,-1504.8 539.98,-1474 224.01,-1474"/>
<text text-anchor="start" x="231.01" y="-1486.2" font-family="Arial" font-size="14.00">location_longitude </text>
<text text-anchor="start" x="347.77" y="-1486.2" font-family="Arial" font-size="14.00" fill="#666666">[numeric(11,8)]</text>
<polygon fill="none" stroke="black" points="224.01,-1443.2 224.01,-1474 539.98,-1474 539.98,-1443.2 224.01,-1443.2"/>
<text text-anchor="start" x="231.01" y="-1455.4" font-family="Arial" font-size="14.00">notes </text>
<text text-anchor="start" x="269.15" y="-1455.4" font-family="Arial" font-size="14.00" fill="#666666">[text]</text>
<polygon fill="none" stroke="black" points="224.01,-1412.4 224.01,-1443.2 539.98,-1443.2 539.98,-1412.4 224.01,-1412.4"/>
<text text-anchor="start" x="231.01" y="-1424.6" font-family="Arial" font-size="14.00">created_at </text>
<text text-anchor="start" x="301.06" y="-1424.6" font-family="Arial" font-size="14.00" fill="#666666">[timestamp with time zone]</text>
<polygon fill="none" stroke="black" points="224.01,-1381.6 224.01,-1412.4 539.98,-1412.4 539.98,-1381.6 224.01,-1381.6"/>
<text text-anchor="start" x="231.01" y="-1393.8" font-family="Arial" font-size="14.00">updated_at </text>
<text text-anchor="start" x="304.97" y="-1393.8" font-family="Arial" font-size="14.00" fill="#666666">[timestamp with time zone]</text>
<polygon fill="none" stroke="black" points="224.01,-1350.8 224.01,-1381.6 539.98,-1381.6 539.98,-1350.8 224.01,-1350.8"/>
<text text-anchor="start" x="231.01" y="-1363" font-family="Arial" font-size="14.00">deleted_at </text>
<text text-anchor="start" x="300.29" y="-1363" font-family="Arial" font-size="14.00" fill="#666666">[timestamp with time zone]</text>
</g>
<!-- public.assessment_items&#45;&gt;public.assessments -->
<g id="edge1" class="edge">
<title>public.assessment_items:assessment_id&#45;&gt;public.assessments:id</title>
<path fill="none" stroke="black" d="M549.77,-1730.59C585.4,-1684.37 563.77,-1345 539.98,-1307.6 519.82,-1275.9 483.8,-1303.21 463.51,-1271.6 440.18,-1235.24 419.31,-1174.4 462.51,-1174.4"/>
<polygon fill="black" stroke="black" points="549.87,-1730.53 538.97,-1731.76 545.28,-1733.25 541.55,-1735.46 541.55,-1735.46 541.55,-1735.46 545.28,-1733.25 543.56,-1739.5 549.87,-1730.53"/>
<text text-anchor="start" x="132.22" y="-1745.8" font-family="Arial" font-size="10.00">FOREIGN KEY (assessment_id) REFERENCES assessments(id) ON DELETE CASCADE</text>
</g>
<!-- public.assessment_comments -->
<g id="node3" class="node">
<title>public.assessment_comments</title>
<polygon fill="#efefef" stroke="none" points="644.52,-1705 644.52,-1740.6 995.47,-1740.6 995.47,-1705 644.52,-1705"/>
<polygon fill="none" stroke="black" points="644.52,-1705 644.52,-1740.6 995.47,-1740.6 995.47,-1705 644.52,-1705"/>
<text text-anchor="start" x="651.52" y="-1718.4" font-family="Arial Bold" font-size="18.00">public.assessment_comments</text>
<text text-anchor="start" x="863.98" y="-1718.4" font-family="Arial" font-size="14.00">    </text>
<text text-anchor="start" x="895.1" y="-1718.4" font-family="Arial" font-size="14.00" fill="#666666">[BASE TABLE]</text>
<polygon fill="none" stroke="black" points="644.52,-1674.2 644.52,-1705 995.47,-1705 995.47,-1674.2 644.52,-1674.2"/>
<text text-anchor="start" x="651.52" y="-1686.4" font-family="Arial" font-size="14.00">id </text>
<text text-anchor="start" x="666.3" y="-1686.4" font-family="Arial" font-size="14.00" fill="#666666">[integer]</text>
<polygon fill="none" stroke="black" points="644.52,-1643.4 644.52,-1674.2 995.47,-1674.2 995.47,-1643.4 644.52,-1643.4"/>
<text text-anchor="start" x="651.52" y="-1655.6" font-family="Arial" font-size="14.00">assessment_id </text>
<text text-anchor="start" x="748.79" y="-1655.6" font-family="Arial" font-size="14.00" fill="#666666">[integer]</text>
<polygon fill="none" stroke="black" points="644.52,-1612.6 644.52,-1643.4 995.47,-1643.4 995.47,-1612.6 644.52,-1612.6"/>
<text text-anchor="start" x="651.52" y="-1624.8" font-family="Arial" font-size="14.00">user_id </text>
<text text-anchor="start" x="701.32" y="-1624.8" font-family="Arial" font-size="14.00" fill="#666666">[uuid]</text>
<polygon fill="none" stroke="black" points="644.52,-1581.8 644.52,-1612.6 995.47,-1612.6 995.47,-1581.8 644.52,-1581.8"/>
<text text-anchor="start" x="651.52" y="-1594" font-family="Arial" font-size="14.00">comment_text </text>
<text text-anchor="start" x="743.33" y="-1594" font-family="Arial" font-size="14.00" fill="#666666">[text]</text>
<polygon fill="none" stroke="black" points="644.52,-1551 644.52,-1581.8 995.47,-1581.8 995.47,-1551 644.52,-1551"/>
<text text-anchor="start" x="651.52" y="-1563.2" font-family="Arial" font-size="14.00">comment_time </text>
<text text-anchor="start" x="747.21" y="-1563.2" font-family="Arial" font-size="14.00" fill="#666666">[timestamp with time zone]</text>
<polygon fill="none" stroke="black" points="644.52,-1520.2 644.52,-1551 995.47,-1551 995.47,-1520.2 644.52,-1520.2"/>
<text text-anchor="start" x="651.52" y="-1532.4" font-family="Arial" font-size="14.00">parent_comment_id </text>
<text text-anchor="start" x="779.14" y="-1532.4" font-family="Arial" font-size="14.00" fill="#666666">[integer]</text>
<polygon fill="none" stroke="black" points="644.52,-1489.4 644.52,-1520.2 995.47,-1520.2 995.47,-1489.4 644.52,-1489.4"/>
<text text-anchor="start" x="651.52" y="-1501.6" font-family="Arial" font-size="14.00">created_at </text>
<text text-anchor="start" x="721.57" y="-1501.6" font-family="Arial" font-size="14.00" fill="#666666">[timestamp with time zone]</text>
<polygon fill="none" stroke="black" points="644.52,-1458.6 644.52,-1489.4 995.47,-1489.4 995.47,-1458.6 644.52,-1458.6"/>
<text text-anchor="start" x="651.52" y="-1470.8" font-family="Arial" font-size="14.00">updated_at </text>
<text text-anchor="start" x="725.48" y="-1470.8" font-family="Arial" font-size="14.00" fill="#666666">[timestamp with time zone]</text>
<polygon fill="none" stroke="black" points="644.52,-1427.8 644.52,-1458.6 995.47,-1458.6 995.47,-1427.8 644.52,-1427.8"/>
<text text-anchor="start" x="651.52" y="-1440" font-family="Arial" font-size="14.00">deleted_at </text>
<text text-anchor="start" x="720.8" y="-1440" font-family="Arial" font-size="14.00" fill="#666666">[timestamp with time zone]</text>
</g>
<!-- public.assessment_comments&#45;&gt;public.assessments -->
<g id="edge2" class="edge">
<title>public.assessment_comments:assessment_id&#45;&gt;public.assessments:id</title>
<path fill="none" stroke="black" d="M633.54,-1656.5C587.49,-1633.12 624.96,-1438.4 644.52,-1384.6 666.83,-1323.21 715.96,-1332.91 738.48,-1271.6 753.38,-1231.05 782.69,-1174.4 739.48,-1174.4"/>
<polygon fill="black" stroke="black" points="633.45,-1656.48 642.18,-1663.11 638.65,-1657.68 642.87,-1658.65 642.87,-1658.65 642.87,-1658.65 638.65,-1657.68 644.2,-1654.34 633.45,-1656.48"/>
<text text-anchor="start" x="650.52" y="-1668.8" font-family="Arial" font-size="10.00">FOREIGN KEY (assessment_id) REFERENCES assessments(id) ON DELETE CASCADE</text>
</g>
</g>
</svg>
