<?xml version="1.0" encoding="UTF-8" standalone="no"?>
<!DOCTYPE svg PUBLIC "-//W3C//DTD SVG 1.1//EN"
 "http://www.w3.org/Graphics/SVG/1.1/DTD/svg11.dtd">
<!-- Generated by graphviz version 12.1.2 (20240928.0832)
 -->
<!-- Title: public.disaster_documents Pages: 1 -->
<svg width="764pt" height="1187pt"
 viewBox="0.00 0.00 764.23 1187.20" xmlns="http://www.w3.org/2000/svg" xmlns:xlink="http://www.w3.org/1999/xlink">
<g id="graph0" class="graph" transform="scale(1 1) rotate(0) translate(4 1183.2)">
<title>public.disaster_documents</title>
<polygon fill="white" stroke="none" points="-4,4 -4,-1183.2 760.23,-1183.2 760.23,4 -4,4"/>
<!-- public.disaster_documents -->
<g id="node1" class="node">
<title>public.disaster_documents</title>
<polygon fill="#efefef" stroke="none" points="46.2,-1097.4 46.2,-1133 376.15,-1133 376.15,-1097.4 46.2,-1097.4"/>
<polygon fill="none" stroke="black" points="46.2,-1097.4 46.2,-1133 376.15,-1133 376.15,-1097.4 46.2,-1097.4"/>
<text text-anchor="start" x="53.2" y="-1110.8" font-family="Arial Bold" font-size="18.00">public.disaster_documents</text>
<text text-anchor="start" x="244.66" y="-1110.8" font-family="Arial" font-size="14.00">    </text>
<text text-anchor="start" x="275.78" y="-1110.8" font-family="Arial" font-size="14.00" fill="#666666">[BASE TABLE]</text>
<polygon fill="none" stroke="black" points="46.2,-1066.6 46.2,-1097.4 376.15,-1097.4 376.15,-1066.6 46.2,-1066.6"/>
<text text-anchor="start" x="53.2" y="-1078.8" font-family="Arial" font-size="14.00">id </text>
<text text-anchor="start" x="67.99" y="-1078.8" font-family="Arial" font-size="14.00" fill="#666666">[integer]</text>
<polygon fill="none" stroke="black" points="46.2,-1035.8 46.2,-1066.6 376.15,-1066.6 376.15,-1035.8 46.2,-1035.8"/>
<text text-anchor="start" x="53.2" y="-1048" font-family="Arial" font-size="14.00">disaster_id </text>
<text text-anchor="start" x="124.79" y="-1048" font-family="Arial" font-size="14.00" fill="#666666">[uuid]</text>
<polygon fill="none" stroke="black" points="46.2,-1005 46.2,-1035.8 376.15,-1035.8 376.15,-1005 46.2,-1005"/>
<text text-anchor="start" x="53.2" y="-1017.2" font-family="Arial" font-size="14.00">title </text>
<text text-anchor="start" x="78.88" y="-1017.2" font-family="Arial" font-size="14.00" fill="#666666">[varchar(255)]</text>
<polygon fill="none" stroke="black" points="46.2,-974.2 46.2,-1005 376.15,-1005 376.15,-974.2 46.2,-974.2"/>
<text text-anchor="start" x="53.2" y="-986.4" font-family="Arial" font-size="14.00">document_type </text>
<text text-anchor="start" x="152.82" y="-986.4" font-family="Arial" font-size="14.00" fill="#666666">[varchar(50)]</text>
<polygon fill="none" stroke="black" points="46.2,-943.4 46.2,-974.2 376.15,-974.2 376.15,-943.4 46.2,-943.4"/>
<text text-anchor="start" x="53.2" y="-955.6" font-family="Arial" font-size="14.00">file_path </text>
<text text-anchor="start" x="110.02" y="-955.6" font-family="Arial" font-size="14.00" fill="#666666">[varchar(500)]</text>
<polygon fill="none" stroke="black" points="46.2,-912.6 46.2,-943.4 376.15,-943.4 376.15,-912.6 46.2,-912.6"/>
<text text-anchor="start" x="53.2" y="-924.8" font-family="Arial" font-size="14.00">mime_type </text>
<text text-anchor="start" x="125.56" y="-924.8" font-family="Arial" font-size="14.00" fill="#666666">[varchar(100)]</text>
<polygon fill="none" stroke="black" points="46.2,-881.8 46.2,-912.6 376.15,-912.6 376.15,-881.8 46.2,-881.8"/>
<text text-anchor="start" x="53.2" y="-894" font-family="Arial" font-size="14.00">description </text>
<text text-anchor="start" x="124.79" y="-894" font-family="Arial" font-size="14.00" fill="#666666">[text]</text>
<polygon fill="none" stroke="black" points="46.2,-851 46.2,-881.8 376.15,-881.8 376.15,-851 46.2,-851"/>
<text text-anchor="start" x="53.2" y="-863.2" font-family="Arial" font-size="14.00">uploaded_by </text>
<text text-anchor="start" x="137.28" y="-863.2" font-family="Arial" font-size="14.00" fill="#666666">[varchar(255)]</text>
<polygon fill="none" stroke="black" points="46.2,-820.2 46.2,-851 376.15,-851 376.15,-820.2 46.2,-820.2"/>
<text text-anchor="start" x="53.2" y="-832.4" font-family="Arial" font-size="14.00">is_public </text>
<text text-anchor="start" x="111.57" y="-832.4" font-family="Arial" font-size="14.00" fill="#666666">[boolean]</text>
<polygon fill="none" stroke="black" points="46.2,-789.4 46.2,-820.2 376.15,-820.2 376.15,-789.4 46.2,-789.4"/>
<text text-anchor="start" x="53.2" y="-801.6" font-family="Arial" font-size="14.00">upload_date </text>
<text text-anchor="start" x="134.16" y="-801.6" font-family="Arial" font-size="14.00" fill="#666666">[timestamp without time zone]</text>
<polygon fill="none" stroke="black" points="46.2,-758.6 46.2,-789.4 376.15,-789.4 376.15,-758.6 46.2,-758.6"/>
<text text-anchor="start" x="53.2" y="-770.8" font-family="Arial" font-size="14.00">created_at </text>
<text text-anchor="start" x="123.25" y="-770.8" font-family="Arial" font-size="14.00" fill="#666666">[timestamp without time zone]</text>
<polygon fill="none" stroke="black" points="46.2,-727.8 46.2,-758.6 376.15,-758.6 376.15,-727.8 46.2,-727.8"/>
<text text-anchor="start" x="53.2" y="-740" font-family="Arial" font-size="14.00">updated_at </text>
<text text-anchor="start" x="127.16" y="-740" font-family="Arial" font-size="14.00" fill="#666666">[timestamp without time zone]</text>
<polygon fill="none" stroke="black" points="46.2,-697 46.2,-727.8 376.15,-727.8 376.15,-697 46.2,-697"/>
<text text-anchor="start" x="53.2" y="-709.2" font-family="Arial" font-size="14.00">deleted_at </text>
<text text-anchor="start" x="122.48" y="-709.2" font-family="Arial" font-size="14.00" fill="#666666">[timestamp without time zone]</text>
<polygon fill="none" stroke="black" stroke-width="3" points="44.7,-695.5 44.7,-1134.5 377.65,-1134.5 377.65,-695.5 44.7,-695.5"/>
</g>
<!-- public.disasters -->
<g id="node2" class="node">
<title>public.disasters</title>
<polygon fill="#efefef" stroke="none" points="68.38,-536 68.38,-571.6 353.97,-571.6 353.97,-536 68.38,-536"/>
<polygon fill="none" stroke="black" points="68.38,-536 68.38,-571.6 353.97,-571.6 353.97,-536 68.38,-536"/>
<text text-anchor="start" x="93.19" y="-549.4" font-family="Arial Bold" font-size="18.00">public.disasters</text>
<text text-anchor="start" x="204.67" y="-549.4" font-family="Arial" font-size="14.00">    </text>
<text text-anchor="start" x="235.79" y="-549.4" font-family="Arial" font-size="14.00" fill="#666666">[BASE TABLE]</text>
<polygon fill="none" stroke="black" points="68.38,-505.2 68.38,-536 353.97,-536 353.97,-505.2 68.38,-505.2"/>
<text text-anchor="start" x="75.38" y="-517.4" font-family="Arial" font-size="14.00">id </text>
<text text-anchor="start" x="90.17" y="-517.4" font-family="Arial" font-size="14.00" fill="#666666">[uuid]</text>
<polygon fill="none" stroke="black" points="68.38,-474.4 68.38,-505.2 353.97,-505.2 353.97,-474.4 68.38,-474.4"/>
<text text-anchor="start" x="75.38" y="-486.6" font-family="Arial" font-size="14.00">name </text>
<text text-anchor="start" x="114.29" y="-486.6" font-family="Arial" font-size="14.00" fill="#666666">[varchar(100)]</text>
<polygon fill="none" stroke="black" points="68.38,-443.6 68.38,-474.4 353.97,-474.4 353.97,-443.6 68.38,-443.6"/>
<text text-anchor="start" x="75.38" y="-455.8" font-family="Arial" font-size="14.00">municipality_id </text>
<text text-anchor="start" x="171.09" y="-455.8" font-family="Arial" font-size="14.00" fill="#666666">[integer]</text>
<polygon fill="none" stroke="black" points="68.38,-412.8 68.38,-443.6 353.97,-443.6 353.97,-412.8 68.38,-412.8"/>
<text text-anchor="start" x="75.38" y="-425" font-family="Arial" font-size="14.00">occurred_at </text>
<text text-anchor="start" x="153.2" y="-425" font-family="Arial" font-size="14.00" fill="#666666">[timestamp with time zone]</text>
<polygon fill="none" stroke="black" points="68.38,-382 68.38,-412.8 353.97,-412.8 353.97,-382 68.38,-382"/>
<text text-anchor="start" x="75.38" y="-394.2" font-family="Arial" font-size="14.00">summary </text>
<text text-anchor="start" x="136.83" y="-394.2" font-family="Arial" font-size="14.00" fill="#666666">[text]</text>
<polygon fill="none" stroke="black" points="68.38,-351.2 68.38,-382 353.97,-382 353.97,-351.2 68.38,-351.2"/>
<text text-anchor="start" x="75.38" y="-363.4" font-family="Arial" font-size="14.00">work_category_id </text>
<text text-anchor="start" x="188.99" y="-363.4" font-family="Arial" font-size="14.00" fill="#666666">[bigint]</text>
<polygon fill="none" stroke="black" points="68.38,-320.4 68.38,-351.2 353.97,-351.2 353.97,-320.4 68.38,-320.4"/>
<text text-anchor="start" x="75.38" y="-332.6" font-family="Arial" font-size="14.00">status </text>
<text text-anchor="start" x="116.62" y="-332.6" font-family="Arial" font-size="14.00" fill="#666666">[disaster_status]</text>
<polygon fill="none" stroke="black" points="68.38,-289.6 68.38,-320.4 353.97,-320.4 353.97,-289.6 68.38,-289.6"/>
<text text-anchor="start" x="75.38" y="-301.8" font-family="Arial" font-size="14.00">affected_area_size </text>
<text text-anchor="start" x="197.57" y="-301.8" font-family="Arial" font-size="14.00" fill="#666666">[numeric(10,2)]</text>
<polygon fill="none" stroke="black" points="68.38,-258.8 68.38,-289.6 353.97,-289.6 353.97,-258.8 68.38,-258.8"/>
<text text-anchor="start" x="75.38" y="-271" font-family="Arial" font-size="14.00">estimated_damage_amount </text>
<text text-anchor="start" x="252.83" y="-271" font-family="Arial" font-size="14.00" fill="#666666">[numeric(15,2)]</text>
<polygon fill="none" stroke="black" points="68.38,-228 68.38,-258.8 353.97,-258.8 353.97,-228 68.38,-228"/>
<text text-anchor="start" x="75.38" y="-240.2" font-family="Arial" font-size="14.00">latitude </text>
<text text-anchor="start" x="124.41" y="-240.2" font-family="Arial" font-size="14.00" fill="#666666">[numeric(10,8)]</text>
<polygon fill="none" stroke="black" points="68.38,-197.2 68.38,-228 353.97,-228 353.97,-197.2 68.38,-197.2"/>
<text text-anchor="start" x="75.38" y="-209.4" font-family="Arial" font-size="14.00">longitude </text>
<text text-anchor="start" x="136.1" y="-209.4" font-family="Arial" font-size="14.00" fill="#666666">[numeric(11,8)]</text>
<polygon fill="none" stroke="black" points="68.38,-166.4 68.38,-197.2 353.97,-197.2 353.97,-166.4 68.38,-166.4"/>
<text text-anchor="start" x="75.38" y="-178.6" font-family="Arial" font-size="14.00">address </text>
<text text-anchor="start" x="129.08" y="-178.6" font-family="Arial" font-size="14.00" fill="#666666">[text]</text>
<polygon fill="none" stroke="black" points="68.38,-135.6 68.38,-166.4 353.97,-166.4 353.97,-135.6 68.38,-135.6"/>
<text text-anchor="start" x="75.38" y="-147.8" font-family="Arial" font-size="14.00">place_id </text>
<text text-anchor="start" x="131.42" y="-147.8" font-family="Arial" font-size="14.00" fill="#666666">[varchar(255)]</text>
<polygon fill="none" stroke="black" points="68.38,-104.8 68.38,-135.6 353.97,-135.6 353.97,-104.8 68.38,-104.8"/>
<text text-anchor="start" x="75.38" y="-117" font-family="Arial" font-size="14.00">created_at </text>
<text text-anchor="start" x="145.43" y="-117" font-family="Arial" font-size="14.00" fill="#666666">[timestamp with time zone]</text>
<polygon fill="none" stroke="black" points="68.38,-74 68.38,-104.8 353.97,-104.8 353.97,-74 68.38,-74"/>
<text text-anchor="start" x="75.38" y="-86.2" font-family="Arial" font-size="14.00">updated_at </text>
<text text-anchor="start" x="149.34" y="-86.2" font-family="Arial" font-size="14.00" fill="#666666">[timestamp with time zone]</text>
<polygon fill="none" stroke="black" points="68.38,-43.2 68.38,-74 353.97,-74 353.97,-43.2 68.38,-43.2"/>
<text text-anchor="start" x="75.38" y="-55.4" font-family="Arial" font-size="14.00">deleted_at </text>
<text text-anchor="start" x="144.66" y="-55.4" font-family="Arial" font-size="14.00" fill="#666666">[timestamp with time zone]</text>
</g>
<!-- public.disaster_documents&#45;&gt;public.disasters -->
<g id="edge1" class="edge">
<title>public.disaster_documents:disaster_id&#45;&gt;public.disasters:id</title>
<path fill="none" stroke="black" d="M386.11,-1046.61C433.62,-994.75 410.75,-520.6 354.97,-520.6"/>
<polygon fill="black" stroke="black" points="386.35,-1046.49 375.4,-1047.04 381.6,-1048.92 377.75,-1050.9 377.75,-1050.9 377.75,-1050.9 381.6,-1048.92 379.5,-1055.05 386.35,-1046.49"/>
<text text-anchor="start" x="384.15" y="-1061.2" font-family="Arial" font-size="10.00">FOREIGN KEY (disaster_id) REFERENCES disasters(id) ON DELETE CASCADE</text>
</g>
</g>
</svg>
