<?xml version="1.0" encoding="UTF-8" standalone="no"?>
<!DOCTYPE svg PUBLIC "-//W3C//DTD SVG 1.1//EN"
 "http://www.w3.org/Graphics/SVG/1.1/DTD/svg11.dtd">
<!-- Generated by graphviz version 12.1.2 (20240928.0832)
 -->
<!-- Title: public.user_organizations Pages: 1 -->
<svg width="1100pt" height="941pt"
 viewBox="0.00 0.00 1099.92 940.80" xmlns="http://www.w3.org/2000/svg" xmlns:xlink="http://www.w3.org/1999/xlink">
<g id="graph0" class="graph" transform="scale(1 1) rotate(0) translate(4 936.8)">
<title>public.user_organizations</title>
<polygon fill="white" stroke="none" points="-4,4 -4,-936.8 1095.92,-936.8 1095.92,4 -4,4"/>
<!-- public.user_organizations -->
<g id="node1" class="node">
<title>public.user_organizations</title>
<polygon fill="#efefef" stroke="none" points="348.96,-851 348.96,-886.6 672.9,-886.6 672.9,-851 348.96,-851"/>
<polygon fill="none" stroke="black" points="348.96,-851 348.96,-886.6 672.9,-886.6 672.9,-851 348.96,-851"/>
<text text-anchor="start" x="355.96" y="-864.4" font-family="Arial Bold" font-size="18.00">public.user_organizations</text>
<text text-anchor="start" x="541.41" y="-864.4" font-family="Arial" font-size="14.00">    </text>
<text text-anchor="start" x="572.53" y="-864.4" font-family="Arial" font-size="14.00" fill="#666666">[BASE TABLE]</text>
<polygon fill="none" stroke="black" points="348.96,-820.2 348.96,-851 672.9,-851 672.9,-820.2 348.96,-820.2"/>
<text text-anchor="start" x="355.96" y="-832.4" font-family="Arial" font-size="14.00">user_id </text>
<text text-anchor="start" x="405.77" y="-832.4" font-family="Arial" font-size="14.00" fill="#666666">[uuid]</text>
<polygon fill="none" stroke="black" points="348.96,-789.4 348.96,-820.2 672.9,-820.2 672.9,-789.4 348.96,-789.4"/>
<text text-anchor="start" x="355.96" y="-801.6" font-family="Arial" font-size="14.00">organization_id </text>
<text text-anchor="start" x="454.81" y="-801.6" font-family="Arial" font-size="14.00" fill="#666666">[integer]</text>
<polygon fill="none" stroke="black" points="348.96,-758.6 348.96,-789.4 672.9,-789.4 672.9,-758.6 348.96,-758.6"/>
<text text-anchor="start" x="355.96" y="-770.8" font-family="Arial" font-size="14.00">is_primary </text>
<text text-anchor="start" x="424.42" y="-770.8" font-family="Arial" font-size="14.00" fill="#666666">[boolean]</text>
<polygon fill="none" stroke="black" points="348.96,-727.8 348.96,-758.6 672.9,-758.6 672.9,-727.8 348.96,-727.8"/>
<text text-anchor="start" x="355.96" y="-740" font-family="Arial" font-size="14.00">created_at </text>
<text text-anchor="start" x="426.01" y="-740" font-family="Arial" font-size="14.00" fill="#666666">[timestamp with time zone]</text>
<polygon fill="none" stroke="black" points="348.96,-697 348.96,-727.8 672.9,-727.8 672.9,-697 348.96,-697"/>
<text text-anchor="start" x="355.96" y="-709.2" font-family="Arial" font-size="14.00">updated_at </text>
<text text-anchor="start" x="429.92" y="-709.2" font-family="Arial" font-size="14.00" fill="#666666">[timestamp with time zone]</text>
<polygon fill="none" stroke="black" stroke-width="3" points="347.46,-695.5 347.46,-888.1 674.4,-888.1 674.4,-695.5 347.46,-695.5"/>
</g>
<!-- public.users -->
<g id="node2" class="node">
<title>public.users</title>
<polygon fill="#efefef" stroke="none" points="136.25,-536 136.25,-571.6 471.61,-571.6 471.61,-536 136.25,-536"/>
<polygon fill="none" stroke="black" points="136.25,-536 136.25,-571.6 471.61,-571.6 471.61,-536 136.25,-536"/>
<text text-anchor="start" x="198.44" y="-549.4" font-family="Arial Bold" font-size="18.00">public.users</text>
<text text-anchor="start" x="284.93" y="-549.4" font-family="Arial" font-size="14.00">    </text>
<text text-anchor="start" x="316.04" y="-549.4" font-family="Arial" font-size="14.00" fill="#666666">[BASE TABLE]</text>
<polygon fill="none" stroke="black" points="136.25,-505.2 136.25,-536 471.61,-536 471.61,-505.2 136.25,-505.2"/>
<text text-anchor="start" x="143.25" y="-517.4" font-family="Arial" font-size="14.00">id </text>
<text text-anchor="start" x="158.04" y="-517.4" font-family="Arial" font-size="14.00" fill="#666666">[uuid]</text>
<polygon fill="none" stroke="black" points="136.25,-474.4 136.25,-505.2 471.61,-505.2 471.61,-474.4 136.25,-474.4"/>
<text text-anchor="start" x="143.25" y="-486.6" font-family="Arial" font-size="14.00">name </text>
<text text-anchor="start" x="182.16" y="-486.6" font-family="Arial" font-size="14.00" fill="#666666">[varchar(255)]</text>
<polygon fill="none" stroke="black" points="136.25,-443.6 136.25,-474.4 471.61,-474.4 471.61,-443.6 136.25,-443.6"/>
<text text-anchor="start" x="143.25" y="-455.8" font-family="Arial" font-size="14.00">email </text>
<text text-anchor="start" x="180.6" y="-455.8" font-family="Arial" font-size="14.00" fill="#666666">[varchar(255)]</text>
<polygon fill="none" stroke="black" points="136.25,-412.8 136.25,-443.6 471.61,-443.6 471.61,-412.8 136.25,-412.8"/>
<text text-anchor="start" x="143.25" y="-425" font-family="Arial" font-size="14.00">password </text>
<text text-anchor="start" x="207.06" y="-425" font-family="Arial" font-size="14.00" fill="#666666">[varchar(255)]</text>
<polygon fill="none" stroke="black" points="136.25,-382 136.25,-412.8 471.61,-412.8 471.61,-382 136.25,-382"/>
<text text-anchor="start" x="143.25" y="-394.2" font-family="Arial" font-size="14.00">organization_id </text>
<text text-anchor="start" x="242.1" y="-394.2" font-family="Arial" font-size="14.00" fill="#666666">[integer]</text>
<polygon fill="none" stroke="black" points="136.25,-351.2 136.25,-382 471.61,-382 471.61,-351.2 136.25,-351.2"/>
<text text-anchor="start" x="143.25" y="-363.4" font-family="Arial" font-size="14.00">role_id </text>
<text text-anchor="start" x="189.17" y="-363.4" font-family="Arial" font-size="14.00" fill="#666666">[smallint]</text>
<polygon fill="none" stroke="black" points="136.25,-320.4 136.25,-351.2 471.61,-351.2 471.61,-320.4 136.25,-320.4"/>
<text text-anchor="start" x="143.25" y="-332.6" font-family="Arial" font-size="14.00">is_active </text>
<text text-anchor="start" x="201.61" y="-332.6" font-family="Arial" font-size="14.00" fill="#666666">[boolean]</text>
<polygon fill="none" stroke="black" points="136.25,-289.6 136.25,-320.4 471.61,-320.4 471.61,-289.6 136.25,-289.6"/>
<text text-anchor="start" x="143.25" y="-301.8" font-family="Arial" font-size="14.00">email_verified </text>
<text text-anchor="start" x="233.51" y="-301.8" font-family="Arial" font-size="14.00" fill="#666666">[boolean]</text>
<polygon fill="none" stroke="black" points="136.25,-258.8 136.25,-289.6 471.61,-289.6 471.61,-258.8 136.25,-258.8"/>
<text text-anchor="start" x="143.25" y="-271" font-family="Arial" font-size="14.00">mfa_enabled </text>
<text text-anchor="start" x="228.09" y="-271" font-family="Arial" font-size="14.00" fill="#666666">[boolean]</text>
<polygon fill="none" stroke="black" points="136.25,-228 136.25,-258.8 471.61,-258.8 471.61,-228 136.25,-228"/>
<text text-anchor="start" x="143.25" y="-240.2" font-family="Arial" font-size="14.00">mfa_secret </text>
<text text-anchor="start" x="216.39" y="-240.2" font-family="Arial" font-size="14.00" fill="#666666">[varchar(255)]</text>
<polygon fill="none" stroke="black" points="136.25,-197.2 136.25,-228 471.61,-228 471.61,-197.2 136.25,-197.2"/>
<text text-anchor="start" x="143.25" y="-209.4" font-family="Arial" font-size="14.00">password_reset_token </text>
<text text-anchor="start" x="288" y="-209.4" font-family="Arial" font-size="14.00" fill="#666666">[varchar(255)]</text>
<polygon fill="none" stroke="black" points="136.25,-166.4 136.25,-197.2 471.61,-197.2 471.61,-166.4 136.25,-166.4"/>
<text text-anchor="start" x="143.25" y="-178.6" font-family="Arial" font-size="14.00">password_reset_expires </text>
<text text-anchor="start" x="298.88" y="-178.6" font-family="Arial" font-size="14.00" fill="#666666">[timestamp with time zone]</text>
<polygon fill="none" stroke="black" points="136.25,-135.6 136.25,-166.4 471.61,-166.4 471.61,-135.6 136.25,-135.6"/>
<text text-anchor="start" x="143.25" y="-147.8" font-family="Arial" font-size="14.00">last_password_change </text>
<text text-anchor="start" x="290.35" y="-147.8" font-family="Arial" font-size="14.00" fill="#666666">[timestamp with time zone]</text>
<polygon fill="none" stroke="black" points="136.25,-104.8 136.25,-135.6 471.61,-135.6 471.61,-104.8 136.25,-104.8"/>
<text text-anchor="start" x="143.25" y="-117" font-family="Arial" font-size="14.00">created_at </text>
<text text-anchor="start" x="213.3" y="-117" font-family="Arial" font-size="14.00" fill="#666666">[timestamp with time zone]</text>
<polygon fill="none" stroke="black" points="136.25,-74 136.25,-104.8 471.61,-104.8 471.61,-74 136.25,-74"/>
<text text-anchor="start" x="143.25" y="-86.2" font-family="Arial" font-size="14.00">updated_at </text>
<text text-anchor="start" x="217.21" y="-86.2" font-family="Arial" font-size="14.00" fill="#666666">[timestamp with time zone]</text>
<polygon fill="none" stroke="black" points="136.25,-43.2 136.25,-74 471.61,-74 471.61,-43.2 136.25,-43.2"/>
<text text-anchor="start" x="143.25" y="-55.4" font-family="Arial" font-size="14.00">deleted_at </text>
<text text-anchor="start" x="212.53" y="-55.4" font-family="Arial" font-size="14.00" fill="#666666">[timestamp with time zone]</text>
</g>
<!-- public.user_organizations&#45;&gt;public.users -->
<g id="edge1" class="edge">
<title>public.user_organizations:user_id&#45;&gt;public.users:id</title>
<path fill="none" stroke="black" d="M337.58,-834.89C268.89,-825 301.78,-713.47 348.96,-650.8 383.13,-605.42 437.32,-660.1 471.61,-614.8 496.88,-581.42 514.48,-520.6 472.61,-520.6"/>
<polygon fill="black" stroke="black" points="337.65,-834.9 347.32,-840.07 342.97,-835.26 347.29,-835.55 347.29,-835.55 347.29,-835.55 342.97,-835.26 347.93,-831.09 337.65,-834.9"/>
<text text-anchor="start" x="7" y="-845.6" font-family="Arial" font-size="10.00">FOREIGN KEY (user_id) REFERENCES users(id) ON DELETE CASCADE</text>
</g>
<!-- public.organizations -->
<g id="node3" class="node">
<title>public.organizations</title>
<polygon fill="#efefef" stroke="none" points="576.45,-412.8 576.45,-448.4 861.4,-448.4 861.4,-412.8 576.45,-412.8"/>
<polygon fill="none" stroke="black" points="576.45,-412.8 576.45,-448.4 861.4,-448.4 861.4,-412.8 576.45,-412.8"/>
<text text-anchor="start" x="583.45" y="-426.2" font-family="Arial Bold" font-size="18.00">public.organizations</text>
<text text-anchor="start" x="729.92" y="-426.2" font-family="Arial" font-size="14.00">    </text>
<text text-anchor="start" x="761.03" y="-426.2" font-family="Arial" font-size="14.00" fill="#666666">[BASE TABLE]</text>
<polygon fill="none" stroke="black" points="576.45,-382 576.45,-412.8 861.4,-412.8 861.4,-382 576.45,-382"/>
<text text-anchor="start" x="583.45" y="-394.2" font-family="Arial" font-size="14.00">id </text>
<text text-anchor="start" x="598.24" y="-394.2" font-family="Arial" font-size="14.00" fill="#666666">[bigint]</text>
<polygon fill="none" stroke="black" points="576.45,-351.2 576.45,-382 861.4,-382 861.4,-351.2 576.45,-351.2"/>
<text text-anchor="start" x="583.45" y="-363.4" font-family="Arial" font-size="14.00">name </text>
<text text-anchor="start" x="622.36" y="-363.4" font-family="Arial" font-size="14.00" fill="#666666">[varchar(64)]</text>
<polygon fill="none" stroke="black" points="576.45,-320.4 576.45,-351.2 861.4,-351.2 861.4,-320.4 576.45,-320.4"/>
<text text-anchor="start" x="583.45" y="-332.6" font-family="Arial" font-size="14.00">type </text>
<text text-anchor="start" x="613.81" y="-332.6" font-family="Arial" font-size="14.00" fill="#666666">[varchar(50)]</text>
<polygon fill="none" stroke="black" points="576.45,-289.6 576.45,-320.4 861.4,-320.4 861.4,-289.6 576.45,-289.6"/>
<text text-anchor="start" x="583.45" y="-301.8" font-family="Arial" font-size="14.00">parent_id </text>
<text text-anchor="start" x="645.72" y="-301.8" font-family="Arial" font-size="14.00" fill="#666666">[integer]</text>
<polygon fill="none" stroke="black" points="576.45,-258.8 576.45,-289.6 861.4,-289.6 861.4,-258.8 576.45,-258.8"/>
<text text-anchor="start" x="583.45" y="-271" font-family="Arial" font-size="14.00">sort_order </text>
<text text-anchor="start" x="651.15" y="-271" font-family="Arial" font-size="14.00" fill="#666666">[integer]</text>
<polygon fill="none" stroke="black" points="576.45,-228 576.45,-258.8 861.4,-258.8 861.4,-228 576.45,-228"/>
<text text-anchor="start" x="583.45" y="-240.2" font-family="Arial" font-size="14.00">is_active </text>
<text text-anchor="start" x="641.81" y="-240.2" font-family="Arial" font-size="14.00" fill="#666666">[boolean]</text>
<polygon fill="none" stroke="black" points="576.45,-197.2 576.45,-228 861.4,-228 861.4,-197.2 576.45,-197.2"/>
<text text-anchor="start" x="583.45" y="-209.4" font-family="Arial" font-size="14.00">created_at </text>
<text text-anchor="start" x="653.5" y="-209.4" font-family="Arial" font-size="14.00" fill="#666666">[timestamp with time zone]</text>
<polygon fill="none" stroke="black" points="576.45,-166.4 576.45,-197.2 861.4,-197.2 861.4,-166.4 576.45,-166.4"/>
<text text-anchor="start" x="583.45" y="-178.6" font-family="Arial" font-size="14.00">updated_at </text>
<text text-anchor="start" x="657.41" y="-178.6" font-family="Arial" font-size="14.00" fill="#666666">[timestamp with time zone]</text>
</g>
<!-- public.user_organizations&#45;&gt;public.organizations -->
<g id="edge2" class="edge">
<title>public.user_organizations:organization_id&#45;&gt;public.organizations:id</title>
<path fill="none" stroke="black" d="M683.98,-804.42C815.45,-793.83 597.98,-567.14 576.45,-491.6 564.98,-451.33 533.59,-397.4 575.45,-397.4"/>
<polygon fill="black" stroke="black" points="684.23,-804.41 674.06,-800.29 678.89,-804.61 674.57,-804.77 674.57,-804.77 674.57,-804.77 678.89,-804.61 674.4,-809.28 684.23,-804.41"/>
<text text-anchor="start" x="680.9" y="-814.8" font-family="Arial" font-size="10.00">FOREIGN KEY (organization_id) REFERENCES organizations(id) ON DELETE CASCADE</text>
</g>
</g>
</svg>
