<?xml version="1.0" encoding="UTF-8" standalone="no"?>
<!DOCTYPE svg PUBLIC "-//W3C//DTD SVG 1.1//EN"
 "http://www.w3.org/Graphics/SVG/1.1/DTD/svg11.dtd">
<!-- Generated by graphviz version 12.1.2 (20240928.0832)
 -->
<!-- Title: public.disasters Pages: 1 -->
<svg width="1683pt" height="1280pt"
 viewBox="0.00 0.00 1682.75 1279.60" xmlns="http://www.w3.org/2000/svg" xmlns:xlink="http://www.w3.org/1999/xlink">
<g id="graph0" class="graph" transform="scale(1 1) rotate(0) translate(4 1275.6)">
<title>public.disasters</title>
<polygon fill="white" stroke="none" points="-4,4 -4,-1275.6 1678.75,-1275.6 1678.75,4 -4,4"/>
<!-- public.disasters -->
<g id="node1" class="node">
<title>public.disasters</title>
<polygon fill="#efefef" stroke="none" points="707.72,-539 707.72,-574.6 993.31,-574.6 993.31,-539 707.72,-539"/>
<polygon fill="none" stroke="black" points="707.72,-539 707.72,-574.6 993.31,-574.6 993.31,-539 707.72,-539"/>
<text text-anchor="start" x="732.53" y="-552.4" font-family="Arial Bold" font-size="18.00">public.disasters</text>
<text text-anchor="start" x="844.01" y="-552.4" font-family="Arial" font-size="14.00">    </text>
<text text-anchor="start" x="875.12" y="-552.4" font-family="Arial" font-size="14.00" fill="#666666">[BASE TABLE]</text>
<polygon fill="none" stroke="black" points="707.72,-508.2 707.72,-539 993.31,-539 993.31,-508.2 707.72,-508.2"/>
<text text-anchor="start" x="714.72" y="-520.4" font-family="Arial" font-size="14.00">id </text>
<text text-anchor="start" x="729.5" y="-520.4" font-family="Arial" font-size="14.00" fill="#666666">[uuid]</text>
<polygon fill="none" stroke="black" points="707.72,-477.4 707.72,-508.2 993.31,-508.2 993.31,-477.4 707.72,-477.4"/>
<text text-anchor="start" x="714.72" y="-489.6" font-family="Arial" font-size="14.00">name </text>
<text text-anchor="start" x="753.63" y="-489.6" font-family="Arial" font-size="14.00" fill="#666666">[varchar(100)]</text>
<polygon fill="none" stroke="black" points="707.72,-446.6 707.72,-477.4 993.31,-477.4 993.31,-446.6 707.72,-446.6"/>
<text text-anchor="start" x="714.72" y="-458.8" font-family="Arial" font-size="14.00">municipality_id </text>
<text text-anchor="start" x="810.43" y="-458.8" font-family="Arial" font-size="14.00" fill="#666666">[integer]</text>
<polygon fill="none" stroke="black" points="707.72,-415.8 707.72,-446.6 993.31,-446.6 993.31,-415.8 707.72,-415.8"/>
<text text-anchor="start" x="714.72" y="-428" font-family="Arial" font-size="14.00">occurred_at </text>
<text text-anchor="start" x="792.54" y="-428" font-family="Arial" font-size="14.00" fill="#666666">[timestamp with time zone]</text>
<polygon fill="none" stroke="black" points="707.72,-385 707.72,-415.8 993.31,-415.8 993.31,-385 707.72,-385"/>
<text text-anchor="start" x="714.72" y="-397.2" font-family="Arial" font-size="14.00">summary </text>
<text text-anchor="start" x="776.16" y="-397.2" font-family="Arial" font-size="14.00" fill="#666666">[text]</text>
<polygon fill="none" stroke="black" points="707.72,-354.2 707.72,-385 993.31,-385 993.31,-354.2 707.72,-354.2"/>
<text text-anchor="start" x="714.72" y="-366.4" font-family="Arial" font-size="14.00">work_category_id </text>
<text text-anchor="start" x="828.33" y="-366.4" font-family="Arial" font-size="14.00" fill="#666666">[bigint]</text>
<polygon fill="none" stroke="black" points="707.72,-323.4 707.72,-354.2 993.31,-354.2 993.31,-323.4 707.72,-323.4"/>
<text text-anchor="start" x="714.72" y="-335.6" font-family="Arial" font-size="14.00">status </text>
<text text-anchor="start" x="755.96" y="-335.6" font-family="Arial" font-size="14.00" fill="#666666">[disaster_status]</text>
<polygon fill="none" stroke="black" points="707.72,-292.6 707.72,-323.4 993.31,-323.4 993.31,-292.6 707.72,-292.6"/>
<text text-anchor="start" x="714.72" y="-304.8" font-family="Arial" font-size="14.00">affected_area_size </text>
<text text-anchor="start" x="836.91" y="-304.8" font-family="Arial" font-size="14.00" fill="#666666">[numeric(10,2)]</text>
<polygon fill="none" stroke="black" points="707.72,-261.8 707.72,-292.6 993.31,-292.6 993.31,-261.8 707.72,-261.8"/>
<text text-anchor="start" x="714.72" y="-274" font-family="Arial" font-size="14.00">estimated_damage_amount </text>
<text text-anchor="start" x="892.16" y="-274" font-family="Arial" font-size="14.00" fill="#666666">[numeric(15,2)]</text>
<polygon fill="none" stroke="black" points="707.72,-231 707.72,-261.8 993.31,-261.8 993.31,-231 707.72,-231"/>
<text text-anchor="start" x="714.72" y="-243.2" font-family="Arial" font-size="14.00">latitude </text>
<text text-anchor="start" x="763.75" y="-243.2" font-family="Arial" font-size="14.00" fill="#666666">[numeric(10,8)]</text>
<polygon fill="none" stroke="black" points="707.72,-200.2 707.72,-231 993.31,-231 993.31,-200.2 707.72,-200.2"/>
<text text-anchor="start" x="714.72" y="-212.4" font-family="Arial" font-size="14.00">longitude </text>
<text text-anchor="start" x="775.43" y="-212.4" font-family="Arial" font-size="14.00" fill="#666666">[numeric(11,8)]</text>
<polygon fill="none" stroke="black" points="707.72,-169.4 707.72,-200.2 993.31,-200.2 993.31,-169.4 707.72,-169.4"/>
<text text-anchor="start" x="714.72" y="-181.6" font-family="Arial" font-size="14.00">address </text>
<text text-anchor="start" x="768.41" y="-181.6" font-family="Arial" font-size="14.00" fill="#666666">[text]</text>
<polygon fill="none" stroke="black" points="707.72,-138.6 707.72,-169.4 993.31,-169.4 993.31,-138.6 707.72,-138.6"/>
<text text-anchor="start" x="714.72" y="-150.8" font-family="Arial" font-size="14.00">place_id </text>
<text text-anchor="start" x="770.76" y="-150.8" font-family="Arial" font-size="14.00" fill="#666666">[varchar(255)]</text>
<polygon fill="none" stroke="black" points="707.72,-107.8 707.72,-138.6 993.31,-138.6 993.31,-107.8 707.72,-107.8"/>
<text text-anchor="start" x="714.72" y="-120" font-family="Arial" font-size="14.00">created_at </text>
<text text-anchor="start" x="784.76" y="-120" font-family="Arial" font-size="14.00" fill="#666666">[timestamp with time zone]</text>
<polygon fill="none" stroke="black" points="707.72,-77 707.72,-107.8 993.31,-107.8 993.31,-77 707.72,-77"/>
<text text-anchor="start" x="714.72" y="-89.2" font-family="Arial" font-size="14.00">updated_at </text>
<text text-anchor="start" x="788.67" y="-89.2" font-family="Arial" font-size="14.00" fill="#666666">[timestamp with time zone]</text>
<polygon fill="none" stroke="black" points="707.72,-46.2 707.72,-77 993.31,-77 993.31,-46.2 707.72,-46.2"/>
<text text-anchor="start" x="714.72" y="-58.4" font-family="Arial" font-size="14.00">deleted_at </text>
<text text-anchor="start" x="784" y="-58.4" font-family="Arial" font-size="14.00" fill="#666666">[timestamp with time zone]</text>
<polygon fill="none" stroke="black" stroke-width="3" points="706.22,-44.7 706.22,-576.1 994.81,-576.1 994.81,-44.7 706.22,-44.7"/>
</g>
<!-- public.timelines -->
<g id="node2" class="node">
<title>public.timelines</title>
<polygon fill="#efefef" stroke="none" points="104.94,-1085 104.94,-1120.6 378.08,-1120.6 378.08,-1085 104.94,-1085"/>
<polygon fill="none" stroke="black" points="104.94,-1085 104.94,-1120.6 378.08,-1120.6 378.08,-1085 104.94,-1085"/>
<text text-anchor="start" x="121.53" y="-1098.4" font-family="Arial Bold" font-size="18.00">public.timelines</text>
<text text-anchor="start" x="237.01" y="-1098.4" font-family="Arial" font-size="14.00">    </text>
<text text-anchor="start" x="268.12" y="-1098.4" font-family="Arial" font-size="14.00" fill="#666666">[BASE TABLE]</text>
<polygon fill="none" stroke="black" points="104.94,-1054.2 104.94,-1085 378.08,-1085 378.08,-1054.2 104.94,-1054.2"/>
<text text-anchor="start" x="111.94" y="-1066.4" font-family="Arial" font-size="14.00">id </text>
<text text-anchor="start" x="126.73" y="-1066.4" font-family="Arial" font-size="14.00" fill="#666666">[integer]</text>
<polygon fill="none" stroke="black" points="104.94,-1023.4 104.94,-1054.2 378.08,-1054.2 378.08,-1023.4 104.94,-1023.4"/>
<text text-anchor="start" x="111.94" y="-1035.6" font-family="Arial" font-size="14.00">disaster_id </text>
<text text-anchor="start" x="183.53" y="-1035.6" font-family="Arial" font-size="14.00" fill="#666666">[uuid]</text>
<polygon fill="none" stroke="black" points="104.94,-992.6 104.94,-1023.4 378.08,-1023.4 378.08,-992.6 104.94,-992.6"/>
<text text-anchor="start" x="111.94" y="-1004.8" font-family="Arial" font-size="14.00">event_name </text>
<text text-anchor="start" x="192.88" y="-1004.8" font-family="Arial" font-size="14.00" fill="#666666">[varchar(255)]</text>
<polygon fill="none" stroke="black" points="104.94,-961.8 104.94,-992.6 378.08,-992.6 378.08,-961.8 104.94,-961.8"/>
<text text-anchor="start" x="111.94" y="-974" font-family="Arial" font-size="14.00">event_time </text>
<text text-anchor="start" x="184.31" y="-974" font-family="Arial" font-size="14.00" fill="#666666">[timestamp without time zone]</text>
<polygon fill="none" stroke="black" points="104.94,-931 104.94,-961.8 378.08,-961.8 378.08,-931 104.94,-931"/>
<text text-anchor="start" x="111.94" y="-943.2" font-family="Arial" font-size="14.00">description </text>
<text text-anchor="start" x="183.53" y="-943.2" font-family="Arial" font-size="14.00" fill="#666666">[text]</text>
<polygon fill="none" stroke="black" points="104.94,-900.2 104.94,-931 378.08,-931 378.08,-900.2 104.94,-900.2"/>
<text text-anchor="start" x="111.94" y="-912.4" font-family="Arial" font-size="14.00">severity </text>
<text text-anchor="start" x="164.06" y="-912.4" font-family="Arial" font-size="14.00" fill="#666666">[varchar(50)]</text>
<polygon fill="none" stroke="black" points="104.94,-869.4 104.94,-900.2 378.08,-900.2 378.08,-869.4 104.94,-869.4"/>
<text text-anchor="start" x="111.94" y="-881.6" font-family="Arial" font-size="14.00">created_at </text>
<text text-anchor="start" x="181.99" y="-881.6" font-family="Arial" font-size="14.00" fill="#666666">[timestamp without time zone]</text>
<polygon fill="none" stroke="black" points="104.94,-838.6 104.94,-869.4 378.08,-869.4 378.08,-838.6 104.94,-838.6"/>
<text text-anchor="start" x="111.94" y="-850.8" font-family="Arial" font-size="14.00">updated_at </text>
<text text-anchor="start" x="185.9" y="-850.8" font-family="Arial" font-size="14.00" fill="#666666">[timestamp without time zone]</text>
<polygon fill="none" stroke="black" points="104.94,-807.8 104.94,-838.6 378.08,-838.6 378.08,-807.8 104.94,-807.8"/>
<text text-anchor="start" x="111.94" y="-820" font-family="Arial" font-size="14.00">deleted_at </text>
<text text-anchor="start" x="181.22" y="-820" font-family="Arial" font-size="14.00" fill="#666666">[timestamp without time zone]</text>
</g>
<!-- public.timelines&#45;&gt;public.disasters -->
<g id="edge1" class="edge">
<title>public.timelines:disaster_id&#45;&gt;public.disasters:id</title>
<path fill="none" stroke="black" d="M389.21,-1037.11C457.72,-1012.38 382.37,-723.15 430.51,-656.8 510.54,-546.49 570.43,-523.6 706.72,-523.6"/>
<polygon fill="black" stroke="black" points="389.28,-1037.1 378.67,-1034.31 384.01,-1037.98 379.74,-1038.69 379.74,-1038.69 379.74,-1038.69 384.01,-1037.98 380.15,-1043.18 389.28,-1037.1"/>
<text text-anchor="start" x="7" y="-1048.8" font-family="Arial" font-size="10.00">FOREIGN KEY (disaster_id) REFERENCES disasters(id) ON DELETE CASCADE</text>
</g>
<!-- public.disaster_documents -->
<g id="node3" class="node">
<title>public.disaster_documents</title>
<polygon fill="#efefef" stroke="none" points="482.54,-1146.6 482.54,-1182.2 812.49,-1182.2 812.49,-1146.6 482.54,-1146.6"/>
<polygon fill="none" stroke="black" points="482.54,-1146.6 482.54,-1182.2 812.49,-1182.2 812.49,-1146.6 482.54,-1146.6"/>
<text text-anchor="start" x="489.54" y="-1160" font-family="Arial Bold" font-size="18.00">public.disaster_documents</text>
<text text-anchor="start" x="681" y="-1160" font-family="Arial" font-size="14.00">    </text>
<text text-anchor="start" x="712.11" y="-1160" font-family="Arial" font-size="14.00" fill="#666666">[BASE TABLE]</text>
<polygon fill="none" stroke="black" points="482.54,-1115.8 482.54,-1146.6 812.49,-1146.6 812.49,-1115.8 482.54,-1115.8"/>
<text text-anchor="start" x="489.54" y="-1128" font-family="Arial" font-size="14.00">id </text>
<text text-anchor="start" x="504.32" y="-1128" font-family="Arial" font-size="14.00" fill="#666666">[integer]</text>
<polygon fill="none" stroke="black" points="482.54,-1085 482.54,-1115.8 812.49,-1115.8 812.49,-1085 482.54,-1085"/>
<text text-anchor="start" x="489.54" y="-1097.2" font-family="Arial" font-size="14.00">disaster_id </text>
<text text-anchor="start" x="561.13" y="-1097.2" font-family="Arial" font-size="14.00" fill="#666666">[uuid]</text>
<polygon fill="none" stroke="black" points="482.54,-1054.2 482.54,-1085 812.49,-1085 812.49,-1054.2 482.54,-1054.2"/>
<text text-anchor="start" x="489.54" y="-1066.4" font-family="Arial" font-size="14.00">title </text>
<text text-anchor="start" x="515.21" y="-1066.4" font-family="Arial" font-size="14.00" fill="#666666">[varchar(255)]</text>
<polygon fill="none" stroke="black" points="482.54,-1023.4 482.54,-1054.2 812.49,-1054.2 812.49,-1023.4 482.54,-1023.4"/>
<text text-anchor="start" x="489.54" y="-1035.6" font-family="Arial" font-size="14.00">document_type </text>
<text text-anchor="start" x="589.16" y="-1035.6" font-family="Arial" font-size="14.00" fill="#666666">[varchar(50)]</text>
<polygon fill="none" stroke="black" points="482.54,-992.6 482.54,-1023.4 812.49,-1023.4 812.49,-992.6 482.54,-992.6"/>
<text text-anchor="start" x="489.54" y="-1004.8" font-family="Arial" font-size="14.00">file_path </text>
<text text-anchor="start" x="546.36" y="-1004.8" font-family="Arial" font-size="14.00" fill="#666666">[varchar(500)]</text>
<polygon fill="none" stroke="black" points="482.54,-961.8 482.54,-992.6 812.49,-992.6 812.49,-961.8 482.54,-961.8"/>
<text text-anchor="start" x="489.54" y="-974" font-family="Arial" font-size="14.00">mime_type </text>
<text text-anchor="start" x="561.89" y="-974" font-family="Arial" font-size="14.00" fill="#666666">[varchar(100)]</text>
<polygon fill="none" stroke="black" points="482.54,-931 482.54,-961.8 812.49,-961.8 812.49,-931 482.54,-931"/>
<text text-anchor="start" x="489.54" y="-943.2" font-family="Arial" font-size="14.00">description </text>
<text text-anchor="start" x="561.13" y="-943.2" font-family="Arial" font-size="14.00" fill="#666666">[text]</text>
<polygon fill="none" stroke="black" points="482.54,-900.2 482.54,-931 812.49,-931 812.49,-900.2 482.54,-900.2"/>
<text text-anchor="start" x="489.54" y="-912.4" font-family="Arial" font-size="14.00">uploaded_by </text>
<text text-anchor="start" x="573.61" y="-912.4" font-family="Arial" font-size="14.00" fill="#666666">[varchar(255)]</text>
<polygon fill="none" stroke="black" points="482.54,-869.4 482.54,-900.2 812.49,-900.2 812.49,-869.4 482.54,-869.4"/>
<text text-anchor="start" x="489.54" y="-881.6" font-family="Arial" font-size="14.00">is_public </text>
<text text-anchor="start" x="547.9" y="-881.6" font-family="Arial" font-size="14.00" fill="#666666">[boolean]</text>
<polygon fill="none" stroke="black" points="482.54,-838.6 482.54,-869.4 812.49,-869.4 812.49,-838.6 482.54,-838.6"/>
<text text-anchor="start" x="489.54" y="-850.8" font-family="Arial" font-size="14.00">upload_date </text>
<text text-anchor="start" x="570.5" y="-850.8" font-family="Arial" font-size="14.00" fill="#666666">[timestamp without time zone]</text>
<polygon fill="none" stroke="black" points="482.54,-807.8 482.54,-838.6 812.49,-838.6 812.49,-807.8 482.54,-807.8"/>
<text text-anchor="start" x="489.54" y="-820" font-family="Arial" font-size="14.00">created_at </text>
<text text-anchor="start" x="559.58" y="-820" font-family="Arial" font-size="14.00" fill="#666666">[timestamp without time zone]</text>
<polygon fill="none" stroke="black" points="482.54,-777 482.54,-807.8 812.49,-807.8 812.49,-777 482.54,-777"/>
<text text-anchor="start" x="489.54" y="-789.2" font-family="Arial" font-size="14.00">updated_at </text>
<text text-anchor="start" x="563.49" y="-789.2" font-family="Arial" font-size="14.00" fill="#666666">[timestamp without time zone]</text>
<polygon fill="none" stroke="black" points="482.54,-746.2 482.54,-777 812.49,-777 812.49,-746.2 482.54,-746.2"/>
<text text-anchor="start" x="489.54" y="-758.4" font-family="Arial" font-size="14.00">deleted_at </text>
<text text-anchor="start" x="558.82" y="-758.4" font-family="Arial" font-size="14.00" fill="#666666">[timestamp without time zone]</text>
</g>
<!-- public.disaster_documents&#45;&gt;public.disasters -->
<g id="edge2" class="edge">
<title>public.disaster_documents:disaster_id&#45;&gt;public.disasters:id</title>
<path fill="none" stroke="black" d="M823.66,-1098.83C897.67,-1074.71 849.63,-779.11 812.49,-703 786.53,-649.81 733.88,-673.89 707.72,-620.8 688.62,-582.05 663.51,-523.6 706.72,-523.6"/>
<polygon fill="black" stroke="black" points="823.7,-1098.83 813.13,-1095.9 818.43,-1099.64 814.15,-1100.3 814.15,-1100.3 814.15,-1100.3 818.43,-1099.64 814.5,-1104.8 823.7,-1098.83"/>
<text text-anchor="start" x="820.49" y="-1110.4" font-family="Arial" font-size="10.00">FOREIGN KEY (disaster_id) REFERENCES disasters(id) ON DELETE CASCADE</text>
</g>
<!-- public.assessments -->
<g id="node4" class="node">
<title>public.assessments</title>
<polygon fill="#efefef" stroke="none" points="917.02,-1192.8 917.02,-1228.4 1192,-1228.4 1192,-1192.8 917.02,-1192.8"/>
<polygon fill="none" stroke="black" points="917.02,-1192.8 917.02,-1228.4 1192,-1228.4 1192,-1192.8 917.02,-1192.8"/>
<text text-anchor="start" x="924.02" y="-1206.2" font-family="Arial Bold" font-size="18.00">public.assessments</text>
<text text-anchor="start" x="1060.51" y="-1206.2" font-family="Arial" font-size="14.00">    </text>
<text text-anchor="start" x="1091.63" y="-1206.2" font-family="Arial" font-size="14.00" fill="#666666">[BASE TABLE]</text>
<polygon fill="none" stroke="black" points="917.02,-1162 917.02,-1192.8 1192,-1192.8 1192,-1162 917.02,-1162"/>
<text text-anchor="start" x="924.02" y="-1174.2" font-family="Arial" font-size="14.00">id </text>
<text text-anchor="start" x="938.81" y="-1174.2" font-family="Arial" font-size="14.00" fill="#666666">[bigint]</text>
<polygon fill="none" stroke="black" points="917.02,-1131.2 917.02,-1162 1192,-1162 1192,-1131.2 917.02,-1131.2"/>
<text text-anchor="start" x="924.02" y="-1143.4" font-family="Arial" font-size="14.00">disaster_id </text>
<text text-anchor="start" x="995.62" y="-1143.4" font-family="Arial" font-size="14.00" fill="#666666">[uuid]</text>
<polygon fill="none" stroke="black" points="917.02,-1100.4 917.02,-1131.2 1192,-1131.2 1192,-1100.4 917.02,-1100.4"/>
<text text-anchor="start" x="924.02" y="-1112.6" font-family="Arial" font-size="14.00">user_id </text>
<text text-anchor="start" x="973.83" y="-1112.6" font-family="Arial" font-size="14.00" fill="#666666">[uuid]</text>
<polygon fill="none" stroke="black" points="917.02,-1069.6 917.02,-1100.4 1192,-1100.4 1192,-1069.6 917.02,-1069.6"/>
<text text-anchor="start" x="924.02" y="-1081.8" font-family="Arial" font-size="14.00">assessment_date </text>
<text text-anchor="start" x="1037.64" y="-1081.8" font-family="Arial" font-size="14.00" fill="#666666">[date]</text>
<polygon fill="none" stroke="black" points="917.02,-1038.8 917.02,-1069.6 1192,-1069.6 1192,-1038.8 917.02,-1038.8"/>
<text text-anchor="start" x="924.02" y="-1051" font-family="Arial" font-size="14.00">assessment_type </text>
<text text-anchor="start" x="1036.86" y="-1051" font-family="Arial" font-size="14.00" fill="#666666">[varchar(50)]</text>
<polygon fill="none" stroke="black" points="917.02,-1008 917.02,-1038.8 1192,-1038.8 1192,-1008 917.02,-1008"/>
<text text-anchor="start" x="924.02" y="-1020.2" font-family="Arial" font-size="14.00">status </text>
<text text-anchor="start" x="965.27" y="-1020.2" font-family="Arial" font-size="14.00" fill="#666666">[varchar(30)]</text>
<polygon fill="none" stroke="black" points="917.02,-977.2 917.02,-1008 1192,-1008 1192,-977.2 917.02,-977.2"/>
<text text-anchor="start" x="924.02" y="-989.4" font-family="Arial" font-size="14.00">assessment_method </text>
<text text-anchor="start" x="1057.09" y="-989.4" font-family="Arial" font-size="14.00" fill="#666666">[varchar(50)]</text>
<polygon fill="none" stroke="black" points="917.02,-946.4 917.02,-977.2 1192,-977.2 1192,-946.4 917.02,-946.4"/>
<text text-anchor="start" x="924.02" y="-958.6" font-family="Arial" font-size="14.00">assessment_summary </text>
<text text-anchor="start" x="1067.95" y="-958.6" font-family="Arial" font-size="14.00" fill="#666666">[text]</text>
<polygon fill="none" stroke="black" points="917.02,-915.6 917.02,-946.4 1192,-946.4 1192,-915.6 917.02,-915.6"/>
<text text-anchor="start" x="924.02" y="-927.8" font-family="Arial" font-size="14.00">damage_amount </text>
<text text-anchor="start" x="1032.99" y="-927.8" font-family="Arial" font-size="14.00" fill="#666666">[numeric(15,2)]</text>
<polygon fill="none" stroke="black" points="917.02,-884.8 917.02,-915.6 1192,-915.6 1192,-884.8 917.02,-884.8"/>
<text text-anchor="start" x="924.02" y="-897" font-family="Arial" font-size="14.00">approved_amount </text>
<text text-anchor="start" x="1040.77" y="-897" font-family="Arial" font-size="14.00" fill="#666666">[numeric(15,2)]</text>
<polygon fill="none" stroke="black" points="917.02,-854 917.02,-884.8 1192,-884.8 1192,-854 917.02,-854"/>
<text text-anchor="start" x="924.02" y="-866.2" font-family="Arial" font-size="14.00">approval_date </text>
<text text-anchor="start" x="1016.65" y="-866.2" font-family="Arial" font-size="14.00" fill="#666666">[timestamp with time zone]</text>
<polygon fill="none" stroke="black" points="917.02,-823.2 917.02,-854 1192,-854 1192,-823.2 917.02,-823.2"/>
<text text-anchor="start" x="924.02" y="-835.4" font-family="Arial" font-size="14.00">approved_by </text>
<text text-anchor="start" x="1008.86" y="-835.4" font-family="Arial" font-size="14.00" fill="#666666">[uuid]</text>
<polygon fill="none" stroke="black" points="917.02,-792.4 917.02,-823.2 1192,-823.2 1192,-792.4 917.02,-792.4"/>
<text text-anchor="start" x="924.02" y="-804.6" font-family="Arial" font-size="14.00">notes </text>
<text text-anchor="start" x="962.16" y="-804.6" font-family="Arial" font-size="14.00" fill="#666666">[text]</text>
<polygon fill="none" stroke="black" points="917.02,-761.6 917.02,-792.4 1192,-792.4 1192,-761.6 917.02,-761.6"/>
<text text-anchor="start" x="924.02" y="-773.8" font-family="Arial" font-size="14.00">created_at </text>
<text text-anchor="start" x="994.07" y="-773.8" font-family="Arial" font-size="14.00" fill="#666666">[timestamp with time zone]</text>
<polygon fill="none" stroke="black" points="917.02,-730.8 917.02,-761.6 1192,-761.6 1192,-730.8 917.02,-730.8"/>
<text text-anchor="start" x="924.02" y="-743" font-family="Arial" font-size="14.00">updated_at </text>
<text text-anchor="start" x="997.98" y="-743" font-family="Arial" font-size="14.00" fill="#666666">[timestamp with time zone]</text>
<polygon fill="none" stroke="black" points="917.02,-700 917.02,-730.8 1192,-730.8 1192,-700 917.02,-700"/>
<text text-anchor="start" x="924.02" y="-712.2" font-family="Arial" font-size="14.00">deleted_at </text>
<text text-anchor="start" x="993.31" y="-712.2" font-family="Arial" font-size="14.00" fill="#666666">[timestamp with time zone]</text>
</g>
<!-- public.assessments&#45;&gt;public.disasters -->
<g id="edge3" class="edge">
<title>public.assessments:disaster_id&#45;&gt;public.disasters:id</title>
<path fill="none" stroke="black" d="M907.01,-1141.91C864.79,-1094.31 889.61,-699.96 917.02,-656.8 937.13,-625.16 973.07,-652.36 993.31,-620.8 1016.62,-584.43 1037.51,-523.6 994.31,-523.6"/>
<polygon fill="black" stroke="black" points="906.86,-1141.83 913.65,-1150.44 911.59,-1144.29 915.43,-1146.29 915.43,-1146.29 915.43,-1146.29 911.59,-1144.29 917.81,-1142.45 906.86,-1141.83"/>
<text text-anchor="start" x="543.94" y="-1156.6" font-family="Arial" font-size="10.00">FOREIGN KEY (disaster_id) REFERENCES disasters(id) ON DELETE CASCADE</text>
</g>
<!-- public.gis_data -->
<g id="node5" class="node">
<title>public.gis_data</title>
<polygon fill="#efefef" stroke="none" points="1296.67,-1131.2 1296.67,-1166.8 1550.35,-1166.8 1550.35,-1131.2 1296.67,-1131.2"/>
<polygon fill="none" stroke="black" points="1296.67,-1131.2 1296.67,-1166.8 1550.35,-1166.8 1550.35,-1131.2 1296.67,-1131.2"/>
<text text-anchor="start" x="1306.53" y="-1144.6" font-family="Arial Bold" font-size="18.00">public.gis_data</text>
<text text-anchor="start" x="1416" y="-1144.6" font-family="Arial" font-size="14.00">    </text>
<text text-anchor="start" x="1447.12" y="-1144.6" font-family="Arial" font-size="14.00" fill="#666666">[BASE TABLE]</text>
<polygon fill="none" stroke="black" points="1296.67,-1100.4 1296.67,-1131.2 1550.35,-1131.2 1550.35,-1100.4 1296.67,-1100.4"/>
<text text-anchor="start" x="1303.67" y="-1112.6" font-family="Arial" font-size="14.00">id </text>
<text text-anchor="start" x="1318.46" y="-1112.6" font-family="Arial" font-size="14.00" fill="#666666">[integer]</text>
<polygon fill="none" stroke="black" points="1296.67,-1069.6 1296.67,-1100.4 1550.35,-1100.4 1550.35,-1069.6 1296.67,-1069.6"/>
<text text-anchor="start" x="1303.67" y="-1081.8" font-family="Arial" font-size="14.00">disaster_id </text>
<text text-anchor="start" x="1375.26" y="-1081.8" font-family="Arial" font-size="14.00" fill="#666666">[uuid]</text>
<polygon fill="none" stroke="black" points="1296.67,-1038.8 1296.67,-1069.6 1550.35,-1069.6 1550.35,-1038.8 1296.67,-1038.8"/>
<text text-anchor="start" x="1303.67" y="-1051" font-family="Arial" font-size="14.00">data_type </text>
<text text-anchor="start" x="1369.06" y="-1051" font-family="Arial" font-size="14.00" fill="#666666">[varchar(50)]</text>
<polygon fill="none" stroke="black" points="1296.67,-1008 1296.67,-1038.8 1550.35,-1038.8 1550.35,-1008 1296.67,-1008"/>
<text text-anchor="start" x="1303.67" y="-1020.2" font-family="Arial" font-size="14.00">name </text>
<text text-anchor="start" x="1342.58" y="-1020.2" font-family="Arial" font-size="14.00" fill="#666666">[varchar(100)]</text>
<polygon fill="none" stroke="black" points="1296.67,-977.2 1296.67,-1008 1550.35,-1008 1550.35,-977.2 1296.67,-977.2"/>
<text text-anchor="start" x="1303.67" y="-989.4" font-family="Arial" font-size="14.00">description </text>
<text text-anchor="start" x="1375.26" y="-989.4" font-family="Arial" font-size="14.00" fill="#666666">[text]</text>
<polygon fill="none" stroke="black" points="1296.67,-946.4 1296.67,-977.2 1550.35,-977.2 1550.35,-946.4 1296.67,-946.4"/>
<text text-anchor="start" x="1303.67" y="-958.6" font-family="Arial" font-size="14.00">geometry_type </text>
<text text-anchor="start" x="1400.17" y="-958.6" font-family="Arial" font-size="14.00" fill="#666666">[varchar(20)]</text>
<polygon fill="none" stroke="black" points="1296.67,-915.6 1296.67,-946.4 1550.35,-946.4 1550.35,-915.6 1296.67,-915.6"/>
<text text-anchor="start" x="1303.67" y="-927.8" font-family="Arial" font-size="14.00">geometry_data </text>
<text text-anchor="start" x="1400.95" y="-927.8" font-family="Arial" font-size="14.00" fill="#666666">[text]</text>
<polygon fill="none" stroke="black" points="1296.67,-884.8 1296.67,-915.6 1550.35,-915.6 1550.35,-884.8 1296.67,-884.8"/>
<text text-anchor="start" x="1303.67" y="-897" font-family="Arial" font-size="14.00">properties </text>
<text text-anchor="start" x="1369.81" y="-897" font-family="Arial" font-size="14.00" fill="#666666">[jsonb]</text>
<polygon fill="none" stroke="black" points="1296.67,-854 1296.67,-884.8 1550.35,-884.8 1550.35,-854 1296.67,-854"/>
<text text-anchor="start" x="1303.67" y="-866.2" font-family="Arial" font-size="14.00">created_by </text>
<text text-anchor="start" x="1376.83" y="-866.2" font-family="Arial" font-size="14.00" fill="#666666">[uuid]</text>
<polygon fill="none" stroke="black" points="1296.67,-823.2 1296.67,-854 1550.35,-854 1550.35,-823.2 1296.67,-823.2"/>
<text text-anchor="start" x="1303.67" y="-835.4" font-family="Arial" font-size="14.00">created_at </text>
<text text-anchor="start" x="1373.72" y="-835.4" font-family="Arial" font-size="14.00" fill="#666666">[timestamp with time zone]</text>
<polygon fill="none" stroke="black" points="1296.67,-792.4 1296.67,-823.2 1550.35,-823.2 1550.35,-792.4 1296.67,-792.4"/>
<text text-anchor="start" x="1303.67" y="-804.6" font-family="Arial" font-size="14.00">updated_at </text>
<text text-anchor="start" x="1377.63" y="-804.6" font-family="Arial" font-size="14.00" fill="#666666">[timestamp with time zone]</text>
<polygon fill="none" stroke="black" points="1296.67,-761.6 1296.67,-792.4 1550.35,-792.4 1550.35,-761.6 1296.67,-761.6"/>
<text text-anchor="start" x="1303.67" y="-773.8" font-family="Arial" font-size="14.00">deleted_at </text>
<text text-anchor="start" x="1372.95" y="-773.8" font-family="Arial" font-size="14.00" fill="#666666">[timestamp with time zone]</text>
</g>
<!-- public.gis_data&#45;&gt;public.disasters -->
<g id="edge4" class="edge">
<title>public.gis_data:disaster_id&#45;&gt;public.disasters:id</title>
<path fill="none" stroke="black" d="M1285.79,-1083.59C1206.96,-1059.46 1296.63,-732.95 1244.51,-656.8 1173.35,-552.84 1120.29,-523.6 994.31,-523.6"/>
<polygon fill="black" stroke="black" points="1285.44,-1083.54 1294.7,-1089.41 1290.72,-1084.29 1295.01,-1084.91 1295.01,-1084.91 1295.01,-1084.91 1290.72,-1084.29 1295.98,-1080.5 1285.44,-1083.54"/>
<text text-anchor="start" x="1302.67" y="-1095" font-family="Arial" font-size="10.00">FOREIGN KEY (disaster_id) REFERENCES disasters(id) ON DELETE CASCADE</text>
</g>
</g>
</svg>
