<?xml version="1.0" encoding="UTF-8" standalone="no"?>
<!DOCTYPE svg PUBLIC "-//W3C//DTD SVG 1.1//EN"
 "http://www.w3.org/Graphics/SVG/1.1/DTD/svg11.dtd">
<!-- Generated by graphviz version 12.1.2 (20240928.0832)
 -->
<!-- Title: public.email_histories Pages: 1 -->
<svg width="717pt" height="1126pt"
 viewBox="0.00 0.00 716.82 1125.60" xmlns="http://www.w3.org/2000/svg" xmlns:xlink="http://www.w3.org/1999/xlink">
<g id="graph0" class="graph" transform="scale(1 1) rotate(0) translate(4 1121.6)">
<title>public.email_histories</title>
<polygon fill="white" stroke="none" points="-4,4 -4,-1121.6 712.82,-1121.6 712.82,4 -4,4"/>
<!-- public.email_histories -->
<g id="node1" class="node">
<title>public.email_histories</title>
<polygon fill="#efefef" stroke="none" points="61.9,-1035.8 61.9,-1071.4 359.86,-1071.4 359.86,-1035.8 61.9,-1035.8"/>
<polygon fill="none" stroke="black" points="61.9,-1035.8 61.9,-1071.4 359.86,-1071.4 359.86,-1035.8 61.9,-1035.8"/>
<text text-anchor="start" x="68.9" y="-1049.2" font-family="Arial Bold" font-size="18.00">public.email_histories</text>
<text text-anchor="start" x="228.37" y="-1049.2" font-family="Arial" font-size="14.00">    </text>
<text text-anchor="start" x="259.49" y="-1049.2" font-family="Arial" font-size="14.00" fill="#666666">[BASE TABLE]</text>
<polygon fill="none" stroke="black" points="61.9,-1005 61.9,-1035.8 359.86,-1035.8 359.86,-1005 61.9,-1005"/>
<text text-anchor="start" x="68.9" y="-1017.2" font-family="Arial" font-size="14.00">id </text>
<text text-anchor="start" x="83.69" y="-1017.2" font-family="Arial" font-size="14.00" fill="#666666">[bigint]</text>
<polygon fill="none" stroke="black" points="61.9,-974.2 61.9,-1005 359.86,-1005 359.86,-974.2 61.9,-974.2"/>
<text text-anchor="start" x="68.9" y="-986.4" font-family="Arial" font-size="14.00">user_id </text>
<text text-anchor="start" x="118.71" y="-986.4" font-family="Arial" font-size="14.00" fill="#666666">[uuid]</text>
<polygon fill="none" stroke="black" points="61.9,-943.4 61.9,-974.2 359.86,-974.2 359.86,-943.4 61.9,-943.4"/>
<text text-anchor="start" x="68.9" y="-955.6" font-family="Arial" font-size="14.00">email </text>
<text text-anchor="start" x="106.24" y="-955.6" font-family="Arial" font-size="14.00" fill="#666666">[varchar(255)]</text>
<polygon fill="none" stroke="black" points="61.9,-912.6 61.9,-943.4 359.86,-943.4 359.86,-912.6 61.9,-912.6"/>
<text text-anchor="start" x="68.9" y="-924.8" font-family="Arial" font-size="14.00">subject </text>
<text text-anchor="start" x="117.15" y="-924.8" font-family="Arial" font-size="14.00" fill="#666666">[varchar(500)]</text>
<polygon fill="none" stroke="black" points="61.9,-881.8 61.9,-912.6 359.86,-912.6 359.86,-881.8 61.9,-881.8"/>
<text text-anchor="start" x="68.9" y="-894" font-family="Arial" font-size="14.00">email_type </text>
<text text-anchor="start" x="140.49" y="-894" font-family="Arial" font-size="14.00" fill="#666666">[varchar(100)]</text>
<polygon fill="none" stroke="black" points="61.9,-851 61.9,-881.8 359.86,-881.8 359.86,-851 61.9,-851"/>
<text text-anchor="start" x="68.9" y="-863.2" font-family="Arial" font-size="14.00">provider </text>
<text text-anchor="start" x="123.37" y="-863.2" font-family="Arial" font-size="14.00" fill="#666666">[varchar(50)]</text>
<polygon fill="none" stroke="black" points="61.9,-820.2 61.9,-851 359.86,-851 359.86,-820.2 61.9,-820.2"/>
<text text-anchor="start" x="68.9" y="-832.4" font-family="Arial" font-size="14.00">error_message </text>
<text text-anchor="start" x="166.94" y="-832.4" font-family="Arial" font-size="14.00" fill="#666666">[text]</text>
<polygon fill="none" stroke="black" points="61.9,-789.4 61.9,-820.2 359.86,-820.2 359.86,-789.4 61.9,-789.4"/>
<text text-anchor="start" x="68.9" y="-801.6" font-family="Arial" font-size="14.00">sent_at </text>
<text text-anchor="start" x="118.71" y="-801.6" font-family="Arial" font-size="14.00" fill="#666666">[timestamp with time zone]</text>
<polygon fill="none" stroke="black" points="61.9,-758.6 61.9,-789.4 359.86,-789.4 359.86,-758.6 61.9,-758.6"/>
<text text-anchor="start" x="68.9" y="-770.8" font-family="Arial" font-size="14.00">status </text>
<text text-anchor="start" x="110.14" y="-770.8" font-family="Arial" font-size="14.00" fill="#666666">[varchar(50)]</text>
<polygon fill="none" stroke="black" points="61.9,-727.8 61.9,-758.6 359.86,-758.6 359.86,-727.8 61.9,-727.8"/>
<text text-anchor="start" x="68.9" y="-740" font-family="Arial" font-size="14.00">created_at </text>
<text text-anchor="start" x="138.95" y="-740" font-family="Arial" font-size="14.00" fill="#666666">[timestamp with time zone]</text>
<polygon fill="none" stroke="black" points="61.9,-697 61.9,-727.8 359.86,-727.8 359.86,-697 61.9,-697"/>
<text text-anchor="start" x="68.9" y="-709.2" font-family="Arial" font-size="14.00">updated_at </text>
<text text-anchor="start" x="142.86" y="-709.2" font-family="Arial" font-size="14.00" fill="#666666">[timestamp with time zone]</text>
<polygon fill="none" stroke="black" stroke-width="3" points="60.4,-695.5 60.4,-1072.9 361.36,-1072.9 361.36,-695.5 60.4,-695.5"/>
</g>
<!-- public.users -->
<g id="node2" class="node">
<title>public.users</title>
<polygon fill="#efefef" stroke="none" points="43.2,-536 43.2,-571.6 378.56,-571.6 378.56,-536 43.2,-536"/>
<polygon fill="none" stroke="black" points="43.2,-536 43.2,-571.6 378.56,-571.6 378.56,-536 43.2,-536"/>
<text text-anchor="start" x="105.39" y="-549.4" font-family="Arial Bold" font-size="18.00">public.users</text>
<text text-anchor="start" x="191.88" y="-549.4" font-family="Arial" font-size="14.00">    </text>
<text text-anchor="start" x="222.99" y="-549.4" font-family="Arial" font-size="14.00" fill="#666666">[BASE TABLE]</text>
<polygon fill="none" stroke="black" points="43.2,-505.2 43.2,-536 378.56,-536 378.56,-505.2 43.2,-505.2"/>
<text text-anchor="start" x="50.2" y="-517.4" font-family="Arial" font-size="14.00">id </text>
<text text-anchor="start" x="64.99" y="-517.4" font-family="Arial" font-size="14.00" fill="#666666">[uuid]</text>
<polygon fill="none" stroke="black" points="43.2,-474.4 43.2,-505.2 378.56,-505.2 378.56,-474.4 43.2,-474.4"/>
<text text-anchor="start" x="50.2" y="-486.6" font-family="Arial" font-size="14.00">name </text>
<text text-anchor="start" x="89.11" y="-486.6" font-family="Arial" font-size="14.00" fill="#666666">[varchar(255)]</text>
<polygon fill="none" stroke="black" points="43.2,-443.6 43.2,-474.4 378.56,-474.4 378.56,-443.6 43.2,-443.6"/>
<text text-anchor="start" x="50.2" y="-455.8" font-family="Arial" font-size="14.00">email </text>
<text text-anchor="start" x="87.54" y="-455.8" font-family="Arial" font-size="14.00" fill="#666666">[varchar(255)]</text>
<polygon fill="none" stroke="black" points="43.2,-412.8 43.2,-443.6 378.56,-443.6 378.56,-412.8 43.2,-412.8"/>
<text text-anchor="start" x="50.2" y="-425" font-family="Arial" font-size="14.00">password </text>
<text text-anchor="start" x="114.01" y="-425" font-family="Arial" font-size="14.00" fill="#666666">[varchar(255)]</text>
<polygon fill="none" stroke="black" points="43.2,-382 43.2,-412.8 378.56,-412.8 378.56,-382 43.2,-382"/>
<text text-anchor="start" x="50.2" y="-394.2" font-family="Arial" font-size="14.00">organization_id </text>
<text text-anchor="start" x="149.05" y="-394.2" font-family="Arial" font-size="14.00" fill="#666666">[integer]</text>
<polygon fill="none" stroke="black" points="43.2,-351.2 43.2,-382 378.56,-382 378.56,-351.2 43.2,-351.2"/>
<text text-anchor="start" x="50.2" y="-363.4" font-family="Arial" font-size="14.00">role_id </text>
<text text-anchor="start" x="96.12" y="-363.4" font-family="Arial" font-size="14.00" fill="#666666">[smallint]</text>
<polygon fill="none" stroke="black" points="43.2,-320.4 43.2,-351.2 378.56,-351.2 378.56,-320.4 43.2,-320.4"/>
<text text-anchor="start" x="50.2" y="-332.6" font-family="Arial" font-size="14.00">is_active </text>
<text text-anchor="start" x="108.56" y="-332.6" font-family="Arial" font-size="14.00" fill="#666666">[boolean]</text>
<polygon fill="none" stroke="black" points="43.2,-289.6 43.2,-320.4 378.56,-320.4 378.56,-289.6 43.2,-289.6"/>
<text text-anchor="start" x="50.2" y="-301.8" font-family="Arial" font-size="14.00">email_verified </text>
<text text-anchor="start" x="140.46" y="-301.8" font-family="Arial" font-size="14.00" fill="#666666">[boolean]</text>
<polygon fill="none" stroke="black" points="43.2,-258.8 43.2,-289.6 378.56,-289.6 378.56,-258.8 43.2,-258.8"/>
<text text-anchor="start" x="50.2" y="-271" font-family="Arial" font-size="14.00">mfa_enabled </text>
<text text-anchor="start" x="135.04" y="-271" font-family="Arial" font-size="14.00" fill="#666666">[boolean]</text>
<polygon fill="none" stroke="black" points="43.2,-228 43.2,-258.8 378.56,-258.8 378.56,-228 43.2,-228"/>
<text text-anchor="start" x="50.2" y="-240.2" font-family="Arial" font-size="14.00">mfa_secret </text>
<text text-anchor="start" x="123.34" y="-240.2" font-family="Arial" font-size="14.00" fill="#666666">[varchar(255)]</text>
<polygon fill="none" stroke="black" points="43.2,-197.2 43.2,-228 378.56,-228 378.56,-197.2 43.2,-197.2"/>
<text text-anchor="start" x="50.2" y="-209.4" font-family="Arial" font-size="14.00">password_reset_token </text>
<text text-anchor="start" x="194.95" y="-209.4" font-family="Arial" font-size="14.00" fill="#666666">[varchar(255)]</text>
<polygon fill="none" stroke="black" points="43.2,-166.4 43.2,-197.2 378.56,-197.2 378.56,-166.4 43.2,-166.4"/>
<text text-anchor="start" x="50.2" y="-178.6" font-family="Arial" font-size="14.00">password_reset_expires </text>
<text text-anchor="start" x="205.83" y="-178.6" font-family="Arial" font-size="14.00" fill="#666666">[timestamp with time zone]</text>
<polygon fill="none" stroke="black" points="43.2,-135.6 43.2,-166.4 378.56,-166.4 378.56,-135.6 43.2,-135.6"/>
<text text-anchor="start" x="50.2" y="-147.8" font-family="Arial" font-size="14.00">last_password_change </text>
<text text-anchor="start" x="197.3" y="-147.8" font-family="Arial" font-size="14.00" fill="#666666">[timestamp with time zone]</text>
<polygon fill="none" stroke="black" points="43.2,-104.8 43.2,-135.6 378.56,-135.6 378.56,-104.8 43.2,-104.8"/>
<text text-anchor="start" x="50.2" y="-117" font-family="Arial" font-size="14.00">created_at </text>
<text text-anchor="start" x="120.25" y="-117" font-family="Arial" font-size="14.00" fill="#666666">[timestamp with time zone]</text>
<polygon fill="none" stroke="black" points="43.2,-74 43.2,-104.8 378.56,-104.8 378.56,-74 43.2,-74"/>
<text text-anchor="start" x="50.2" y="-86.2" font-family="Arial" font-size="14.00">updated_at </text>
<text text-anchor="start" x="124.16" y="-86.2" font-family="Arial" font-size="14.00" fill="#666666">[timestamp with time zone]</text>
<polygon fill="none" stroke="black" points="43.2,-43.2 43.2,-74 378.56,-74 378.56,-43.2 43.2,-43.2"/>
<text text-anchor="start" x="50.2" y="-55.4" font-family="Arial" font-size="14.00">deleted_at </text>
<text text-anchor="start" x="119.48" y="-55.4" font-family="Arial" font-size="14.00" fill="#666666">[timestamp with time zone]</text>
</g>
<!-- public.email_histories&#45;&gt;public.users -->
<g id="edge1" class="edge">
<title>public.email_histories:user_id&#45;&gt;public.users:id</title>
<path fill="none" stroke="black" d="M369.95,-984.65C415.01,-934.53 428.55,-520.6 379.56,-520.6"/>
<polygon fill="black" stroke="black" points="369.94,-984.66 359,-985.49 365.25,-987.21 361.45,-989.28 361.45,-989.28 361.45,-989.28 365.25,-987.21 363.3,-993.39 369.94,-984.66"/>
<text text-anchor="start" x="367.86" y="-999.6" font-family="Arial" font-size="10.00">FOREIGN KEY (user_id) REFERENCES users(id) ON DELETE CASCADE</text>
</g>
</g>
</svg>
