<?xml version="1.0" encoding="UTF-8" standalone="no"?>
<!DOCTYPE svg PUBLIC "-//W3C//DTD SVG 1.1//EN"
 "http://www.w3.org/Graphics/SVG/1.1/DTD/svg11.dtd">
<!-- Generated by graphviz version 12.1.2 (20240928.0832)
 -->
<!-- Title: public.facility_equipment Pages: 1 -->
<svg width="682pt" height="879pt"
 viewBox="0.00 0.00 682.10 879.20" xmlns="http://www.w3.org/2000/svg" xmlns:xlink="http://www.w3.org/1999/xlink">
<g id="graph0" class="graph" transform="scale(1 1) rotate(0) translate(4 875.2)">
<title>public.facility_equipment</title>
<polygon fill="white" stroke="none" points="-4,4 -4,-875.2 678.1,-875.2 678.1,4 -4,4"/>
<!-- public.facility_equipment -->
<g id="node1" class="node">
<title>public.facility_equipment</title>
<polygon fill="#efefef" stroke="none" points="46.2,-789.4 46.2,-825 370.14,-825 370.14,-789.4 46.2,-789.4"/>
<polygon fill="none" stroke="black" points="46.2,-789.4 46.2,-825 370.14,-825 370.14,-789.4 46.2,-789.4"/>
<text text-anchor="start" x="53.2" y="-802.8" font-family="Arial Bold" font-size="18.00">public.facility_equipment</text>
<text text-anchor="start" x="238.65" y="-802.8" font-family="Arial" font-size="14.00">    </text>
<text text-anchor="start" x="269.77" y="-802.8" font-family="Arial" font-size="14.00" fill="#666666">[BASE TABLE]</text>
<polygon fill="none" stroke="black" points="46.2,-758.6 46.2,-789.4 370.14,-789.4 370.14,-758.6 46.2,-758.6"/>
<text text-anchor="start" x="53.2" y="-770.8" font-family="Arial" font-size="14.00">id </text>
<text text-anchor="start" x="67.99" y="-770.8" font-family="Arial" font-size="14.00" fill="#666666">[integer]</text>
<polygon fill="none" stroke="black" points="46.2,-727.8 46.2,-758.6 370.14,-758.6 370.14,-727.8 46.2,-727.8"/>
<text text-anchor="start" x="53.2" y="-740" font-family="Arial" font-size="14.00">name </text>
<text text-anchor="start" x="92.11" y="-740" font-family="Arial" font-size="14.00" fill="#666666">[varchar(100)]</text>
<polygon fill="none" stroke="black" points="46.2,-697 46.2,-727.8 370.14,-727.8 370.14,-697 46.2,-697"/>
<text text-anchor="start" x="53.2" y="-709.2" font-family="Arial" font-size="14.00">facility_type_id </text>
<text text-anchor="start" x="148.92" y="-709.2" font-family="Arial" font-size="14.00" fill="#666666">[integer]</text>
<polygon fill="none" stroke="black" points="46.2,-666.2 46.2,-697 370.14,-697 370.14,-666.2 46.2,-666.2"/>
<text text-anchor="start" x="53.2" y="-678.4" font-family="Arial" font-size="14.00">model_number </text>
<text text-anchor="start" x="150.48" y="-678.4" font-family="Arial" font-size="14.00" fill="#666666">[varchar(100)]</text>
<polygon fill="none" stroke="black" points="46.2,-635.4 46.2,-666.2 370.14,-666.2 370.14,-635.4 46.2,-635.4"/>
<text text-anchor="start" x="53.2" y="-647.6" font-family="Arial" font-size="14.00">manufacturer </text>
<text text-anchor="start" x="139.57" y="-647.6" font-family="Arial" font-size="14.00" fill="#666666">[varchar(100)]</text>
<polygon fill="none" stroke="black" points="46.2,-604.6 46.2,-635.4 370.14,-635.4 370.14,-604.6 46.2,-604.6"/>
<text text-anchor="start" x="53.2" y="-616.8" font-family="Arial" font-size="14.00">installation_date </text>
<text text-anchor="start" x="158.28" y="-616.8" font-family="Arial" font-size="14.00" fill="#666666">[date]</text>
<polygon fill="none" stroke="black" points="46.2,-573.8 46.2,-604.6 370.14,-604.6 370.14,-573.8 46.2,-573.8"/>
<text text-anchor="start" x="53.2" y="-586" font-family="Arial" font-size="14.00">status </text>
<text text-anchor="start" x="94.44" y="-586" font-family="Arial" font-size="14.00" fill="#666666">[varchar(50)]</text>
<polygon fill="none" stroke="black" points="46.2,-543 46.2,-573.8 370.14,-573.8 370.14,-543 46.2,-543"/>
<text text-anchor="start" x="53.2" y="-555.2" font-family="Arial" font-size="14.00">location_description </text>
<text text-anchor="start" x="180.83" y="-555.2" font-family="Arial" font-size="14.00" fill="#666666">[text]</text>
<polygon fill="none" stroke="black" points="46.2,-512.2 46.2,-543 370.14,-543 370.14,-512.2 46.2,-512.2"/>
<text text-anchor="start" x="53.2" y="-524.4" font-family="Arial" font-size="14.00">location_latitude </text>
<text text-anchor="start" x="158.28" y="-524.4" font-family="Arial" font-size="14.00" fill="#666666">[numeric(10,8)]</text>
<polygon fill="none" stroke="black" points="46.2,-481.4 46.2,-512.2 370.14,-512.2 370.14,-481.4 46.2,-481.4"/>
<text text-anchor="start" x="53.2" y="-493.6" font-family="Arial" font-size="14.00">location_longitude </text>
<text text-anchor="start" x="169.96" y="-493.6" font-family="Arial" font-size="14.00" fill="#666666">[numeric(11,8)]</text>
<polygon fill="none" stroke="black" points="46.2,-450.6 46.2,-481.4 370.14,-481.4 370.14,-450.6 46.2,-450.6"/>
<text text-anchor="start" x="53.2" y="-462.8" font-family="Arial" font-size="14.00">notes </text>
<text text-anchor="start" x="91.34" y="-462.8" font-family="Arial" font-size="14.00" fill="#666666">[text]</text>
<polygon fill="none" stroke="black" points="46.2,-419.8 46.2,-450.6 370.14,-450.6 370.14,-419.8 46.2,-419.8"/>
<text text-anchor="start" x="53.2" y="-432" font-family="Arial" font-size="14.00">created_at </text>
<text text-anchor="start" x="123.25" y="-432" font-family="Arial" font-size="14.00" fill="#666666">[timestamp with time zone]</text>
<polygon fill="none" stroke="black" points="46.2,-389 46.2,-419.8 370.14,-419.8 370.14,-389 46.2,-389"/>
<text text-anchor="start" x="53.2" y="-401.2" font-family="Arial" font-size="14.00">updated_at </text>
<text text-anchor="start" x="127.16" y="-401.2" font-family="Arial" font-size="14.00" fill="#666666">[timestamp with time zone]</text>
<polygon fill="none" stroke="black" points="46.2,-358.2 46.2,-389 370.14,-389 370.14,-358.2 46.2,-358.2"/>
<text text-anchor="start" x="53.2" y="-370.4" font-family="Arial" font-size="14.00">deleted_at </text>
<text text-anchor="start" x="122.48" y="-370.4" font-family="Arial" font-size="14.00" fill="#666666">[timestamp with time zone]</text>
<polygon fill="none" stroke="black" stroke-width="3" points="44.7,-356.7 44.7,-826.5 371.64,-826.5 371.64,-356.7 44.7,-356.7"/>
</g>
<!-- public.facility_types -->
<g id="node2" class="node">
<title>public.facility_types</title>
<polygon fill="#efefef" stroke="none" points="65.19,-197.2 65.19,-232.8 351.15,-232.8 351.15,-197.2 65.19,-197.2"/>
<polygon fill="none" stroke="black" points="65.19,-197.2 65.19,-232.8 351.15,-232.8 351.15,-197.2 65.19,-197.2"/>
<text text-anchor="start" x="72.19" y="-210.6" font-family="Arial Bold" font-size="18.00">public.facility_types</text>
<text text-anchor="start" x="219.66" y="-210.6" font-family="Arial" font-size="14.00">    </text>
<text text-anchor="start" x="250.77" y="-210.6" font-family="Arial" font-size="14.00" fill="#666666">[BASE TABLE]</text>
<polygon fill="none" stroke="black" points="65.19,-166.4 65.19,-197.2 351.15,-197.2 351.15,-166.4 65.19,-166.4"/>
<text text-anchor="start" x="72.19" y="-178.6" font-family="Arial" font-size="14.00">id </text>
<text text-anchor="start" x="86.98" y="-178.6" font-family="Arial" font-size="14.00" fill="#666666">[integer]</text>
<polygon fill="none" stroke="black" points="65.19,-135.6 65.19,-166.4 351.15,-166.4 351.15,-135.6 65.19,-135.6"/>
<text text-anchor="start" x="72.19" y="-147.8" font-family="Arial" font-size="14.00">name </text>
<text text-anchor="start" x="111.1" y="-147.8" font-family="Arial" font-size="14.00" fill="#666666">[varchar(50)]</text>
<polygon fill="none" stroke="black" points="65.19,-104.8 65.19,-135.6 351.15,-135.6 351.15,-104.8 65.19,-104.8"/>
<text text-anchor="start" x="72.19" y="-117" font-family="Arial" font-size="14.00">description </text>
<text text-anchor="start" x="143.79" y="-117" font-family="Arial" font-size="14.00" fill="#666666">[text]</text>
<polygon fill="none" stroke="black" points="65.19,-74 65.19,-104.8 351.15,-104.8 351.15,-74 65.19,-74"/>
<text text-anchor="start" x="72.19" y="-86.2" font-family="Arial" font-size="14.00">created_at </text>
<text text-anchor="start" x="142.24" y="-86.2" font-family="Arial" font-size="14.00" fill="#666666">[timestamp with time zone]</text>
<polygon fill="none" stroke="black" points="65.19,-43.2 65.19,-74 351.15,-74 351.15,-43.2 65.19,-43.2"/>
<text text-anchor="start" x="72.19" y="-55.4" font-family="Arial" font-size="14.00">updated_at </text>
<text text-anchor="start" x="146.15" y="-55.4" font-family="Arial" font-size="14.00" fill="#666666">[timestamp with time zone]</text>
</g>
<!-- public.facility_equipment&#45;&gt;public.facility_types -->
<g id="edge1" class="edge">
<title>public.facility_equipment:facility_type_id&#45;&gt;public.facility_types:id</title>
<path fill="none" stroke="black" d="M380.12,-707.81C427.93,-655.95 407.91,-181.8 352.15,-181.8"/>
<polygon fill="black" stroke="black" points="380.34,-707.7 369.39,-708.24 375.59,-710.13 371.73,-712.1 371.73,-712.1 371.73,-712.1 375.59,-710.13 373.48,-716.26 380.34,-707.7"/>
<text text-anchor="start" x="378.14" y="-722.4" font-family="Arial" font-size="10.00">FOREIGN KEY (facility_type_id) REFERENCES facility_types(id)</text>
</g>
</g>
</svg>
