<?xml version="1.0" encoding="UTF-8" standalone="no"?>
<!DOCTYPE svg PUBLIC "-//W3C//DTD SVG 1.1//EN"
 "http://www.w3.org/Graphics/SVG/1.1/DTD/svg11.dtd">
<!-- Generated by graphviz version 12.1.2 (20240928.0832)
 -->
<!-- Title: public.user_sessions Pages: 1 -->
<svg width="600pt" height="1064pt"
 viewBox="0.00 0.00 600.25 1064.00" xmlns="http://www.w3.org/2000/svg" xmlns:xlink="http://www.w3.org/1999/xlink">
<g id="graph0" class="graph" transform="scale(1 1) rotate(0) translate(4 1060)">
<title>public.user_sessions</title>
<polygon fill="white" stroke="none" points="-4,4 -4,-1060 596.25,-1060 596.25,4 -4,4"/>
<!-- public.user_sessions -->
<g id="node1" class="node">
<title>public.user_sessions</title>
<polygon fill="#efefef" stroke="none" points="67.89,-974.2 67.89,-1009.8 353.87,-1009.8 353.87,-974.2 67.89,-974.2"/>
<polygon fill="none" stroke="black" points="67.89,-974.2 67.89,-1009.8 353.87,-1009.8 353.87,-974.2 67.89,-974.2"/>
<text text-anchor="start" x="74.89" y="-987.6" font-family="Arial Bold" font-size="18.00">public.user_sessions</text>
<text text-anchor="start" x="222.38" y="-987.6" font-family="Arial" font-size="14.00">    </text>
<text text-anchor="start" x="253.5" y="-987.6" font-family="Arial" font-size="14.00" fill="#666666">[BASE TABLE]</text>
<polygon fill="none" stroke="black" points="67.89,-943.4 67.89,-974.2 353.87,-974.2 353.87,-943.4 67.89,-943.4"/>
<text text-anchor="start" x="74.89" y="-955.6" font-family="Arial" font-size="14.00">id </text>
<text text-anchor="start" x="89.68" y="-955.6" font-family="Arial" font-size="14.00" fill="#666666">[bigint]</text>
<polygon fill="none" stroke="black" points="67.89,-912.6 67.89,-943.4 353.87,-943.4 353.87,-912.6 67.89,-912.6"/>
<text text-anchor="start" x="74.89" y="-924.8" font-family="Arial" font-size="14.00">session_id </text>
<text text-anchor="start" x="144.93" y="-924.8" font-family="Arial" font-size="14.00" fill="#666666">[varchar(255)]</text>
<polygon fill="none" stroke="black" points="67.89,-881.8 67.89,-912.6 353.87,-912.6 353.87,-881.8 67.89,-881.8"/>
<text text-anchor="start" x="74.89" y="-894" font-family="Arial" font-size="14.00">user_id </text>
<text text-anchor="start" x="124.7" y="-894" font-family="Arial" font-size="14.00" fill="#666666">[uuid]</text>
<polygon fill="none" stroke="black" points="67.89,-851 67.89,-881.8 353.87,-881.8 353.87,-851 67.89,-851"/>
<text text-anchor="start" x="74.89" y="-863.2" font-family="Arial" font-size="14.00">ip_address </text>
<text text-anchor="start" x="147.27" y="-863.2" font-family="Arial" font-size="14.00" fill="#666666">[inet]</text>
<polygon fill="none" stroke="black" points="67.89,-820.2 67.89,-851 353.87,-851 353.87,-820.2 67.89,-820.2"/>
<text text-anchor="start" x="74.89" y="-832.4" font-family="Arial" font-size="14.00">user_agent </text>
<text text-anchor="start" x="148.83" y="-832.4" font-family="Arial" font-size="14.00" fill="#666666">[text]</text>
<polygon fill="none" stroke="black" points="67.89,-789.4 67.89,-820.2 353.87,-820.2 353.87,-789.4 67.89,-789.4"/>
<text text-anchor="start" x="74.89" y="-801.6" font-family="Arial" font-size="14.00">is_active </text>
<text text-anchor="start" x="133.25" y="-801.6" font-family="Arial" font-size="14.00" fill="#666666">[boolean]</text>
<polygon fill="none" stroke="black" points="67.89,-758.6 67.89,-789.4 353.87,-789.4 353.87,-758.6 67.89,-758.6"/>
<text text-anchor="start" x="74.89" y="-770.8" font-family="Arial" font-size="14.00">expires_at </text>
<text text-anchor="start" x="143.37" y="-770.8" font-family="Arial" font-size="14.00" fill="#666666">[timestamp with time zone]</text>
<polygon fill="none" stroke="black" points="67.89,-727.8 67.89,-758.6 353.87,-758.6 353.87,-727.8 67.89,-727.8"/>
<text text-anchor="start" x="74.89" y="-740" font-family="Arial" font-size="14.00">last_activity </text>
<text text-anchor="start" x="151.14" y="-740" font-family="Arial" font-size="14.00" fill="#666666">[timestamp with time zone]</text>
<polygon fill="none" stroke="black" points="67.89,-697 67.89,-727.8 353.87,-727.8 353.87,-697 67.89,-697"/>
<text text-anchor="start" x="74.89" y="-709.2" font-family="Arial" font-size="14.00">created_at </text>
<text text-anchor="start" x="144.94" y="-709.2" font-family="Arial" font-size="14.00" fill="#666666">[timestamp with time zone]</text>
<polygon fill="none" stroke="black" stroke-width="3" points="66.39,-695.5 66.39,-1011.3 355.37,-1011.3 355.37,-695.5 66.39,-695.5"/>
</g>
<!-- public.users -->
<g id="node2" class="node">
<title>public.users</title>
<polygon fill="#efefef" stroke="none" points="43.2,-536 43.2,-571.6 378.56,-571.6 378.56,-536 43.2,-536"/>
<polygon fill="none" stroke="black" points="43.2,-536 43.2,-571.6 378.56,-571.6 378.56,-536 43.2,-536"/>
<text text-anchor="start" x="105.39" y="-549.4" font-family="Arial Bold" font-size="18.00">public.users</text>
<text text-anchor="start" x="191.88" y="-549.4" font-family="Arial" font-size="14.00">    </text>
<text text-anchor="start" x="222.99" y="-549.4" font-family="Arial" font-size="14.00" fill="#666666">[BASE TABLE]</text>
<polygon fill="none" stroke="black" points="43.2,-505.2 43.2,-536 378.56,-536 378.56,-505.2 43.2,-505.2"/>
<text text-anchor="start" x="50.2" y="-517.4" font-family="Arial" font-size="14.00">id </text>
<text text-anchor="start" x="64.99" y="-517.4" font-family="Arial" font-size="14.00" fill="#666666">[uuid]</text>
<polygon fill="none" stroke="black" points="43.2,-474.4 43.2,-505.2 378.56,-505.2 378.56,-474.4 43.2,-474.4"/>
<text text-anchor="start" x="50.2" y="-486.6" font-family="Arial" font-size="14.00">name </text>
<text text-anchor="start" x="89.11" y="-486.6" font-family="Arial" font-size="14.00" fill="#666666">[varchar(255)]</text>
<polygon fill="none" stroke="black" points="43.2,-443.6 43.2,-474.4 378.56,-474.4 378.56,-443.6 43.2,-443.6"/>
<text text-anchor="start" x="50.2" y="-455.8" font-family="Arial" font-size="14.00">email </text>
<text text-anchor="start" x="87.54" y="-455.8" font-family="Arial" font-size="14.00" fill="#666666">[varchar(255)]</text>
<polygon fill="none" stroke="black" points="43.2,-412.8 43.2,-443.6 378.56,-443.6 378.56,-412.8 43.2,-412.8"/>
<text text-anchor="start" x="50.2" y="-425" font-family="Arial" font-size="14.00">password </text>
<text text-anchor="start" x="114.01" y="-425" font-family="Arial" font-size="14.00" fill="#666666">[varchar(255)]</text>
<polygon fill="none" stroke="black" points="43.2,-382 43.2,-412.8 378.56,-412.8 378.56,-382 43.2,-382"/>
<text text-anchor="start" x="50.2" y="-394.2" font-family="Arial" font-size="14.00">organization_id </text>
<text text-anchor="start" x="149.05" y="-394.2" font-family="Arial" font-size="14.00" fill="#666666">[integer]</text>
<polygon fill="none" stroke="black" points="43.2,-351.2 43.2,-382 378.56,-382 378.56,-351.2 43.2,-351.2"/>
<text text-anchor="start" x="50.2" y="-363.4" font-family="Arial" font-size="14.00">role_id </text>
<text text-anchor="start" x="96.12" y="-363.4" font-family="Arial" font-size="14.00" fill="#666666">[smallint]</text>
<polygon fill="none" stroke="black" points="43.2,-320.4 43.2,-351.2 378.56,-351.2 378.56,-320.4 43.2,-320.4"/>
<text text-anchor="start" x="50.2" y="-332.6" font-family="Arial" font-size="14.00">is_active </text>
<text text-anchor="start" x="108.56" y="-332.6" font-family="Arial" font-size="14.00" fill="#666666">[boolean]</text>
<polygon fill="none" stroke="black" points="43.2,-289.6 43.2,-320.4 378.56,-320.4 378.56,-289.6 43.2,-289.6"/>
<text text-anchor="start" x="50.2" y="-301.8" font-family="Arial" font-size="14.00">email_verified </text>
<text text-anchor="start" x="140.46" y="-301.8" font-family="Arial" font-size="14.00" fill="#666666">[boolean]</text>
<polygon fill="none" stroke="black" points="43.2,-258.8 43.2,-289.6 378.56,-289.6 378.56,-258.8 43.2,-258.8"/>
<text text-anchor="start" x="50.2" y="-271" font-family="Arial" font-size="14.00">mfa_enabled </text>
<text text-anchor="start" x="135.04" y="-271" font-family="Arial" font-size="14.00" fill="#666666">[boolean]</text>
<polygon fill="none" stroke="black" points="43.2,-228 43.2,-258.8 378.56,-258.8 378.56,-228 43.2,-228"/>
<text text-anchor="start" x="50.2" y="-240.2" font-family="Arial" font-size="14.00">mfa_secret </text>
<text text-anchor="start" x="123.34" y="-240.2" font-family="Arial" font-size="14.00" fill="#666666">[varchar(255)]</text>
<polygon fill="none" stroke="black" points="43.2,-197.2 43.2,-228 378.56,-228 378.56,-197.2 43.2,-197.2"/>
<text text-anchor="start" x="50.2" y="-209.4" font-family="Arial" font-size="14.00">password_reset_token </text>
<text text-anchor="start" x="194.95" y="-209.4" font-family="Arial" font-size="14.00" fill="#666666">[varchar(255)]</text>
<polygon fill="none" stroke="black" points="43.2,-166.4 43.2,-197.2 378.56,-197.2 378.56,-166.4 43.2,-166.4"/>
<text text-anchor="start" x="50.2" y="-178.6" font-family="Arial" font-size="14.00">password_reset_expires </text>
<text text-anchor="start" x="205.83" y="-178.6" font-family="Arial" font-size="14.00" fill="#666666">[timestamp with time zone]</text>
<polygon fill="none" stroke="black" points="43.2,-135.6 43.2,-166.4 378.56,-166.4 378.56,-135.6 43.2,-135.6"/>
<text text-anchor="start" x="50.2" y="-147.8" font-family="Arial" font-size="14.00">last_password_change </text>
<text text-anchor="start" x="197.3" y="-147.8" font-family="Arial" font-size="14.00" fill="#666666">[timestamp with time zone]</text>
<polygon fill="none" stroke="black" points="43.2,-104.8 43.2,-135.6 378.56,-135.6 378.56,-104.8 43.2,-104.8"/>
<text text-anchor="start" x="50.2" y="-117" font-family="Arial" font-size="14.00">created_at </text>
<text text-anchor="start" x="120.25" y="-117" font-family="Arial" font-size="14.00" fill="#666666">[timestamp with time zone]</text>
<polygon fill="none" stroke="black" points="43.2,-74 43.2,-104.8 378.56,-104.8 378.56,-74 43.2,-74"/>
<text text-anchor="start" x="50.2" y="-86.2" font-family="Arial" font-size="14.00">updated_at </text>
<text text-anchor="start" x="124.16" y="-86.2" font-family="Arial" font-size="14.00" fill="#666666">[timestamp with time zone]</text>
<polygon fill="none" stroke="black" points="43.2,-43.2 43.2,-74 378.56,-74 378.56,-43.2 43.2,-43.2"/>
<text text-anchor="start" x="50.2" y="-55.4" font-family="Arial" font-size="14.00">deleted_at </text>
<text text-anchor="start" x="119.48" y="-55.4" font-family="Arial" font-size="14.00" fill="#666666">[timestamp with time zone]</text>
</g>
<!-- public.user_sessions&#45;&gt;public.users -->
<g id="edge1" class="edge">
<title>public.user_sessions:user_id&#45;&gt;public.users:id</title>
<path fill="none" stroke="black" d="M364.89,-895.35C440.58,-866.94 459.99,-520.6 379.56,-520.6"/>
<polygon fill="black" stroke="black" points="365.03,-895.32 354.38,-892.71 359.78,-896.29 355.53,-897.08 355.53,-897.08 355.53,-897.08 359.78,-896.29 356.01,-901.56 365.03,-895.32"/>
<text text-anchor="start" x="361.87" y="-907.2" font-family="Arial" font-size="10.00">FOREIGN KEY (user_id) REFERENCES users(id)</text>
</g>
</g>
</svg>
