<?xml version="1.0" encoding="UTF-8" standalone="no"?>
<!DOCTYPE svg PUBLIC "-//W3C//DTD SVG 1.1//EN"
 "http://www.w3.org/Graphics/SVG/1.1/DTD/svg11.dtd">
<!-- Generated by graphviz version 12.1.2 (20240928.0832)
 -->
<!-- Title: public.work_categories Pages: 1 -->
<svg width="647pt" height="756pt"
 viewBox="0.00 0.00 647.29 756.00" xmlns="http://www.w3.org/2000/svg" xmlns:xlink="http://www.w3.org/1999/xlink">
<g id="graph0" class="graph" transform="scale(1 1) rotate(0) translate(4 752)">
<title>public.work_categories</title>
<polygon fill="white" stroke="none" points="-4,4 -4,-752 643.29,-752 643.29,4 -4,4"/>
<!-- public.work_categories -->
<g id="node1" class="node">
<title>public.work_categories</title>
<polygon fill="#efefef" stroke="none" points="46.2,-200.2 46.2,-235.8 353.13,-235.8 353.13,-200.2 46.2,-200.2"/>
<polygon fill="none" stroke="black" points="46.2,-200.2 46.2,-235.8 353.13,-235.8 353.13,-200.2 46.2,-200.2"/>
<text text-anchor="start" x="53.2" y="-213.6" font-family="Arial Bold" font-size="18.00">public.work_categories</text>
<text text-anchor="start" x="221.64" y="-213.6" font-family="Arial" font-size="14.00">    </text>
<text text-anchor="start" x="252.76" y="-213.6" font-family="Arial" font-size="14.00" fill="#666666">[BASE TABLE]</text>
<polygon fill="none" stroke="black" points="46.2,-169.4 46.2,-200.2 353.13,-200.2 353.13,-169.4 46.2,-169.4"/>
<text text-anchor="start" x="53.2" y="-181.6" font-family="Arial" font-size="14.00">id </text>
<text text-anchor="start" x="67.99" y="-181.6" font-family="Arial" font-size="14.00" fill="#666666">[integer]</text>
<polygon fill="none" stroke="black" points="46.2,-138.6 46.2,-169.4 353.13,-169.4 353.13,-138.6 46.2,-138.6"/>
<text text-anchor="start" x="53.2" y="-150.8" font-family="Arial" font-size="14.00">category_name </text>
<text text-anchor="start" x="153.59" y="-150.8" font-family="Arial" font-size="14.00" fill="#666666">[varchar(20)]</text>
<polygon fill="none" stroke="black" points="46.2,-107.8 46.2,-138.6 353.13,-138.6 353.13,-107.8 46.2,-107.8"/>
<text text-anchor="start" x="53.2" y="-120" font-family="Arial" font-size="14.00">icon_name </text>
<text text-anchor="start" x="125.58" y="-120" font-family="Arial" font-size="14.00" fill="#666666">[varchar(50)]</text>
<polygon fill="none" stroke="black" points="46.2,-77 46.2,-107.8 353.13,-107.8 353.13,-77 46.2,-77"/>
<text text-anchor="start" x="53.2" y="-89.2" font-family="Arial" font-size="14.00">sort_order </text>
<text text-anchor="start" x="120.9" y="-89.2" font-family="Arial" font-size="14.00" fill="#666666">[integer]</text>
<polygon fill="none" stroke="black" points="46.2,-46.2 46.2,-77 353.13,-77 353.13,-46.2 46.2,-46.2"/>
<text text-anchor="start" x="53.2" y="-58.4" font-family="Arial" font-size="14.00">is_active </text>
<text text-anchor="start" x="111.56" y="-58.4" font-family="Arial" font-size="14.00" fill="#666666">[boolean]</text>
<polygon fill="none" stroke="black" stroke-width="3" points="44.7,-44.7 44.7,-237.3 354.63,-237.3 354.63,-44.7 44.7,-44.7"/>
</g>
<!-- public.unit_prices -->
<g id="node2" class="node">
<title>public.unit_prices</title>
<polygon fill="#efefef" stroke="none" points="65.69,-669.2 65.69,-704.8 333.65,-704.8 333.65,-669.2 65.69,-669.2"/>
<polygon fill="none" stroke="black" points="65.69,-669.2 65.69,-704.8 333.65,-704.8 333.65,-669.2 65.69,-669.2"/>
<text text-anchor="start" x="72.69" y="-682.6" font-family="Arial Bold" font-size="18.00">public.unit_prices</text>
<text text-anchor="start" x="202.16" y="-682.6" font-family="Arial" font-size="14.00">    </text>
<text text-anchor="start" x="233.27" y="-682.6" font-family="Arial" font-size="14.00" fill="#666666">[BASE TABLE]</text>
<polygon fill="none" stroke="black" points="65.69,-638.4 65.69,-669.2 333.65,-669.2 333.65,-638.4 65.69,-638.4"/>
<text text-anchor="start" x="72.69" y="-650.6" font-family="Arial" font-size="14.00">id </text>
<text text-anchor="start" x="87.47" y="-650.6" font-family="Arial" font-size="14.00" fill="#666666">[bigint]</text>
<polygon fill="none" stroke="black" points="65.69,-607.6 65.69,-638.4 333.65,-638.4 333.65,-607.6 65.69,-607.6"/>
<text text-anchor="start" x="72.69" y="-619.8" font-family="Arial" font-size="14.00">category_id </text>
<text text-anchor="start" x="148.95" y="-619.8" font-family="Arial" font-size="14.00" fill="#666666">[integer]</text>
<polygon fill="none" stroke="black" points="65.69,-576.8 65.69,-607.6 333.65,-607.6 333.65,-576.8 65.69,-576.8"/>
<text text-anchor="start" x="72.69" y="-589" font-family="Arial" font-size="14.00">prefecture_code </text>
<text text-anchor="start" x="177.75" y="-589" font-family="Arial" font-size="14.00" fill="#666666">[varchar(2)]</text>
<polygon fill="none" stroke="black" points="65.69,-546 65.69,-576.8 333.65,-576.8 333.65,-546 65.69,-546"/>
<text text-anchor="start" x="72.69" y="-558.2" font-family="Arial" font-size="14.00">unit_price </text>
<text text-anchor="start" x="137.28" y="-558.2" font-family="Arial" font-size="14.00" fill="#666666">[numeric(12,2)]</text>
<polygon fill="none" stroke="black" points="65.69,-515.2 65.69,-546 333.65,-546 333.65,-515.2 65.69,-515.2"/>
<text text-anchor="start" x="72.69" y="-527.4" font-family="Arial" font-size="14.00">unit_type </text>
<text text-anchor="start" x="133.4" y="-527.4" font-family="Arial" font-size="14.00" fill="#666666">[varchar(20)]</text>
<polygon fill="none" stroke="black" points="65.69,-484.4 65.69,-515.2 333.65,-515.2 333.65,-484.4 65.69,-484.4"/>
<text text-anchor="start" x="72.69" y="-496.6" font-family="Arial" font-size="14.00">valid_from </text>
<text text-anchor="start" x="141.15" y="-496.6" font-family="Arial" font-size="14.00" fill="#666666">[date]</text>
<polygon fill="none" stroke="black" points="65.69,-453.6 65.69,-484.4 333.65,-484.4 333.65,-453.6 65.69,-453.6"/>
<text text-anchor="start" x="72.69" y="-465.8" font-family="Arial" font-size="14.00">valid_to </text>
<text text-anchor="start" x="124.83" y="-465.8" font-family="Arial" font-size="14.00" fill="#666666">[date]</text>
<polygon fill="none" stroke="black" points="65.69,-422.8 65.69,-453.6 333.65,-453.6 333.65,-422.8 65.69,-422.8"/>
<text text-anchor="start" x="72.69" y="-435" font-family="Arial" font-size="14.00">notes </text>
<text text-anchor="start" x="110.82" y="-435" font-family="Arial" font-size="14.00" fill="#666666">[text]</text>
<polygon fill="none" stroke="black" points="65.69,-392 65.69,-422.8 333.65,-422.8 333.65,-392 65.69,-392"/>
<text text-anchor="start" x="72.69" y="-404.2" font-family="Arial" font-size="14.00">created_at </text>
<text text-anchor="start" x="142.73" y="-404.2" font-family="Arial" font-size="14.00" fill="#666666">[timestamp with time zone]</text>
<polygon fill="none" stroke="black" points="65.69,-361.2 65.69,-392 333.65,-392 333.65,-361.2 65.69,-361.2"/>
<text text-anchor="start" x="72.69" y="-373.4" font-family="Arial" font-size="14.00">updated_at </text>
<text text-anchor="start" x="146.64" y="-373.4" font-family="Arial" font-size="14.00" fill="#666666">[timestamp with time zone]</text>
</g>
<!-- public.unit_prices&#45;&gt;public.work_categories -->
<g id="edge1" class="edge">
<title>public.unit_prices:category_id&#45;&gt;public.work_categories:id</title>
<path fill="none" stroke="black" d="M343.43,-618.08C385.55,-569.94 399.82,-184.8 354.13,-184.8"/>
<polygon fill="black" stroke="black" points="343.66,-617.95 332.74,-618.91 339.01,-620.56 335.23,-622.67 335.23,-622.67 335.23,-622.67 339.01,-620.56 337.14,-626.76 343.66,-617.95"/>
<text text-anchor="start" x="341.65" y="-633" font-family="Arial" font-size="10.00">FOREIGN KEY (category_id) REFERENCES work_categories(id)</text>
</g>
</g>
</svg>
