<?xml version="1.0" encoding="UTF-8" standalone="no"?>
<!DOCTYPE svg PUBLIC "-//W3C//DTD SVG 1.1//EN"
 "http://www.w3.org/Graphics/SVG/1.1/DTD/svg11.dtd">
<!-- Generated by graphviz version 12.1.2 (20240928.0832)
 -->
<!-- Title: public.assessment_comments Pages: 1 -->
<svg width="1016pt" height="1337pt"
 viewBox="0.00 0.00 1016.12 1337.00" xmlns="http://www.w3.org/2000/svg" xmlns:xlink="http://www.w3.org/1999/xlink">
<g id="graph0" class="graph" transform="scale(1 1) rotate(0) translate(4 1333)">
<title>public.assessment_comments</title>
<polygon fill="white" stroke="none" points="-4,4 -4,-1333 1012.12,-1333 1012.12,4 -4,4"/>
<!-- public.assessment_comments -->
<g id="node1" class="node">
<title>public.assessment_comments</title>
<polygon fill="#efefef" stroke="none" points="416.76,-974.2 416.76,-1009.8 767.72,-1009.8 767.72,-974.2 416.76,-974.2"/>
<polygon fill="none" stroke="black" points="416.76,-974.2 416.76,-1009.8 767.72,-1009.8 767.72,-974.2 416.76,-974.2"/>
<text text-anchor="start" x="423.76" y="-987.6" font-family="Arial Bold" font-size="18.00">public.assessment_comments</text>
<text text-anchor="start" x="636.23" y="-987.6" font-family="Arial" font-size="14.00">    </text>
<text text-anchor="start" x="667.35" y="-987.6" font-family="Arial" font-size="14.00" fill="#666666">[BASE TABLE]</text>
<polygon fill="none" stroke="black" points="416.76,-943.4 416.76,-974.2 767.72,-974.2 767.72,-943.4 416.76,-943.4"/>
<text text-anchor="start" x="423.76" y="-955.6" font-family="Arial" font-size="14.00">id </text>
<text text-anchor="start" x="438.55" y="-955.6" font-family="Arial" font-size="14.00" fill="#666666">[integer]</text>
<polygon fill="none" stroke="black" points="416.76,-912.6 416.76,-943.4 767.72,-943.4 767.72,-912.6 416.76,-912.6"/>
<text text-anchor="start" x="423.76" y="-924.8" font-family="Arial" font-size="14.00">assessment_id </text>
<text text-anchor="start" x="521.03" y="-924.8" font-family="Arial" font-size="14.00" fill="#666666">[integer]</text>
<polygon fill="none" stroke="black" points="416.76,-881.8 416.76,-912.6 767.72,-912.6 767.72,-881.8 416.76,-881.8"/>
<text text-anchor="start" x="423.76" y="-894" font-family="Arial" font-size="14.00">user_id </text>
<text text-anchor="start" x="473.57" y="-894" font-family="Arial" font-size="14.00" fill="#666666">[uuid]</text>
<polygon fill="none" stroke="black" points="416.76,-851 416.76,-881.8 767.72,-881.8 767.72,-851 416.76,-851"/>
<text text-anchor="start" x="423.76" y="-863.2" font-family="Arial" font-size="14.00">comment_text </text>
<text text-anchor="start" x="515.58" y="-863.2" font-family="Arial" font-size="14.00" fill="#666666">[text]</text>
<polygon fill="none" stroke="black" points="416.76,-820.2 416.76,-851 767.72,-851 767.72,-820.2 416.76,-820.2"/>
<text text-anchor="start" x="423.76" y="-832.4" font-family="Arial" font-size="14.00">comment_time </text>
<text text-anchor="start" x="519.46" y="-832.4" font-family="Arial" font-size="14.00" fill="#666666">[timestamp with time zone]</text>
<polygon fill="none" stroke="black" points="416.76,-789.4 416.76,-820.2 767.72,-820.2 767.72,-789.4 416.76,-789.4"/>
<text text-anchor="start" x="423.76" y="-801.6" font-family="Arial" font-size="14.00">parent_comment_id </text>
<text text-anchor="start" x="551.39" y="-801.6" font-family="Arial" font-size="14.00" fill="#666666">[integer]</text>
<polygon fill="none" stroke="black" points="416.76,-758.6 416.76,-789.4 767.72,-789.4 767.72,-758.6 416.76,-758.6"/>
<text text-anchor="start" x="423.76" y="-770.8" font-family="Arial" font-size="14.00">created_at </text>
<text text-anchor="start" x="493.81" y="-770.8" font-family="Arial" font-size="14.00" fill="#666666">[timestamp with time zone]</text>
<polygon fill="none" stroke="black" points="416.76,-727.8 416.76,-758.6 767.72,-758.6 767.72,-727.8 416.76,-727.8"/>
<text text-anchor="start" x="423.76" y="-740" font-family="Arial" font-size="14.00">updated_at </text>
<text text-anchor="start" x="497.72" y="-740" font-family="Arial" font-size="14.00" fill="#666666">[timestamp with time zone]</text>
<polygon fill="none" stroke="black" points="416.76,-697 416.76,-727.8 767.72,-727.8 767.72,-697 416.76,-697"/>
<text text-anchor="start" x="423.76" y="-709.2" font-family="Arial" font-size="14.00">deleted_at </text>
<text text-anchor="start" x="493.04" y="-709.2" font-family="Arial" font-size="14.00" fill="#666666">[timestamp with time zone]</text>
<polygon fill="none" stroke="black" stroke-width="3" points="415.26,-695.5 415.26,-1011.3 769.22,-1011.3 769.22,-695.5 415.26,-695.5"/>
</g>
<!-- public.assessment_comments&#45;&gt;public.assessment_comments -->
<g id="edge1" class="edge">
<title>public.assessment_comments:parent_comment_id&#45;&gt;public.assessment_comments:id</title>
<path fill="none" stroke="black" d="M593.53,-830.15C601.22,-999.1 600.79,-1329 592.24,-1329 583.52,-1329 583.25,-1130.36 591.42,-973.81"/>
<polygon fill="black" stroke="black" points="593.52,-830.07 597.54,-819.87 593.27,-824.75 593.07,-820.42 593.07,-820.42 593.07,-820.42 593.27,-824.75 588.55,-820.3 593.52,-830.07"/>
<text text-anchor="start" x="226.48" y="-829.75" font-family="Arial" font-size="10.00">FOREIGN KEY (parent_comment_id) REFERENCES assessment_comments(id)</text>
</g>
<!-- public.assessments -->
<g id="node2" class="node">
<title>public.assessments</title>
<polygon fill="#efefef" stroke="none" points="249.75,-536 249.75,-571.6 524.73,-571.6 524.73,-536 249.75,-536"/>
<polygon fill="none" stroke="black" points="249.75,-536 249.75,-571.6 524.73,-571.6 524.73,-536 249.75,-536"/>
<text text-anchor="start" x="256.75" y="-549.4" font-family="Arial Bold" font-size="18.00">public.assessments</text>
<text text-anchor="start" x="393.24" y="-549.4" font-family="Arial" font-size="14.00">    </text>
<text text-anchor="start" x="424.36" y="-549.4" font-family="Arial" font-size="14.00" fill="#666666">[BASE TABLE]</text>
<polygon fill="none" stroke="black" points="249.75,-505.2 249.75,-536 524.73,-536 524.73,-505.2 249.75,-505.2"/>
<text text-anchor="start" x="256.75" y="-517.4" font-family="Arial" font-size="14.00">id </text>
<text text-anchor="start" x="271.54" y="-517.4" font-family="Arial" font-size="14.00" fill="#666666">[bigint]</text>
<polygon fill="none" stroke="black" points="249.75,-474.4 249.75,-505.2 524.73,-505.2 524.73,-474.4 249.75,-474.4"/>
<text text-anchor="start" x="256.75" y="-486.6" font-family="Arial" font-size="14.00">disaster_id </text>
<text text-anchor="start" x="328.35" y="-486.6" font-family="Arial" font-size="14.00" fill="#666666">[uuid]</text>
<polygon fill="none" stroke="black" points="249.75,-443.6 249.75,-474.4 524.73,-474.4 524.73,-443.6 249.75,-443.6"/>
<text text-anchor="start" x="256.75" y="-455.8" font-family="Arial" font-size="14.00">user_id </text>
<text text-anchor="start" x="306.56" y="-455.8" font-family="Arial" font-size="14.00" fill="#666666">[uuid]</text>
<polygon fill="none" stroke="black" points="249.75,-412.8 249.75,-443.6 524.73,-443.6 524.73,-412.8 249.75,-412.8"/>
<text text-anchor="start" x="256.75" y="-425" font-family="Arial" font-size="14.00">assessment_date </text>
<text text-anchor="start" x="370.37" y="-425" font-family="Arial" font-size="14.00" fill="#666666">[date]</text>
<polygon fill="none" stroke="black" points="249.75,-382 249.75,-412.8 524.73,-412.8 524.73,-382 249.75,-382"/>
<text text-anchor="start" x="256.75" y="-394.2" font-family="Arial" font-size="14.00">assessment_type </text>
<text text-anchor="start" x="369.59" y="-394.2" font-family="Arial" font-size="14.00" fill="#666666">[varchar(50)]</text>
<polygon fill="none" stroke="black" points="249.75,-351.2 249.75,-382 524.73,-382 524.73,-351.2 249.75,-351.2"/>
<text text-anchor="start" x="256.75" y="-363.4" font-family="Arial" font-size="14.00">status </text>
<text text-anchor="start" x="297.99" y="-363.4" font-family="Arial" font-size="14.00" fill="#666666">[varchar(30)]</text>
<polygon fill="none" stroke="black" points="249.75,-320.4 249.75,-351.2 524.73,-351.2 524.73,-320.4 249.75,-320.4"/>
<text text-anchor="start" x="256.75" y="-332.6" font-family="Arial" font-size="14.00">assessment_method </text>
<text text-anchor="start" x="389.82" y="-332.6" font-family="Arial" font-size="14.00" fill="#666666">[varchar(50)]</text>
<polygon fill="none" stroke="black" points="249.75,-289.6 249.75,-320.4 524.73,-320.4 524.73,-289.6 249.75,-289.6"/>
<text text-anchor="start" x="256.75" y="-301.8" font-family="Arial" font-size="14.00">assessment_summary </text>
<text text-anchor="start" x="400.68" y="-301.8" font-family="Arial" font-size="14.00" fill="#666666">[text]</text>
<polygon fill="none" stroke="black" points="249.75,-258.8 249.75,-289.6 524.73,-289.6 524.73,-258.8 249.75,-258.8"/>
<text text-anchor="start" x="256.75" y="-271" font-family="Arial" font-size="14.00">damage_amount </text>
<text text-anchor="start" x="365.72" y="-271" font-family="Arial" font-size="14.00" fill="#666666">[numeric(15,2)]</text>
<polygon fill="none" stroke="black" points="249.75,-228 249.75,-258.8 524.73,-258.8 524.73,-228 249.75,-228"/>
<text text-anchor="start" x="256.75" y="-240.2" font-family="Arial" font-size="14.00">approved_amount </text>
<text text-anchor="start" x="373.5" y="-240.2" font-family="Arial" font-size="14.00" fill="#666666">[numeric(15,2)]</text>
<polygon fill="none" stroke="black" points="249.75,-197.2 249.75,-228 524.73,-228 524.73,-197.2 249.75,-197.2"/>
<text text-anchor="start" x="256.75" y="-209.4" font-family="Arial" font-size="14.00">approval_date </text>
<text text-anchor="start" x="349.38" y="-209.4" font-family="Arial" font-size="14.00" fill="#666666">[timestamp with time zone]</text>
<polygon fill="none" stroke="black" points="249.75,-166.4 249.75,-197.2 524.73,-197.2 524.73,-166.4 249.75,-166.4"/>
<text text-anchor="start" x="256.75" y="-178.6" font-family="Arial" font-size="14.00">approved_by </text>
<text text-anchor="start" x="341.59" y="-178.6" font-family="Arial" font-size="14.00" fill="#666666">[uuid]</text>
<polygon fill="none" stroke="black" points="249.75,-135.6 249.75,-166.4 524.73,-166.4 524.73,-135.6 249.75,-135.6"/>
<text text-anchor="start" x="256.75" y="-147.8" font-family="Arial" font-size="14.00">notes </text>
<text text-anchor="start" x="294.89" y="-147.8" font-family="Arial" font-size="14.00" fill="#666666">[text]</text>
<polygon fill="none" stroke="black" points="249.75,-104.8 249.75,-135.6 524.73,-135.6 524.73,-104.8 249.75,-104.8"/>
<text text-anchor="start" x="256.75" y="-117" font-family="Arial" font-size="14.00">created_at </text>
<text text-anchor="start" x="326.8" y="-117" font-family="Arial" font-size="14.00" fill="#666666">[timestamp with time zone]</text>
<polygon fill="none" stroke="black" points="249.75,-74 249.75,-104.8 524.73,-104.8 524.73,-74 249.75,-74"/>
<text text-anchor="start" x="256.75" y="-86.2" font-family="Arial" font-size="14.00">updated_at </text>
<text text-anchor="start" x="330.71" y="-86.2" font-family="Arial" font-size="14.00" fill="#666666">[timestamp with time zone]</text>
<polygon fill="none" stroke="black" points="249.75,-43.2 249.75,-74 524.73,-74 524.73,-43.2 249.75,-43.2"/>
<text text-anchor="start" x="256.75" y="-55.4" font-family="Arial" font-size="14.00">deleted_at </text>
<text text-anchor="start" x="326.04" y="-55.4" font-family="Arial" font-size="14.00" fill="#666666">[timestamp with time zone]</text>
</g>
<!-- public.assessment_comments&#45;&gt;public.assessments -->
<g id="edge2" class="edge">
<title>public.assessment_comments:assessment_id&#45;&gt;public.assessments:id</title>
<path fill="none" stroke="black" d="M405.38,-927.55C295.63,-917.67 346.67,-747.69 416.76,-650.8 446.41,-609.82 494.94,-655.68 524.73,-614.8 549.39,-580.96 567.6,-520.6 525.73,-520.6"/>
<polygon fill="black" stroke="black" points="405.44,-927.55 415.23,-932.48 410.77,-927.78 415.09,-927.97 415.09,-927.97 415.09,-927.97 410.77,-927.78 415.62,-923.49 405.44,-927.55"/>
<text text-anchor="start" x="7" y="-938" font-family="Arial" font-size="10.00">FOREIGN KEY (assessment_id) REFERENCES assessments(id) ON DELETE CASCADE</text>
</g>
<!-- public.users -->
<g id="node3" class="node">
<title>public.users</title>
<polygon fill="#efefef" stroke="none" points="629.56,-536 629.56,-571.6 964.92,-571.6 964.92,-536 629.56,-536"/>
<polygon fill="none" stroke="black" points="629.56,-536 629.56,-571.6 964.92,-571.6 964.92,-536 629.56,-536"/>
<text text-anchor="start" x="691.75" y="-549.4" font-family="Arial Bold" font-size="18.00">public.users</text>
<text text-anchor="start" x="778.24" y="-549.4" font-family="Arial" font-size="14.00">    </text>
<text text-anchor="start" x="809.36" y="-549.4" font-family="Arial" font-size="14.00" fill="#666666">[BASE TABLE]</text>
<polygon fill="none" stroke="black" points="629.56,-505.2 629.56,-536 964.92,-536 964.92,-505.2 629.56,-505.2"/>
<text text-anchor="start" x="636.56" y="-517.4" font-family="Arial" font-size="14.00">id </text>
<text text-anchor="start" x="651.35" y="-517.4" font-family="Arial" font-size="14.00" fill="#666666">[uuid]</text>
<polygon fill="none" stroke="black" points="629.56,-474.4 629.56,-505.2 964.92,-505.2 964.92,-474.4 629.56,-474.4"/>
<text text-anchor="start" x="636.56" y="-486.6" font-family="Arial" font-size="14.00">name </text>
<text text-anchor="start" x="675.47" y="-486.6" font-family="Arial" font-size="14.00" fill="#666666">[varchar(255)]</text>
<polygon fill="none" stroke="black" points="629.56,-443.6 629.56,-474.4 964.92,-474.4 964.92,-443.6 629.56,-443.6"/>
<text text-anchor="start" x="636.56" y="-455.8" font-family="Arial" font-size="14.00">email </text>
<text text-anchor="start" x="673.91" y="-455.8" font-family="Arial" font-size="14.00" fill="#666666">[varchar(255)]</text>
<polygon fill="none" stroke="black" points="629.56,-412.8 629.56,-443.6 964.92,-443.6 964.92,-412.8 629.56,-412.8"/>
<text text-anchor="start" x="636.56" y="-425" font-family="Arial" font-size="14.00">password </text>
<text text-anchor="start" x="700.37" y="-425" font-family="Arial" font-size="14.00" fill="#666666">[varchar(255)]</text>
<polygon fill="none" stroke="black" points="629.56,-382 629.56,-412.8 964.92,-412.8 964.92,-382 629.56,-382"/>
<text text-anchor="start" x="636.56" y="-394.2" font-family="Arial" font-size="14.00">organization_id </text>
<text text-anchor="start" x="735.41" y="-394.2" font-family="Arial" font-size="14.00" fill="#666666">[integer]</text>
<polygon fill="none" stroke="black" points="629.56,-351.2 629.56,-382 964.92,-382 964.92,-351.2 629.56,-351.2"/>
<text text-anchor="start" x="636.56" y="-363.4" font-family="Arial" font-size="14.00">role_id </text>
<text text-anchor="start" x="682.48" y="-363.4" font-family="Arial" font-size="14.00" fill="#666666">[smallint]</text>
<polygon fill="none" stroke="black" points="629.56,-320.4 629.56,-351.2 964.92,-351.2 964.92,-320.4 629.56,-320.4"/>
<text text-anchor="start" x="636.56" y="-332.6" font-family="Arial" font-size="14.00">is_active </text>
<text text-anchor="start" x="694.92" y="-332.6" font-family="Arial" font-size="14.00" fill="#666666">[boolean]</text>
<polygon fill="none" stroke="black" points="629.56,-289.6 629.56,-320.4 964.92,-320.4 964.92,-289.6 629.56,-289.6"/>
<text text-anchor="start" x="636.56" y="-301.8" font-family="Arial" font-size="14.00">email_verified </text>
<text text-anchor="start" x="726.82" y="-301.8" font-family="Arial" font-size="14.00" fill="#666666">[boolean]</text>
<polygon fill="none" stroke="black" points="629.56,-258.8 629.56,-289.6 964.92,-289.6 964.92,-258.8 629.56,-258.8"/>
<text text-anchor="start" x="636.56" y="-271" font-family="Arial" font-size="14.00">mfa_enabled </text>
<text text-anchor="start" x="721.4" y="-271" font-family="Arial" font-size="14.00" fill="#666666">[boolean]</text>
<polygon fill="none" stroke="black" points="629.56,-228 629.56,-258.8 964.92,-258.8 964.92,-228 629.56,-228"/>
<text text-anchor="start" x="636.56" y="-240.2" font-family="Arial" font-size="14.00">mfa_secret </text>
<text text-anchor="start" x="709.7" y="-240.2" font-family="Arial" font-size="14.00" fill="#666666">[varchar(255)]</text>
<polygon fill="none" stroke="black" points="629.56,-197.2 629.56,-228 964.92,-228 964.92,-197.2 629.56,-197.2"/>
<text text-anchor="start" x="636.56" y="-209.4" font-family="Arial" font-size="14.00">password_reset_token </text>
<text text-anchor="start" x="781.31" y="-209.4" font-family="Arial" font-size="14.00" fill="#666666">[varchar(255)]</text>
<polygon fill="none" stroke="black" points="629.56,-166.4 629.56,-197.2 964.92,-197.2 964.92,-166.4 629.56,-166.4"/>
<text text-anchor="start" x="636.56" y="-178.6" font-family="Arial" font-size="14.00">password_reset_expires </text>
<text text-anchor="start" x="792.2" y="-178.6" font-family="Arial" font-size="14.00" fill="#666666">[timestamp with time zone]</text>
<polygon fill="none" stroke="black" points="629.56,-135.6 629.56,-166.4 964.92,-166.4 964.92,-135.6 629.56,-135.6"/>
<text text-anchor="start" x="636.56" y="-147.8" font-family="Arial" font-size="14.00">last_password_change </text>
<text text-anchor="start" x="783.66" y="-147.8" font-family="Arial" font-size="14.00" fill="#666666">[timestamp with time zone]</text>
<polygon fill="none" stroke="black" points="629.56,-104.8 629.56,-135.6 964.92,-135.6 964.92,-104.8 629.56,-104.8"/>
<text text-anchor="start" x="636.56" y="-117" font-family="Arial" font-size="14.00">created_at </text>
<text text-anchor="start" x="706.61" y="-117" font-family="Arial" font-size="14.00" fill="#666666">[timestamp with time zone]</text>
<polygon fill="none" stroke="black" points="629.56,-74 629.56,-104.8 964.92,-104.8 964.92,-74 629.56,-74"/>
<text text-anchor="start" x="636.56" y="-86.2" font-family="Arial" font-size="14.00">updated_at </text>
<text text-anchor="start" x="710.52" y="-86.2" font-family="Arial" font-size="14.00" fill="#666666">[timestamp with time zone]</text>
<polygon fill="none" stroke="black" points="629.56,-43.2 629.56,-74 964.92,-74 964.92,-43.2 629.56,-43.2"/>
<text text-anchor="start" x="636.56" y="-55.4" font-family="Arial" font-size="14.00">deleted_at </text>
<text text-anchor="start" x="705.84" y="-55.4" font-family="Arial" font-size="14.00" fill="#666666">[timestamp with time zone]</text>
</g>
<!-- public.assessment_comments&#45;&gt;public.users -->
<g id="edge3" class="edge">
<title>public.assessment_comments:user_id&#45;&gt;public.users:id</title>
<path fill="none" stroke="black" d="M779.13,-896.68C875.32,-886.66 832.63,-734.44 767.72,-650.8 728.82,-600.67 668.63,-664.8 629.56,-614.8 603.78,-581.81 586.69,-520.6 628.56,-520.6"/>
<polygon fill="black" stroke="black" points="779.04,-896.68 768.83,-892.69 773.71,-896.95 769.39,-897.17 769.39,-897.17 769.39,-897.17 773.71,-896.95 769.28,-901.68 779.04,-896.68"/>
<text text-anchor="start" x="775.72" y="-907.2" font-family="Arial" font-size="10.00">FOREIGN KEY (user_id) REFERENCES users(id)</text>
</g>
</g>
</svg>
