<?xml version="1.0" encoding="UTF-8" standalone="no"?>
<!DOCTYPE svg PUBLIC "-//W3C//DTD SVG 1.1//EN"
 "http://www.w3.org/Graphics/SVG/1.1/DTD/svg11.dtd">
<!-- Generated by graphviz version 12.1.2 (20240928.0832)
 -->
<!-- Title: public.timelines Pages: 1 -->
<svg width="711pt" height="1064pt"
 viewBox="0.00 0.00 710.65 1064.00" xmlns="http://www.w3.org/2000/svg" xmlns:xlink="http://www.w3.org/1999/xlink">
<g id="graph0" class="graph" transform="scale(1 1) rotate(0) translate(4 1060)">
<title>public.timelines</title>
<polygon fill="white" stroke="none" points="-4,4 -4,-1060 706.65,-1060 706.65,4 -4,4"/>
<!-- public.timelines -->
<g id="node1" class="node">
<title>public.timelines</title>
<polygon fill="#efefef" stroke="none" points="49.42,-974.2 49.42,-1009.8 322.57,-1009.8 322.57,-974.2 49.42,-974.2"/>
<polygon fill="none" stroke="black" points="49.42,-974.2 49.42,-1009.8 322.57,-1009.8 322.57,-974.2 49.42,-974.2"/>
<text text-anchor="start" x="66.01" y="-987.6" font-family="Arial Bold" font-size="18.00">public.timelines</text>
<text text-anchor="start" x="181.49" y="-987.6" font-family="Arial" font-size="14.00">    </text>
<text text-anchor="start" x="212.61" y="-987.6" font-family="Arial" font-size="14.00" fill="#666666">[BASE TABLE]</text>
<polygon fill="none" stroke="black" points="49.42,-943.4 49.42,-974.2 322.57,-974.2 322.57,-943.4 49.42,-943.4"/>
<text text-anchor="start" x="56.42" y="-955.6" font-family="Arial" font-size="14.00">id </text>
<text text-anchor="start" x="71.21" y="-955.6" font-family="Arial" font-size="14.00" fill="#666666">[integer]</text>
<polygon fill="none" stroke="black" points="49.42,-912.6 49.42,-943.4 322.57,-943.4 322.57,-912.6 49.42,-912.6"/>
<text text-anchor="start" x="56.42" y="-924.8" font-family="Arial" font-size="14.00">disaster_id </text>
<text text-anchor="start" x="128.02" y="-924.8" font-family="Arial" font-size="14.00" fill="#666666">[uuid]</text>
<polygon fill="none" stroke="black" points="49.42,-881.8 49.42,-912.6 322.57,-912.6 322.57,-881.8 49.42,-881.8"/>
<text text-anchor="start" x="56.42" y="-894" font-family="Arial" font-size="14.00">event_name </text>
<text text-anchor="start" x="137.37" y="-894" font-family="Arial" font-size="14.00" fill="#666666">[varchar(255)]</text>
<polygon fill="none" stroke="black" points="49.42,-851 49.42,-881.8 322.57,-881.8 322.57,-851 49.42,-851"/>
<text text-anchor="start" x="56.42" y="-863.2" font-family="Arial" font-size="14.00">event_time </text>
<text text-anchor="start" x="128.8" y="-863.2" font-family="Arial" font-size="14.00" fill="#666666">[timestamp without time zone]</text>
<polygon fill="none" stroke="black" points="49.42,-820.2 49.42,-851 322.57,-851 322.57,-820.2 49.42,-820.2"/>
<text text-anchor="start" x="56.42" y="-832.4" font-family="Arial" font-size="14.00">description </text>
<text text-anchor="start" x="128.02" y="-832.4" font-family="Arial" font-size="14.00" fill="#666666">[text]</text>
<polygon fill="none" stroke="black" points="49.42,-789.4 49.42,-820.2 322.57,-820.2 322.57,-789.4 49.42,-789.4"/>
<text text-anchor="start" x="56.42" y="-801.6" font-family="Arial" font-size="14.00">severity </text>
<text text-anchor="start" x="108.55" y="-801.6" font-family="Arial" font-size="14.00" fill="#666666">[varchar(50)]</text>
<polygon fill="none" stroke="black" points="49.42,-758.6 49.42,-789.4 322.57,-789.4 322.57,-758.6 49.42,-758.6"/>
<text text-anchor="start" x="56.42" y="-770.8" font-family="Arial" font-size="14.00">created_at </text>
<text text-anchor="start" x="126.47" y="-770.8" font-family="Arial" font-size="14.00" fill="#666666">[timestamp without time zone]</text>
<polygon fill="none" stroke="black" points="49.42,-727.8 49.42,-758.6 322.57,-758.6 322.57,-727.8 49.42,-727.8"/>
<text text-anchor="start" x="56.42" y="-740" font-family="Arial" font-size="14.00">updated_at </text>
<text text-anchor="start" x="130.38" y="-740" font-family="Arial" font-size="14.00" fill="#666666">[timestamp without time zone]</text>
<polygon fill="none" stroke="black" points="49.42,-697 49.42,-727.8 322.57,-727.8 322.57,-697 49.42,-697"/>
<text text-anchor="start" x="56.42" y="-709.2" font-family="Arial" font-size="14.00">deleted_at </text>
<text text-anchor="start" x="125.71" y="-709.2" font-family="Arial" font-size="14.00" fill="#666666">[timestamp without time zone]</text>
<polygon fill="none" stroke="black" stroke-width="3" points="47.92,-695.5 47.92,-1011.3 324.07,-1011.3 324.07,-695.5 47.92,-695.5"/>
</g>
<!-- public.disasters -->
<g id="node2" class="node">
<title>public.disasters</title>
<polygon fill="#efefef" stroke="none" points="43.2,-536 43.2,-571.6 328.79,-571.6 328.79,-536 43.2,-536"/>
<polygon fill="none" stroke="black" points="43.2,-536 43.2,-571.6 328.79,-571.6 328.79,-536 43.2,-536"/>
<text text-anchor="start" x="68.01" y="-549.4" font-family="Arial Bold" font-size="18.00">public.disasters</text>
<text text-anchor="start" x="179.49" y="-549.4" font-family="Arial" font-size="14.00">    </text>
<text text-anchor="start" x="210.61" y="-549.4" font-family="Arial" font-size="14.00" fill="#666666">[BASE TABLE]</text>
<polygon fill="none" stroke="black" points="43.2,-505.2 43.2,-536 328.79,-536 328.79,-505.2 43.2,-505.2"/>
<text text-anchor="start" x="50.2" y="-517.4" font-family="Arial" font-size="14.00">id </text>
<text text-anchor="start" x="64.99" y="-517.4" font-family="Arial" font-size="14.00" fill="#666666">[uuid]</text>
<polygon fill="none" stroke="black" points="43.2,-474.4 43.2,-505.2 328.79,-505.2 328.79,-474.4 43.2,-474.4"/>
<text text-anchor="start" x="50.2" y="-486.6" font-family="Arial" font-size="14.00">name </text>
<text text-anchor="start" x="89.11" y="-486.6" font-family="Arial" font-size="14.00" fill="#666666">[varchar(100)]</text>
<polygon fill="none" stroke="black" points="43.2,-443.6 43.2,-474.4 328.79,-474.4 328.79,-443.6 43.2,-443.6"/>
<text text-anchor="start" x="50.2" y="-455.8" font-family="Arial" font-size="14.00">municipality_id </text>
<text text-anchor="start" x="145.91" y="-455.8" font-family="Arial" font-size="14.00" fill="#666666">[integer]</text>
<polygon fill="none" stroke="black" points="43.2,-412.8 43.2,-443.6 328.79,-443.6 328.79,-412.8 43.2,-412.8"/>
<text text-anchor="start" x="50.2" y="-425" font-family="Arial" font-size="14.00">occurred_at </text>
<text text-anchor="start" x="128.02" y="-425" font-family="Arial" font-size="14.00" fill="#666666">[timestamp with time zone]</text>
<polygon fill="none" stroke="black" points="43.2,-382 43.2,-412.8 328.79,-412.8 328.79,-382 43.2,-382"/>
<text text-anchor="start" x="50.2" y="-394.2" font-family="Arial" font-size="14.00">summary </text>
<text text-anchor="start" x="111.65" y="-394.2" font-family="Arial" font-size="14.00" fill="#666666">[text]</text>
<polygon fill="none" stroke="black" points="43.2,-351.2 43.2,-382 328.79,-382 328.79,-351.2 43.2,-351.2"/>
<text text-anchor="start" x="50.2" y="-363.4" font-family="Arial" font-size="14.00">work_category_id </text>
<text text-anchor="start" x="163.81" y="-363.4" font-family="Arial" font-size="14.00" fill="#666666">[bigint]</text>
<polygon fill="none" stroke="black" points="43.2,-320.4 43.2,-351.2 328.79,-351.2 328.79,-320.4 43.2,-320.4"/>
<text text-anchor="start" x="50.2" y="-332.6" font-family="Arial" font-size="14.00">status </text>
<text text-anchor="start" x="91.44" y="-332.6" font-family="Arial" font-size="14.00" fill="#666666">[disaster_status]</text>
<polygon fill="none" stroke="black" points="43.2,-289.6 43.2,-320.4 328.79,-320.4 328.79,-289.6 43.2,-289.6"/>
<text text-anchor="start" x="50.2" y="-301.8" font-family="Arial" font-size="14.00">affected_area_size </text>
<text text-anchor="start" x="172.39" y="-301.8" font-family="Arial" font-size="14.00" fill="#666666">[numeric(10,2)]</text>
<polygon fill="none" stroke="black" points="43.2,-258.8 43.2,-289.6 328.79,-289.6 328.79,-258.8 43.2,-258.8"/>
<text text-anchor="start" x="50.2" y="-271" font-family="Arial" font-size="14.00">estimated_damage_amount </text>
<text text-anchor="start" x="227.65" y="-271" font-family="Arial" font-size="14.00" fill="#666666">[numeric(15,2)]</text>
<polygon fill="none" stroke="black" points="43.2,-228 43.2,-258.8 328.79,-258.8 328.79,-228 43.2,-228"/>
<text text-anchor="start" x="50.2" y="-240.2" font-family="Arial" font-size="14.00">latitude </text>
<text text-anchor="start" x="99.23" y="-240.2" font-family="Arial" font-size="14.00" fill="#666666">[numeric(10,8)]</text>
<polygon fill="none" stroke="black" points="43.2,-197.2 43.2,-228 328.79,-228 328.79,-197.2 43.2,-197.2"/>
<text text-anchor="start" x="50.2" y="-209.4" font-family="Arial" font-size="14.00">longitude </text>
<text text-anchor="start" x="110.92" y="-209.4" font-family="Arial" font-size="14.00" fill="#666666">[numeric(11,8)]</text>
<polygon fill="none" stroke="black" points="43.2,-166.4 43.2,-197.2 328.79,-197.2 328.79,-166.4 43.2,-166.4"/>
<text text-anchor="start" x="50.2" y="-178.6" font-family="Arial" font-size="14.00">address </text>
<text text-anchor="start" x="103.9" y="-178.6" font-family="Arial" font-size="14.00" fill="#666666">[text]</text>
<polygon fill="none" stroke="black" points="43.2,-135.6 43.2,-166.4 328.79,-166.4 328.79,-135.6 43.2,-135.6"/>
<text text-anchor="start" x="50.2" y="-147.8" font-family="Arial" font-size="14.00">place_id </text>
<text text-anchor="start" x="106.24" y="-147.8" font-family="Arial" font-size="14.00" fill="#666666">[varchar(255)]</text>
<polygon fill="none" stroke="black" points="43.2,-104.8 43.2,-135.6 328.79,-135.6 328.79,-104.8 43.2,-104.8"/>
<text text-anchor="start" x="50.2" y="-117" font-family="Arial" font-size="14.00">created_at </text>
<text text-anchor="start" x="120.25" y="-117" font-family="Arial" font-size="14.00" fill="#666666">[timestamp with time zone]</text>
<polygon fill="none" stroke="black" points="43.2,-74 43.2,-104.8 328.79,-104.8 328.79,-74 43.2,-74"/>
<text text-anchor="start" x="50.2" y="-86.2" font-family="Arial" font-size="14.00">updated_at </text>
<text text-anchor="start" x="124.16" y="-86.2" font-family="Arial" font-size="14.00" fill="#666666">[timestamp with time zone]</text>
<polygon fill="none" stroke="black" points="43.2,-43.2 43.2,-74 328.79,-74 328.79,-43.2 43.2,-43.2"/>
<text text-anchor="start" x="50.2" y="-55.4" font-family="Arial" font-size="14.00">deleted_at </text>
<text text-anchor="start" x="119.48" y="-55.4" font-family="Arial" font-size="14.00" fill="#666666">[timestamp with time zone]</text>
</g>
<!-- public.timelines&#45;&gt;public.disasters -->
<g id="edge1" class="edge">
<title>public.timelines:disaster_id&#45;&gt;public.disasters:id</title>
<path fill="none" stroke="black" d="M333.79,-926.18C414.45,-896.79 416.8,-520.6 329.79,-520.6"/>
<polygon fill="black" stroke="black" points="333.74,-926.19 323.11,-923.51 328.49,-927.13 324.23,-927.88 324.23,-927.88 324.23,-927.88 328.49,-927.13 324.68,-932.37 333.74,-926.19"/>
<text text-anchor="start" x="330.57" y="-938" font-family="Arial" font-size="10.00">FOREIGN KEY (disaster_id) REFERENCES disasters(id) ON DELETE CASCADE</text>
</g>
</g>
</svg>
