<?xml version="1.0" encoding="UTF-8" standalone="no"?>
<!DOCTYPE svg PUBLIC "-//W3C//DTD SVG 1.1//EN"
 "http://www.w3.org/Graphics/SVG/1.1/DTD/svg11.dtd">
<!-- Generated by graphviz version 12.1.2 (20240928.0832)
 -->
<!-- Title: public.email_verification_tokens Pages: 1 -->
<svg width="779pt" height="1033pt"
 viewBox="0.00 0.00 779.08 1033.20" xmlns="http://www.w3.org/2000/svg" xmlns:xlink="http://www.w3.org/1999/xlink">
<g id="graph0" class="graph" transform="scale(1 1) rotate(0) translate(4 1029.2)">
<title>public.email_verification_tokens</title>
<polygon fill="white" stroke="none" points="-4,4 -4,-1029.2 775.08,-1029.2 775.08,4 -4,4"/>
<!-- public.email_verification_tokens -->
<g id="node1" class="node">
<title>public.email_verification_tokens</title>
<polygon fill="#efefef" stroke="none" points="46.2,-943.4 46.2,-979 422.12,-979 422.12,-943.4 46.2,-943.4"/>
<polygon fill="none" stroke="black" points="46.2,-943.4 46.2,-979 422.12,-979 422.12,-943.4 46.2,-943.4"/>
<text text-anchor="start" x="53.2" y="-956.8" font-family="Arial Bold" font-size="18.00">public.email_verification_tokens</text>
<text text-anchor="start" x="290.63" y="-956.8" font-family="Arial" font-size="14.00">    </text>
<text text-anchor="start" x="321.74" y="-956.8" font-family="Arial" font-size="14.00" fill="#666666">[BASE TABLE]</text>
<polygon fill="none" stroke="black" points="46.2,-912.6 46.2,-943.4 422.12,-943.4 422.12,-912.6 46.2,-912.6"/>
<text text-anchor="start" x="53.2" y="-924.8" font-family="Arial" font-size="14.00">id </text>
<text text-anchor="start" x="67.99" y="-924.8" font-family="Arial" font-size="14.00" fill="#666666">[uuid]</text>
<polygon fill="none" stroke="black" points="46.2,-881.8 46.2,-912.6 422.12,-912.6 422.12,-881.8 46.2,-881.8"/>
<text text-anchor="start" x="53.2" y="-894" font-family="Arial" font-size="14.00">user_id </text>
<text text-anchor="start" x="103.01" y="-894" font-family="Arial" font-size="14.00" fill="#666666">[uuid]</text>
<polygon fill="none" stroke="black" points="46.2,-851 46.2,-881.8 422.12,-881.8 422.12,-851 46.2,-851"/>
<text text-anchor="start" x="53.2" y="-863.2" font-family="Arial" font-size="14.00">token </text>
<text text-anchor="start" x="91.34" y="-863.2" font-family="Arial" font-size="14.00" fill="#666666">[varchar(255)]</text>
<polygon fill="none" stroke="black" points="46.2,-820.2 46.2,-851 422.12,-851 422.12,-820.2 46.2,-820.2"/>
<text text-anchor="start" x="53.2" y="-832.4" font-family="Arial" font-size="14.00">email </text>
<text text-anchor="start" x="90.54" y="-832.4" font-family="Arial" font-size="14.00" fill="#666666">[varchar(255)]</text>
<polygon fill="none" stroke="black" points="46.2,-789.4 46.2,-820.2 422.12,-820.2 422.12,-789.4 46.2,-789.4"/>
<text text-anchor="start" x="53.2" y="-801.6" font-family="Arial" font-size="14.00">expires_at </text>
<text text-anchor="start" x="121.68" y="-801.6" font-family="Arial" font-size="14.00" fill="#666666">[timestamp with time zone]</text>
<polygon fill="none" stroke="black" points="46.2,-758.6 46.2,-789.4 422.12,-789.4 422.12,-758.6 46.2,-758.6"/>
<text text-anchor="start" x="53.2" y="-770.8" font-family="Arial" font-size="14.00">used_at </text>
<text text-anchor="start" x="106.91" y="-770.8" font-family="Arial" font-size="14.00" fill="#666666">[timestamp with time zone]</text>
<polygon fill="none" stroke="black" points="46.2,-727.8 46.2,-758.6 422.12,-758.6 422.12,-727.8 46.2,-727.8"/>
<text text-anchor="start" x="53.2" y="-740" font-family="Arial" font-size="14.00">is_used </text>
<text text-anchor="start" x="105.34" y="-740" font-family="Arial" font-size="14.00" fill="#666666">[boolean]</text>
<polygon fill="none" stroke="black" points="46.2,-697 46.2,-727.8 422.12,-727.8 422.12,-697 46.2,-697"/>
<text text-anchor="start" x="53.2" y="-709.2" font-family="Arial" font-size="14.00">created_at </text>
<text text-anchor="start" x="123.25" y="-709.2" font-family="Arial" font-size="14.00" fill="#666666">[timestamp with time zone]</text>
<polygon fill="none" stroke="black" stroke-width="3" points="44.7,-695.5 44.7,-980.5 423.62,-980.5 423.62,-695.5 44.7,-695.5"/>
</g>
<!-- public.users -->
<g id="node2" class="node">
<title>public.users</title>
<polygon fill="#efefef" stroke="none" points="66.48,-536 66.48,-571.6 401.84,-571.6 401.84,-536 66.48,-536"/>
<polygon fill="none" stroke="black" points="66.48,-536 66.48,-571.6 401.84,-571.6 401.84,-536 66.48,-536"/>
<text text-anchor="start" x="128.67" y="-549.4" font-family="Arial Bold" font-size="18.00">public.users</text>
<text text-anchor="start" x="215.16" y="-549.4" font-family="Arial" font-size="14.00">    </text>
<text text-anchor="start" x="246.27" y="-549.4" font-family="Arial" font-size="14.00" fill="#666666">[BASE TABLE]</text>
<polygon fill="none" stroke="black" points="66.48,-505.2 66.48,-536 401.84,-536 401.84,-505.2 66.48,-505.2"/>
<text text-anchor="start" x="73.48" y="-517.4" font-family="Arial" font-size="14.00">id </text>
<text text-anchor="start" x="88.27" y="-517.4" font-family="Arial" font-size="14.00" fill="#666666">[uuid]</text>
<polygon fill="none" stroke="black" points="66.48,-474.4 66.48,-505.2 401.84,-505.2 401.84,-474.4 66.48,-474.4"/>
<text text-anchor="start" x="73.48" y="-486.6" font-family="Arial" font-size="14.00">name </text>
<text text-anchor="start" x="112.39" y="-486.6" font-family="Arial" font-size="14.00" fill="#666666">[varchar(255)]</text>
<polygon fill="none" stroke="black" points="66.48,-443.6 66.48,-474.4 401.84,-474.4 401.84,-443.6 66.48,-443.6"/>
<text text-anchor="start" x="73.48" y="-455.8" font-family="Arial" font-size="14.00">email </text>
<text text-anchor="start" x="110.82" y="-455.8" font-family="Arial" font-size="14.00" fill="#666666">[varchar(255)]</text>
<polygon fill="none" stroke="black" points="66.48,-412.8 66.48,-443.6 401.84,-443.6 401.84,-412.8 66.48,-412.8"/>
<text text-anchor="start" x="73.48" y="-425" font-family="Arial" font-size="14.00">password </text>
<text text-anchor="start" x="137.29" y="-425" font-family="Arial" font-size="14.00" fill="#666666">[varchar(255)]</text>
<polygon fill="none" stroke="black" points="66.48,-382 66.48,-412.8 401.84,-412.8 401.84,-382 66.48,-382"/>
<text text-anchor="start" x="73.48" y="-394.2" font-family="Arial" font-size="14.00">organization_id </text>
<text text-anchor="start" x="172.33" y="-394.2" font-family="Arial" font-size="14.00" fill="#666666">[integer]</text>
<polygon fill="none" stroke="black" points="66.48,-351.2 66.48,-382 401.84,-382 401.84,-351.2 66.48,-351.2"/>
<text text-anchor="start" x="73.48" y="-363.4" font-family="Arial" font-size="14.00">role_id </text>
<text text-anchor="start" x="119.4" y="-363.4" font-family="Arial" font-size="14.00" fill="#666666">[smallint]</text>
<polygon fill="none" stroke="black" points="66.48,-320.4 66.48,-351.2 401.84,-351.2 401.84,-320.4 66.48,-320.4"/>
<text text-anchor="start" x="73.48" y="-332.6" font-family="Arial" font-size="14.00">is_active </text>
<text text-anchor="start" x="131.84" y="-332.6" font-family="Arial" font-size="14.00" fill="#666666">[boolean]</text>
<polygon fill="none" stroke="black" points="66.48,-289.6 66.48,-320.4 401.84,-320.4 401.84,-289.6 66.48,-289.6"/>
<text text-anchor="start" x="73.48" y="-301.8" font-family="Arial" font-size="14.00">email_verified </text>
<text text-anchor="start" x="163.74" y="-301.8" font-family="Arial" font-size="14.00" fill="#666666">[boolean]</text>
<polygon fill="none" stroke="black" points="66.48,-258.8 66.48,-289.6 401.84,-289.6 401.84,-258.8 66.48,-258.8"/>
<text text-anchor="start" x="73.48" y="-271" font-family="Arial" font-size="14.00">mfa_enabled </text>
<text text-anchor="start" x="158.32" y="-271" font-family="Arial" font-size="14.00" fill="#666666">[boolean]</text>
<polygon fill="none" stroke="black" points="66.48,-228 66.48,-258.8 401.84,-258.8 401.84,-228 66.48,-228"/>
<text text-anchor="start" x="73.48" y="-240.2" font-family="Arial" font-size="14.00">mfa_secret </text>
<text text-anchor="start" x="146.62" y="-240.2" font-family="Arial" font-size="14.00" fill="#666666">[varchar(255)]</text>
<polygon fill="none" stroke="black" points="66.48,-197.2 66.48,-228 401.84,-228 401.84,-197.2 66.48,-197.2"/>
<text text-anchor="start" x="73.48" y="-209.4" font-family="Arial" font-size="14.00">password_reset_token </text>
<text text-anchor="start" x="218.23" y="-209.4" font-family="Arial" font-size="14.00" fill="#666666">[varchar(255)]</text>
<polygon fill="none" stroke="black" points="66.48,-166.4 66.48,-197.2 401.84,-197.2 401.84,-166.4 66.48,-166.4"/>
<text text-anchor="start" x="73.48" y="-178.6" font-family="Arial" font-size="14.00">password_reset_expires </text>
<text text-anchor="start" x="229.11" y="-178.6" font-family="Arial" font-size="14.00" fill="#666666">[timestamp with time zone]</text>
<polygon fill="none" stroke="black" points="66.48,-135.6 66.48,-166.4 401.84,-166.4 401.84,-135.6 66.48,-135.6"/>
<text text-anchor="start" x="73.48" y="-147.8" font-family="Arial" font-size="14.00">last_password_change </text>
<text text-anchor="start" x="220.58" y="-147.8" font-family="Arial" font-size="14.00" fill="#666666">[timestamp with time zone]</text>
<polygon fill="none" stroke="black" points="66.48,-104.8 66.48,-135.6 401.84,-135.6 401.84,-104.8 66.48,-104.8"/>
<text text-anchor="start" x="73.48" y="-117" font-family="Arial" font-size="14.00">created_at </text>
<text text-anchor="start" x="143.53" y="-117" font-family="Arial" font-size="14.00" fill="#666666">[timestamp with time zone]</text>
<polygon fill="none" stroke="black" points="66.48,-74 66.48,-104.8 401.84,-104.8 401.84,-74 66.48,-74"/>
<text text-anchor="start" x="73.48" y="-86.2" font-family="Arial" font-size="14.00">updated_at </text>
<text text-anchor="start" x="147.44" y="-86.2" font-family="Arial" font-size="14.00" fill="#666666">[timestamp with time zone]</text>
<polygon fill="none" stroke="black" points="66.48,-43.2 66.48,-74 401.84,-74 401.84,-43.2 66.48,-43.2"/>
<text text-anchor="start" x="73.48" y="-55.4" font-family="Arial" font-size="14.00">deleted_at </text>
<text text-anchor="start" x="142.76" y="-55.4" font-family="Arial" font-size="14.00" fill="#666666">[timestamp with time zone]</text>
</g>
<!-- public.email_verification_tokens&#45;&gt;public.users -->
<g id="edge1" class="edge">
<title>public.email_verification_tokens:user_id&#45;&gt;public.users:id</title>
<path fill="none" stroke="black" d="M433.35,-895.17C505.07,-865.53 483.05,-520.6 402.84,-520.6"/>
<polygon fill="black" stroke="black" points="433.25,-895.19 422.57,-892.72 428.02,-896.23 423.77,-897.07 423.77,-897.07 423.77,-897.07 428.02,-896.23 424.32,-901.55 433.25,-895.19"/>
<text text-anchor="start" x="430.12" y="-907.2" font-family="Arial" font-size="10.00">FOREIGN KEY (user_id) REFERENCES users(id) ON DELETE CASCADE</text>
</g>
</g>
</svg>
