<?xml version="1.0" encoding="UTF-8" standalone="no"?>
<!DOCTYPE svg PUBLIC "-//W3C//DTD SVG 1.1//EN"
 "http://www.w3.org/Graphics/SVG/1.1/DTD/svg11.dtd">
<!-- Generated by graphviz version 12.1.2 (20240928.0832)
 -->
<!-- Title: public.support_applications Pages: 1 -->
<svg width="438pt" height="506pt"
 viewBox="0.00 0.00 438.36 505.60" xmlns="http://www.w3.org/2000/svg" xmlns:xlink="http://www.w3.org/1999/xlink">
<g id="graph0" class="graph" transform="scale(1 1) rotate(0) translate(4 501.6)">
<title>public.support_applications</title>
<polygon fill="white" stroke="none" points="-4,4 -4,-501.6 434.36,-501.6 434.36,4 -4,4"/>
<!-- public.support_applications -->
<g id="node1" class="node">
<title>public.support_applications</title>
<polygon fill="#efefef" stroke="none" points="46.2,-415.8 46.2,-451.4 384.16,-451.4 384.16,-415.8 46.2,-415.8"/>
<polygon fill="none" stroke="black" points="46.2,-415.8 46.2,-451.4 384.16,-451.4 384.16,-415.8 46.2,-415.8"/>
<text text-anchor="start" x="53.2" y="-429.2" font-family="Arial Bold" font-size="18.00">public.support_applications</text>
<text text-anchor="start" x="252.67" y="-429.2" font-family="Arial" font-size="14.00">    </text>
<text text-anchor="start" x="283.78" y="-429.2" font-family="Arial" font-size="14.00" fill="#666666">[BASE TABLE]</text>
<polygon fill="none" stroke="black" points="46.2,-385 46.2,-415.8 384.16,-415.8 384.16,-385 46.2,-385"/>
<text text-anchor="start" x="53.2" y="-397.2" font-family="Arial" font-size="14.00">application_id </text>
<text text-anchor="start" x="142.71" y="-397.2" font-family="Arial" font-size="14.00" fill="#666666">[varchar(10)]</text>
<polygon fill="none" stroke="black" points="46.2,-354.2 46.2,-385 384.16,-385 384.16,-354.2 46.2,-354.2"/>
<text text-anchor="start" x="53.2" y="-366.4" font-family="Arial" font-size="14.00">application_date </text>
<text text-anchor="start" x="159.06" y="-366.4" font-family="Arial" font-size="14.00" fill="#666666">[date]</text>
<polygon fill="none" stroke="black" points="46.2,-323.4 46.2,-354.2 384.16,-354.2 384.16,-323.4 46.2,-323.4"/>
<text text-anchor="start" x="53.2" y="-335.6" font-family="Arial" font-size="14.00">applicant_name </text>
<text text-anchor="start" x="155.94" y="-335.6" font-family="Arial" font-size="14.00" fill="#666666">[varchar(100)]</text>
<polygon fill="none" stroke="black" points="46.2,-292.6 46.2,-323.4 384.16,-323.4 384.16,-292.6 46.2,-292.6"/>
<text text-anchor="start" x="53.2" y="-304.8" font-family="Arial" font-size="14.00">disaster_name </text>
<text text-anchor="start" x="148.92" y="-304.8" font-family="Arial" font-size="14.00" fill="#666666">[varchar(200)]</text>
<polygon fill="none" stroke="black" points="46.2,-261.8 46.2,-292.6 384.16,-292.6 384.16,-261.8 46.2,-261.8"/>
<text text-anchor="start" x="53.2" y="-274" font-family="Arial" font-size="14.00">requested_amount </text>
<text text-anchor="start" x="173.84" y="-274" font-family="Arial" font-size="14.00" fill="#666666">[bigint]</text>
<polygon fill="none" stroke="black" points="46.2,-231 46.2,-261.8 384.16,-261.8 384.16,-231 46.2,-231"/>
<text text-anchor="start" x="53.2" y="-243.2" font-family="Arial" font-size="14.00">status </text>
<text text-anchor="start" x="94.44" y="-243.2" font-family="Arial" font-size="14.00" fill="#666666">[varchar(20)]</text>
<polygon fill="none" stroke="black" points="46.2,-200.2 46.2,-231 384.16,-231 384.16,-200.2 46.2,-200.2"/>
<text text-anchor="start" x="53.2" y="-212.4" font-family="Arial" font-size="14.00">reviewed_at </text>
<text text-anchor="start" x="132.58" y="-212.4" font-family="Arial" font-size="14.00" fill="#666666">[timestamp without time zone]</text>
<polygon fill="none" stroke="black" points="46.2,-169.4 46.2,-200.2 384.16,-200.2 384.16,-169.4 46.2,-169.4"/>
<text text-anchor="start" x="53.2" y="-181.6" font-family="Arial" font-size="14.00">approved_at </text>
<text text-anchor="start" x="134.93" y="-181.6" font-family="Arial" font-size="14.00" fill="#666666">[timestamp without time zone]</text>
<polygon fill="none" stroke="black" points="46.2,-138.6 46.2,-169.4 384.16,-169.4 384.16,-138.6 46.2,-138.6"/>
<text text-anchor="start" x="53.2" y="-150.8" font-family="Arial" font-size="14.00">completed_at </text>
<text text-anchor="start" x="141.14" y="-150.8" font-family="Arial" font-size="14.00" fill="#666666">[timestamp without time zone]</text>
<polygon fill="none" stroke="black" points="46.2,-107.8 46.2,-138.6 384.16,-138.6 384.16,-107.8 46.2,-107.8"/>
<text text-anchor="start" x="53.2" y="-120" font-family="Arial" font-size="14.00">notes </text>
<text text-anchor="start" x="91.34" y="-120" font-family="Arial" font-size="14.00" fill="#666666">[text]</text>
<polygon fill="none" stroke="black" points="46.2,-77 46.2,-107.8 384.16,-107.8 384.16,-77 46.2,-77"/>
<text text-anchor="start" x="53.2" y="-89.2" font-family="Arial" font-size="14.00">created_at </text>
<text text-anchor="start" x="123.25" y="-89.2" font-family="Arial" font-size="14.00" fill="#666666">[timestamp without time zone]</text>
<polygon fill="none" stroke="black" points="46.2,-46.2 46.2,-77 384.16,-77 384.16,-46.2 46.2,-46.2"/>
<text text-anchor="start" x="53.2" y="-58.4" font-family="Arial" font-size="14.00">updated_at </text>
<text text-anchor="start" x="127.16" y="-58.4" font-family="Arial" font-size="14.00" fill="#666666">[timestamp without time zone]</text>
<polygon fill="none" stroke="black" stroke-width="3" points="44.7,-44.7 44.7,-452.9 385.66,-452.9 385.66,-44.7 44.7,-44.7"/>
</g>
</g>
</svg>
