<?xml version="1.0" encoding="UTF-8" standalone="no"?>
<!DOCTYPE svg PUBLIC "-//W3C//DTD SVG 1.1//EN"
 "http://www.w3.org/Graphics/SVG/1.1/DTD/svg11.dtd">
<!-- Generated by graphviz version 12.1.2 (20240928.0832)
 -->
<!-- Title: public.operation_logs Pages: 1 -->
<svg width="605pt" height="1187pt"
 viewBox="0.00 0.00 604.74 1187.20" xmlns="http://www.w3.org/2000/svg" xmlns:xlink="http://www.w3.org/1999/xlink">
<g id="graph0" class="graph" transform="scale(1 1) rotate(0) translate(4 1183.2)">
<title>public.operation_logs</title>
<polygon fill="white" stroke="none" points="-4,4 -4,-1183.2 600.74,-1183.2 600.74,4 -4,4"/>
<!-- public.operation_logs -->
<g id="node1" class="node">
<title>public.operation_logs</title>
<polygon fill="#efefef" stroke="none" points="63.4,-1097.4 63.4,-1133 358.36,-1133 358.36,-1097.4 63.4,-1097.4"/>
<polygon fill="none" stroke="black" points="63.4,-1097.4 63.4,-1133 358.36,-1133 358.36,-1097.4 63.4,-1097.4"/>
<text text-anchor="start" x="70.4" y="-1110.8" font-family="Arial Bold" font-size="18.00">public.operation_logs</text>
<text text-anchor="start" x="226.87" y="-1110.8" font-family="Arial" font-size="14.00">    </text>
<text text-anchor="start" x="257.99" y="-1110.8" font-family="Arial" font-size="14.00" fill="#666666">[BASE TABLE]</text>
<polygon fill="none" stroke="black" points="63.4,-1066.6 63.4,-1097.4 358.36,-1097.4 358.36,-1066.6 63.4,-1066.6"/>
<text text-anchor="start" x="70.4" y="-1078.8" font-family="Arial" font-size="14.00">id </text>
<text text-anchor="start" x="85.18" y="-1078.8" font-family="Arial" font-size="14.00" fill="#666666">[bigint]</text>
<polygon fill="none" stroke="black" points="63.4,-1035.8 63.4,-1066.6 358.36,-1066.6 358.36,-1035.8 63.4,-1035.8"/>
<text text-anchor="start" x="70.4" y="-1048" font-family="Arial" font-size="14.00">user_id </text>
<text text-anchor="start" x="120.2" y="-1048" font-family="Arial" font-size="14.00" fill="#666666">[uuid]</text>
<polygon fill="none" stroke="black" points="63.4,-1005 63.4,-1035.8 358.36,-1035.8 358.36,-1005 63.4,-1005"/>
<text text-anchor="start" x="70.4" y="-1017.2" font-family="Arial" font-size="14.00">action </text>
<text text-anchor="start" x="111.65" y="-1017.2" font-family="Arial" font-size="14.00" fill="#666666">[varchar(100)]</text>
<polygon fill="none" stroke="black" points="63.4,-974.2 63.4,-1005 358.36,-1005 358.36,-974.2 63.4,-974.2"/>
<text text-anchor="start" x="70.4" y="-986.4" font-family="Arial" font-size="14.00">resource_type </text>
<text text-anchor="start" x="163" y="-986.4" font-family="Arial" font-size="14.00" fill="#666666">[varchar(100)]</text>
<polygon fill="none" stroke="black" points="63.4,-943.4 63.4,-974.2 358.36,-974.2 358.36,-943.4 63.4,-943.4"/>
<text text-anchor="start" x="70.4" y="-955.6" font-family="Arial" font-size="14.00">resource_id </text>
<text text-anchor="start" x="147.44" y="-955.6" font-family="Arial" font-size="14.00" fill="#666666">[varchar(100)]</text>
<polygon fill="none" stroke="black" points="63.4,-912.6 63.4,-943.4 358.36,-943.4 358.36,-912.6 63.4,-912.6"/>
<text text-anchor="start" x="70.4" y="-924.8" font-family="Arial" font-size="14.00">endpoint </text>
<text text-anchor="start" x="128" y="-924.8" font-family="Arial" font-size="14.00" fill="#666666">[varchar(500)]</text>
<polygon fill="none" stroke="black" points="63.4,-881.8 63.4,-912.6 358.36,-912.6 358.36,-881.8 63.4,-881.8"/>
<text text-anchor="start" x="70.4" y="-894" font-family="Arial" font-size="14.00">method </text>
<text text-anchor="start" x="120.98" y="-894" font-family="Arial" font-size="14.00" fill="#666666">[varchar(10)]</text>
<polygon fill="none" stroke="black" points="63.4,-851 63.4,-881.8 358.36,-881.8 358.36,-851 63.4,-851"/>
<text text-anchor="start" x="70.4" y="-863.2" font-family="Arial" font-size="14.00">ip_address </text>
<text text-anchor="start" x="142.78" y="-863.2" font-family="Arial" font-size="14.00" fill="#666666">[inet]</text>
<polygon fill="none" stroke="black" points="63.4,-820.2 63.4,-851 358.36,-851 358.36,-820.2 63.4,-820.2"/>
<text text-anchor="start" x="70.4" y="-832.4" font-family="Arial" font-size="14.00">user_agent </text>
<text text-anchor="start" x="144.34" y="-832.4" font-family="Arial" font-size="14.00" fill="#666666">[text]</text>
<polygon fill="none" stroke="black" points="63.4,-789.4 63.4,-820.2 358.36,-820.2 358.36,-789.4 63.4,-789.4"/>
<text text-anchor="start" x="70.4" y="-801.6" font-family="Arial" font-size="14.00">request_data </text>
<text text-anchor="start" x="156.02" y="-801.6" font-family="Arial" font-size="14.00" fill="#666666">[jsonb]</text>
<polygon fill="none" stroke="black" points="63.4,-758.6 63.4,-789.4 358.36,-789.4 358.36,-758.6 63.4,-758.6"/>
<text text-anchor="start" x="70.4" y="-770.8" font-family="Arial" font-size="14.00">response_status </text>
<text text-anchor="start" x="177.02" y="-770.8" font-family="Arial" font-size="14.00" fill="#666666">[integer]</text>
<polygon fill="none" stroke="black" points="63.4,-727.8 63.4,-758.6 358.36,-758.6 358.36,-727.8 63.4,-727.8"/>
<text text-anchor="start" x="70.4" y="-740" font-family="Arial" font-size="14.00">execution_time_ms </text>
<text text-anchor="start" x="194.9" y="-740" font-family="Arial" font-size="14.00" fill="#666666">[integer]</text>
<polygon fill="none" stroke="black" points="63.4,-697 63.4,-727.8 358.36,-727.8 358.36,-697 63.4,-697"/>
<text text-anchor="start" x="70.4" y="-709.2" font-family="Arial" font-size="14.00">created_at </text>
<text text-anchor="start" x="140.45" y="-709.2" font-family="Arial" font-size="14.00" fill="#666666">[timestamp with time zone]</text>
<polygon fill="none" stroke="black" stroke-width="3" points="61.9,-695.5 61.9,-1134.5 359.86,-1134.5 359.86,-695.5 61.9,-695.5"/>
</g>
<!-- public.users -->
<g id="node2" class="node">
<title>public.users</title>
<polygon fill="#efefef" stroke="none" points="43.2,-536 43.2,-571.6 378.56,-571.6 378.56,-536 43.2,-536"/>
<polygon fill="none" stroke="black" points="43.2,-536 43.2,-571.6 378.56,-571.6 378.56,-536 43.2,-536"/>
<text text-anchor="start" x="105.39" y="-549.4" font-family="Arial Bold" font-size="18.00">public.users</text>
<text text-anchor="start" x="191.88" y="-549.4" font-family="Arial" font-size="14.00">    </text>
<text text-anchor="start" x="222.99" y="-549.4" font-family="Arial" font-size="14.00" fill="#666666">[BASE TABLE]</text>
<polygon fill="none" stroke="black" points="43.2,-505.2 43.2,-536 378.56,-536 378.56,-505.2 43.2,-505.2"/>
<text text-anchor="start" x="50.2" y="-517.4" font-family="Arial" font-size="14.00">id </text>
<text text-anchor="start" x="64.99" y="-517.4" font-family="Arial" font-size="14.00" fill="#666666">[uuid]</text>
<polygon fill="none" stroke="black" points="43.2,-474.4 43.2,-505.2 378.56,-505.2 378.56,-474.4 43.2,-474.4"/>
<text text-anchor="start" x="50.2" y="-486.6" font-family="Arial" font-size="14.00">name </text>
<text text-anchor="start" x="89.11" y="-486.6" font-family="Arial" font-size="14.00" fill="#666666">[varchar(255)]</text>
<polygon fill="none" stroke="black" points="43.2,-443.6 43.2,-474.4 378.56,-474.4 378.56,-443.6 43.2,-443.6"/>
<text text-anchor="start" x="50.2" y="-455.8" font-family="Arial" font-size="14.00">email </text>
<text text-anchor="start" x="87.54" y="-455.8" font-family="Arial" font-size="14.00" fill="#666666">[varchar(255)]</text>
<polygon fill="none" stroke="black" points="43.2,-412.8 43.2,-443.6 378.56,-443.6 378.56,-412.8 43.2,-412.8"/>
<text text-anchor="start" x="50.2" y="-425" font-family="Arial" font-size="14.00">password </text>
<text text-anchor="start" x="114.01" y="-425" font-family="Arial" font-size="14.00" fill="#666666">[varchar(255)]</text>
<polygon fill="none" stroke="black" points="43.2,-382 43.2,-412.8 378.56,-412.8 378.56,-382 43.2,-382"/>
<text text-anchor="start" x="50.2" y="-394.2" font-family="Arial" font-size="14.00">organization_id </text>
<text text-anchor="start" x="149.05" y="-394.2" font-family="Arial" font-size="14.00" fill="#666666">[integer]</text>
<polygon fill="none" stroke="black" points="43.2,-351.2 43.2,-382 378.56,-382 378.56,-351.2 43.2,-351.2"/>
<text text-anchor="start" x="50.2" y="-363.4" font-family="Arial" font-size="14.00">role_id </text>
<text text-anchor="start" x="96.12" y="-363.4" font-family="Arial" font-size="14.00" fill="#666666">[smallint]</text>
<polygon fill="none" stroke="black" points="43.2,-320.4 43.2,-351.2 378.56,-351.2 378.56,-320.4 43.2,-320.4"/>
<text text-anchor="start" x="50.2" y="-332.6" font-family="Arial" font-size="14.00">is_active </text>
<text text-anchor="start" x="108.56" y="-332.6" font-family="Arial" font-size="14.00" fill="#666666">[boolean]</text>
<polygon fill="none" stroke="black" points="43.2,-289.6 43.2,-320.4 378.56,-320.4 378.56,-289.6 43.2,-289.6"/>
<text text-anchor="start" x="50.2" y="-301.8" font-family="Arial" font-size="14.00">email_verified </text>
<text text-anchor="start" x="140.46" y="-301.8" font-family="Arial" font-size="14.00" fill="#666666">[boolean]</text>
<polygon fill="none" stroke="black" points="43.2,-258.8 43.2,-289.6 378.56,-289.6 378.56,-258.8 43.2,-258.8"/>
<text text-anchor="start" x="50.2" y="-271" font-family="Arial" font-size="14.00">mfa_enabled </text>
<text text-anchor="start" x="135.04" y="-271" font-family="Arial" font-size="14.00" fill="#666666">[boolean]</text>
<polygon fill="none" stroke="black" points="43.2,-228 43.2,-258.8 378.56,-258.8 378.56,-228 43.2,-228"/>
<text text-anchor="start" x="50.2" y="-240.2" font-family="Arial" font-size="14.00">mfa_secret </text>
<text text-anchor="start" x="123.34" y="-240.2" font-family="Arial" font-size="14.00" fill="#666666">[varchar(255)]</text>
<polygon fill="none" stroke="black" points="43.2,-197.2 43.2,-228 378.56,-228 378.56,-197.2 43.2,-197.2"/>
<text text-anchor="start" x="50.2" y="-209.4" font-family="Arial" font-size="14.00">password_reset_token </text>
<text text-anchor="start" x="194.95" y="-209.4" font-family="Arial" font-size="14.00" fill="#666666">[varchar(255)]</text>
<polygon fill="none" stroke="black" points="43.2,-166.4 43.2,-197.2 378.56,-197.2 378.56,-166.4 43.2,-166.4"/>
<text text-anchor="start" x="50.2" y="-178.6" font-family="Arial" font-size="14.00">password_reset_expires </text>
<text text-anchor="start" x="205.83" y="-178.6" font-family="Arial" font-size="14.00" fill="#666666">[timestamp with time zone]</text>
<polygon fill="none" stroke="black" points="43.2,-135.6 43.2,-166.4 378.56,-166.4 378.56,-135.6 43.2,-135.6"/>
<text text-anchor="start" x="50.2" y="-147.8" font-family="Arial" font-size="14.00">last_password_change </text>
<text text-anchor="start" x="197.3" y="-147.8" font-family="Arial" font-size="14.00" fill="#666666">[timestamp with time zone]</text>
<polygon fill="none" stroke="black" points="43.2,-104.8 43.2,-135.6 378.56,-135.6 378.56,-104.8 43.2,-104.8"/>
<text text-anchor="start" x="50.2" y="-117" font-family="Arial" font-size="14.00">created_at </text>
<text text-anchor="start" x="120.25" y="-117" font-family="Arial" font-size="14.00" fill="#666666">[timestamp with time zone]</text>
<polygon fill="none" stroke="black" points="43.2,-74 43.2,-104.8 378.56,-104.8 378.56,-74 43.2,-74"/>
<text text-anchor="start" x="50.2" y="-86.2" font-family="Arial" font-size="14.00">updated_at </text>
<text text-anchor="start" x="124.16" y="-86.2" font-family="Arial" font-size="14.00" fill="#666666">[timestamp with time zone]</text>
<polygon fill="none" stroke="black" points="43.2,-43.2 43.2,-74 378.56,-74 378.56,-43.2 43.2,-43.2"/>
<text text-anchor="start" x="50.2" y="-55.4" font-family="Arial" font-size="14.00">deleted_at </text>
<text text-anchor="start" x="119.48" y="-55.4" font-family="Arial" font-size="14.00" fill="#666666">[timestamp with time zone]</text>
</g>
<!-- public.operation_logs&#45;&gt;public.users -->
<g id="edge1" class="edge">
<title>public.operation_logs:user_id&#45;&gt;public.users:id</title>
<path fill="none" stroke="black" d="M368.68,-1046.61C420.33,-994.75 435.33,-520.6 379.56,-520.6"/>
<polygon fill="black" stroke="black" points="368.63,-1046.64 357.67,-1047.01 363.85,-1048.99 359.96,-1050.9 359.96,-1050.9 359.96,-1050.9 363.85,-1048.99 361.65,-1055.09 368.63,-1046.64"/>
<text text-anchor="start" x="366.36" y="-1061.2" font-family="Arial" font-size="10.00">FOREIGN KEY (user_id) REFERENCES users(id)</text>
</g>
</g>
</svg>
