<?xml version="1.0" encoding="UTF-8" standalone="no"?>
<!DOCTYPE svg PUBLIC "-//W3C//DTD SVG 1.1//EN"
 "http://www.w3.org/Graphics/SVG/1.1/DTD/svg11.dtd">
<!-- Generated by graphviz version 12.1.2 (20240928.0832)
 -->
<!-- Title: public.municipalities Pages: 1 -->
<svg width="661pt" height="633pt"
 viewBox="0.00 0.00 661.48 632.80" xmlns="http://www.w3.org/2000/svg" xmlns:xlink="http://www.w3.org/1999/xlink">
<g id="graph0" class="graph" transform="scale(1 1) rotate(0) translate(4 628.8)">
<title>public.municipalities</title>
<polygon fill="white" stroke="none" points="-4,4 -4,-628.8 657.48,-628.8 657.48,4 -4,4"/>
<!-- public.municipalities -->
<g id="node1" class="node">
<title>public.municipalities</title>
<polygon fill="#efefef" stroke="none" points="46.2,-543 46.2,-578.6 336.16,-578.6 336.16,-543 46.2,-543"/>
<polygon fill="none" stroke="black" points="46.2,-543 46.2,-578.6 336.16,-578.6 336.16,-543 46.2,-543"/>
<text text-anchor="start" x="53.2" y="-556.4" font-family="Arial Bold" font-size="18.00">public.municipalities</text>
<text text-anchor="start" x="204.67" y="-556.4" font-family="Arial" font-size="14.00">    </text>
<text text-anchor="start" x="235.79" y="-556.4" font-family="Arial" font-size="14.00" fill="#666666">[BASE TABLE]</text>
<polygon fill="none" stroke="black" points="46.2,-512.2 46.2,-543 336.16,-543 336.16,-512.2 46.2,-512.2"/>
<text text-anchor="start" x="53.2" y="-524.4" font-family="Arial" font-size="14.00">id </text>
<text text-anchor="start" x="67.99" y="-524.4" font-family="Arial" font-size="14.00" fill="#666666">[integer]</text>
<polygon fill="none" stroke="black" points="46.2,-481.4 46.2,-512.2 336.16,-512.2 336.16,-481.4 46.2,-481.4"/>
<text text-anchor="start" x="53.2" y="-493.6" font-family="Arial" font-size="14.00">prefecture_code </text>
<text text-anchor="start" x="158.27" y="-493.6" font-family="Arial" font-size="14.00" fill="#666666">[varchar(2)]</text>
<polygon fill="none" stroke="black" points="46.2,-450.6 46.2,-481.4 336.16,-481.4 336.16,-450.6 46.2,-450.6"/>
<text text-anchor="start" x="53.2" y="-462.8" font-family="Arial" font-size="14.00">organization_code </text>
<text text-anchor="start" x="171.51" y="-462.8" font-family="Arial" font-size="14.00" fill="#666666">[varchar(6)]</text>
<polygon fill="none" stroke="black" points="46.2,-419.8 46.2,-450.6 336.16,-450.6 336.16,-419.8 46.2,-419.8"/>
<text text-anchor="start" x="53.2" y="-432" font-family="Arial" font-size="14.00">prefecture_name_kanji </text>
<text text-anchor="start" x="199.51" y="-432" font-family="Arial" font-size="14.00" fill="#666666">[varchar(10)]</text>
<polygon fill="none" stroke="black" points="46.2,-389 46.2,-419.8 336.16,-419.8 336.16,-389 46.2,-389"/>
<text text-anchor="start" x="53.2" y="-401.2" font-family="Arial" font-size="14.00">municipality_name_kanji </text>
<text text-anchor="start" x="209.61" y="-401.2" font-family="Arial" font-size="14.00" fill="#666666">[varchar(50)]</text>
<polygon fill="none" stroke="black" points="46.2,-358.2 46.2,-389 336.16,-389 336.16,-358.2 46.2,-358.2"/>
<text text-anchor="start" x="53.2" y="-370.4" font-family="Arial" font-size="14.00">prefecture_name_kana </text>
<text text-anchor="start" x="201.07" y="-370.4" font-family="Arial" font-size="14.00" fill="#666666">[varchar(20)]</text>
<polygon fill="none" stroke="black" points="46.2,-327.4 46.2,-358.2 336.16,-358.2 336.16,-327.4 46.2,-327.4"/>
<text text-anchor="start" x="53.2" y="-339.6" font-family="Arial" font-size="14.00">municipality_name_kana </text>
<text text-anchor="start" x="211.18" y="-339.6" font-family="Arial" font-size="14.00" fill="#666666">[varchar(100)]</text>
<polygon fill="none" stroke="black" points="46.2,-296.6 46.2,-327.4 336.16,-327.4 336.16,-296.6 46.2,-296.6"/>
<text text-anchor="start" x="53.2" y="-308.8" font-family="Arial" font-size="14.00">is_active </text>
<text text-anchor="start" x="111.56" y="-308.8" font-family="Arial" font-size="14.00" fill="#666666">[boolean]</text>
<polygon fill="none" stroke="black" stroke-width="3" points="44.7,-295.1 44.7,-580.1 337.66,-580.1 337.66,-295.1 44.7,-295.1"/>
</g>
<!-- public.prefectures -->
<g id="node2" class="node">
<title>public.prefectures</title>
<polygon fill="#efefef" stroke="none" points="57.22,-135.6 57.22,-171.2 325.14,-171.2 325.14,-135.6 57.22,-135.6"/>
<polygon fill="none" stroke="black" points="57.22,-135.6 57.22,-171.2 325.14,-171.2 325.14,-135.6 57.22,-135.6"/>
<text text-anchor="start" x="64.22" y="-149" font-family="Arial Bold" font-size="18.00">public.prefectures</text>
<text text-anchor="start" x="193.65" y="-149" font-family="Arial" font-size="14.00">    </text>
<text text-anchor="start" x="224.77" y="-149" font-family="Arial" font-size="14.00" fill="#666666">[BASE TABLE]</text>
<polygon fill="none" stroke="black" points="57.22,-104.8 57.22,-135.6 325.14,-135.6 325.14,-104.8 57.22,-104.8"/>
<text text-anchor="start" x="64.22" y="-117" font-family="Arial" font-size="14.00">id </text>
<text text-anchor="start" x="79" y="-117" font-family="Arial" font-size="14.00" fill="#666666">[integer]</text>
<polygon fill="none" stroke="black" points="57.22,-74 57.22,-104.8 325.14,-104.8 325.14,-74 57.22,-74"/>
<text text-anchor="start" x="64.22" y="-86.2" font-family="Arial" font-size="14.00">code </text>
<text text-anchor="start" x="98.47" y="-86.2" font-family="Arial" font-size="14.00" fill="#666666">[varchar(2)]</text>
<polygon fill="none" stroke="black" points="57.22,-43.2 57.22,-74 325.14,-74 325.14,-43.2 57.22,-43.2"/>
<text text-anchor="start" x="64.22" y="-55.4" font-family="Arial" font-size="14.00">name </text>
<text text-anchor="start" x="103.13" y="-55.4" font-family="Arial" font-size="14.00" fill="#666666">[varchar(10)]</text>
</g>
<!-- public.municipalities&#45;&gt;public.prefectures -->
<g id="edge1" class="edge">
<title>public.municipalities:prefecture_code&#45;&gt;public.prefectures:code</title>
<path fill="none" stroke="black" d="M347.31,-494.98C426.74,-465.59 413.17,-89.4 326.14,-89.4"/>
<polygon fill="black" stroke="black" points="347.33,-494.98 336.7,-492.31 342.08,-495.92 337.82,-496.68 337.82,-496.68 337.82,-496.68 342.08,-495.92 338.28,-501.17 347.33,-494.98"/>
<text text-anchor="start" x="344.16" y="-506.8" font-family="Arial" font-size="10.00">FOREIGN KEY (prefecture_code) REFERENCES prefectures(code)</text>
</g>
</g>
</svg>
